<?xml version="1.0" encoding="UTF-8" standalone="no"?>
<svg
   xmlns:dc="http://purl.org/dc/elements/1.1/"
   xmlns:cc="http://creativecommons.org/ns#"
   xmlns:rdf="http://www.w3.org/1999/02/22-rdf-syntax-ns#"
   xmlns:svg="http://www.w3.org/2000/svg"
   xmlns="http://www.w3.org/2000/svg"
   xmlns:sodipodi="http://sodipodi.sourceforge.net/DTD/sodipodi-0.dtd"
   xmlns:inkscape="http://www.inkscape.org/namespaces/inkscape"
   version="1.1"
   x="0px"
   y="0px"
   viewBox="0 0 32 32"
   enable-background="new 0 0 100 100"
   xml:space="preserve"
   id="svg10"
   sodipodi:docname="corner_store.svg"
   width="32"
   height="32"
   inkscape:version="0.92+devel (unknown)"
   inkscape:export-filename="/home/josh/kotcity4/src/main/resources/sprites/corner_store.png"
   inkscape:export-xdpi="96"
   inkscape:export-ydpi="96"><metadata
     id="metadata16"><rdf:RDF><cc:Work
         rdf:about=""><dc:format>image/svg+xml</dc:format><dc:type
           rdf:resource="http://purl.org/dc/dcmitype/StillImage" /><dc:title></dc:title></cc:Work></rdf:RDF></metadata><defs
     id="defs14" /><sodipodi:namedview
     pagecolor="#ffffff"
     bordercolor="#666666"
     inkscape:document-rotation="0"
     borderopacity="1"
     objecttolerance="10"
     gridtolerance="10"
     guidetolerance="10"
     inkscape:pageopacity="0"
     inkscape:pageshadow="2"
     inkscape:window-width="3200"
     inkscape:window-height="1637"
     id="namedview12"
     showgrid="false"
     inkscape:zoom="11.128"
     inkscape:cx="14.459022"
     inkscape:cy="19.365564"
     inkscape:window-x="0"
     inkscape:window-y="0"
     inkscape:window-maximized="1"
     inkscape:current-layer="svg10" /><g
     id="g4"
     transform="matrix(0.30315479,0,0,0.30315479,0.76042806,0.93973182)"><path
       d="m 94.724,22.965 -10,-16.98 C 84.364,5.375 83.708,5 83,5 H 17 c -0.708,0 -1.364,0.375 -1.724,0.985 l -10,16.98 C 5.096,23.272 5,23.623 5,23.98 v 8.27 H 5.051 C 5.304,35.49 6.771,38.389 9,40.499 V 95 H 91 V 40.499 c 2.229,-2.11 3.696,-5.009 3.949,-8.249 H 95 v -8.27 c 0,-0.357 -0.096,-0.708 -0.276,-1.015 z M 91,31.25 C 91,36.075 87.075,40 82.25,40 77.425,40 73.5,36.075 73.5,31.25 V 25.98 H 91 v 3.27 z M 33,60 c 0,-2.206 1.794,-4 4,-4 2.206,0 4,1.794 4,4 0,2.204 -1.791,3.997 -3.995,4 h -0.01 C 34.791,63.997 33,62.204 33,60 Z m 37,4 v -6 h -8 v 6 h -4 v -6 h -8 v 6 H 43.918 C 44.602,62.821 45,61.458 45,60 45,57.047 43.387,54.468 41,53.083 V 49 h -8 v 4.083 c -2.387,1.386 -4,3.964 -4,6.917 0,1.458 0.398,2.821 1.082,4 H 25 V 41.725 c 1.396,-0.97 2.585,-2.212 3.5,-3.648 C 30.766,41.631 34.732,44 39.25,44 43.768,44 47.734,41.631 50,38.077 52.266,41.631 56.232,44 60.75,44 c 4.518,0 8.484,-2.369 10.75,-5.923 0.915,1.436 2.104,2.678 3.5,3.648 V 64 Z M 9,29.25 v -3.27 h 17.5 v 5.27 C 26.5,36.075 22.575,40 17.75,40 12.925,40 9,36.075 9,31.25 Z M 31.25,9 27.046,21.98 H 10.499 L 18.144,9 Z M 48,9 V 21.98 H 31.25 L 35.454,9 Z M 64.546,9 68.75,21.98 H 52 V 9 Z m 17.31,0 7.645,12.98 H 72.954 L 68.75,9 Z M 60.75,40 C 55.925,40 52,36.075 52,31.25 v -5.27 h 17.5 v 5.27 C 69.5,36.075 65.575,40 60.75,40 Z M 30.5,31.25 V 25.98 H 48 v 5.27 C 48,36.075 44.075,40 39.25,40 34.425,40 30.5,36.075 30.5,31.25 Z M 87,91 H 13 V 43.073 C 14.47,43.666 16.07,44 17.75,44 18.875,44 19.96,43.839 21,43.564 V 64 h -2 c -1.104,0 -2,0.896 -2,2 0,1.104 0.896,2 2,2 h 62 c 1.104,0 2,-0.896 2,-2 0,-1.104 -0.896,-2 -2,-2 H 79 V 43.564 C 80.04,43.839 81.125,44 82.25,44 83.93,44 85.53,43.666 87,43.073 Z"
       id="path2"
       inkscape:connector-curvature="0" /></g></svg>