<?xml version="1.0" encoding="UTF-8" standalone="no"?>
<!-- Created with Inkscape (http://www.inkscape.org/) -->

<svg
   xmlns:dc="http://purl.org/dc/elements/1.1/"
   xmlns:cc="http://creativecommons.org/ns#"
   xmlns:rdf="http://www.w3.org/1999/02/22-rdf-syntax-ns#"
   xmlns:svg="http://www.w3.org/2000/svg"
   xmlns="http://www.w3.org/2000/svg"
   xmlns:sodipodi="http://sodipodi.sourceforge.net/DTD/sodipodi-0.dtd"
   xmlns:inkscape="http://www.inkscape.org/namespaces/inkscape"
   width="64mm"
   height="64mm"
   viewBox="0 0 64 64"
   version="1.1"
   id="svg3793"
   inkscape:version="0.92.2 (5c3e80d, 2017-08-06)"
   sodipodi:docname="small_house.svg">
  <defs
     id="defs3787" />
  <sodipodi:namedview
     id="base"
     pagecolor="#ffffff"
     bordercolor="#666666"
     borderopacity="1.0"
     inkscape:pageopacity="0.0"
     inkscape:pageshadow="2"
     inkscape:zoom="1.979899"
     inkscape:cx="-44.806843"
     inkscape:cy="132.52363"
     inkscape:document-units="mm"
     inkscape:current-layer="layer1"
     showgrid="false"
     inkscape:pagecheckerboard="true"
     inkscape:window-width="1680"
     inkscape:window-height="1013"
     inkscape:window-x="1920"
     inkscape:window-y="0"
     inkscape:window-maximized="1" />
  <metadata
     id="metadata3790">
    <rdf:RDF>
      <cc:Work
         rdf:about="">
        <dc:format>image/svg+xml</dc:format>
        <dc:type
           rdf:resource="http://purl.org/dc/dcmitype/StillImage" />
        <dc:title></dc:title>
      </cc:Work>
    </rdf:RDF>
  </metadata>
  <g
     inkscape:label="Layer 1"
     inkscape:groupmode="layer"
     id="layer1"
     transform="translate(0,-233)">
    <g
       id="g3997"
       transform="matrix(2.4254319,0,0,2.4254319,577.03363,-88.528092)">
      <path
         style="stroke-width:0.26458332"
         id="path3851"
         d="m -236.02784,144.28588 11.31173,-6.49208 11.31173,6.49182 c 0.0624,0.036 0.13017,0.0526 0.19738,0.0526 0.13758,0 0.27093,-0.0717 0.34448,-0.19923 0.10901,-0.19024 0.0434,-0.43286 -0.14657,-0.54187 l -11.50938,-6.60532 c -0.1225,-0.0704 -0.27279,-0.0704 -0.39529,0 l -11.50937,6.60532 c -0.18997,0.10901 -0.25559,0.35163 -0.14658,0.54187 0.10927,0.1905 0.35189,0.25638 0.54187,0.14684 z"
         inkscape:connector-curvature="0" />
      <path
         style="stroke-width:0.26458332"
         id="path3853"
         d="m -220.12004,138.95559 1.88516,1.0996 c 0.041,0.0238 0.0873,0.036 0.13335,0.036 0.0455,0 0.091,-0.0116 0.13176,-0.0352 0.0823,-0.0471 0.13282,-0.13441 0.13282,-0.2294 v -3.43958 c 0,-0.14631 -0.11827,-0.26458 -0.26458,-0.26458 h -1.88516 c -0.14631,0 -0.26458,0.11827 -0.26458,0.26458 v 2.33998 c 0,0.0939 0.0497,0.18097 0.13123,0.2286 z"
         inkscape:connector-curvature="0" />
      <path
         style="stroke-width:0.26458332"
         id="path3855"
         d="m -224.56186,138.32323 c -0.0955,-0.0548 -0.21299,-0.0548 -0.30851,0 l -9.525,5.46629 c -0.096,0.0553 -0.15557,0.15796 -0.15557,0.26882 v 11.02704 c 0,0.17092 0.13864,0.30983 0.30983,0.30983 h 19.05 c 0.17092,0 0.30982,-0.13865 0.30982,-0.30983 v -11.02704 c 0,-0.11086 -0.0595,-0.21352 -0.15557,-0.26882 z m -0.15425,2.19366 c 0.70458,0 1.27767,0.57309 1.27767,1.27767 0,0.70459 -0.57309,1.27768 -1.27767,1.27768 -0.70459,0 -1.27768,-0.57309 -1.27768,-1.27768 0,-0.70458 0.57309,-1.27767 1.27768,-1.27767 z m -1.6854,6.20739 v 3.71581 h -5.67716 v -3.71581 z m 3.99521,6.80879 v -6.80879 h 4.22381 v 6.80852 h -4.22381 z"
         inkscape:connector-curvature="0" />
    </g>
  </g>
</svg>
