<?xml version="1.0" encoding="UTF-8" standalone="no"?>
<svg
   xmlns:dc="http://purl.org/dc/elements/1.1/"
   xmlns:cc="http://creativecommons.org/ns#"
   xmlns:rdf="http://www.w3.org/1999/02/22-rdf-syntax-ns#"
   xmlns:svg="http://www.w3.org/2000/svg"
   xmlns="http://www.w3.org/2000/svg"
   xmlns:sodipodi="http://sodipodi.sourceforge.net/DTD/sodipodi-0.dtd"
   xmlns:inkscape="http://www.inkscape.org/namespaces/inkscape"
   version="1.1"
   x="0px"
   y="0px"
   viewBox="0 0 512 512"
   id="svg22"
   sodipodi:docname="elementary_school.svg"
   width="512"
   height="512"
   inkscape:version="0.92.2 (5c3e80d, 2017-08-06)">
  <metadata
     id="metadata28">
    <rdf:RDF>
      <cc:Work
         rdf:about="">
        <dc:format>image/svg+xml</dc:format>
        <dc:type
           rdf:resource="http://purl.org/dc/dcmitype/StillImage" />
        <dc:title></dc:title>
      </cc:Work>
    </rdf:RDF>
  </metadata>
  <defs
     id="defs26" />
  <sodipodi:namedview
     pagecolor="#ffffff"
     bordercolor="#666666"
     borderopacity="1"
     objecttolerance="10"
     gridtolerance="10"
     guidetolerance="10"
     inkscape:pageopacity="0"
     inkscape:pageshadow="2"
     inkscape:window-width="986"
     inkscape:window-height="642"
     id="namedview24"
     showgrid="false"
     inkscape:zoom="0.3337544"
     inkscape:cx="255.02687"
     inkscape:cy="199.64261"
     inkscape:window-x="227"
     inkscape:window-y="253"
     inkscape:window-maximized="0"
     inkscape:current-layer="svg22" />
  <g
     id="g38"
     transform="matrix(5.0857299,0,0,5.0857299,1.713505,-1966.464)">
    <g
       id="g16"
       transform="translate(0,-565.36218)">
      <path
         inkscape:connector-curvature="0"
         id="path2"
         overflow="visible"
         display="inline"
         visibility="visible"
         marker="none"
         style="color:#000000;text-indent:0;text-transform:none;direction:ltr;baseline-shift:baseline;display:inline;overflow:visible;visibility:visible;fill:#000000;fill-opacity:1;fill-rule:evenodd;stroke:none;enable-background:accumulate"
         d="m 49.750001,958.362 c 1.288098,0.0112 2.427201,1.19324 2.437476,2.21875 v 16.56248 L 70.593788,989.237 c 0.615791,0.40446 1.004492,1.13534 0.999992,1.87497 v 13.40633 h 9.187405 c 1.157422,0 2.18739,1.0867 2.187603,2.2499 v 35.1564 h 8.781202 c 1.17021,-0.02 2.25,1.0424 2.25,2.2187 0,1.1764 -1.07979,2.2392 -2.25,2.2188 H 8.187471 c -1.144524,-0.02 -2.187461,-1.0682 -2.187461,-2.2188 0,-1.1505 1.042937,-2.1987 2.187461,-2.2187 h 8.718732 v -35.1564 c 0,-1.1632 1.061397,-2.2498 2.218748,-2.2499 h 9.187547 v -13.40633 c 0,-0.73963 0.383988,-1.47051 0.999992,-1.87497 l 18.437491,-12.09377 v -6.37498 H 36.499982 c -1.157386,0 -2.218607,-1.0868 -2.218784,-2.25 v -7.9375 c 0,-1.16323 1.061398,-2.21864 2.218784,-2.21875 z m 0.218799,22.62497 -17.250023,11.31251 v 14.46872 c 0,1.1634 -1.030181,2.2187 -2.187602,2.2189 h -9.18737 v 32.9375 h 16.781173 v -28.4688 c 0,-1.1632 1.061397,-2.2186 2.218819,-2.2187 h 19.250007 c 1.157102,0 2.218571,1.0555 2.218677,2.2187 v 28.4688 h 16.749992 v -32.9375 h -9.187476 c -1.157422,0 -2.218607,-1.0555 -2.218819,-2.2189 v -14.46872 z m 7.437402,34.68763 h -5.218725 v 26.25 h 5.218725 z m -9.656221,0 h -5.218795 v 26.25 h 5.218795 z" />
      <path
         inkscape:connector-curvature="0"
         id="path4"
         overflow="visible"
         display="inline"
         visibility="visible"
         marker="none"
         style="color:#000000;text-indent:0;text-transform:none;direction:ltr;baseline-shift:baseline;display:inline;overflow:visible;visibility:visible;fill:#000000;fill-opacity:1;fill-rule:evenodd;stroke:none;enable-background:accumulate"
         d="m 49.9688,987.39324 c 6.014587,0 10.906193,4.93359 10.906193,10.93751 0,6.03345 -4.891606,11.00005 -10.906193,11.00005 -6.014693,0 -10.906299,-4.9666 -10.906299,-11.00005 0,-6.00392 4.891606,-10.93751 10.906299,-10.93751 z m 0,4.43749 c -3.618708,0 -6.500019,2.89988 -6.500019,6.50002 0,3.64915 2.881311,6.56245 6.500019,6.56245 3.618603,0 6.468697,-2.9133 6.468697,-6.56245 0,-3.60014 -2.850094,-6.50002 -6.468697,-6.50002 z" />
      <path
         inkscape:connector-curvature="0"
         id="path6"
         overflow="visible"
         display="inline"
         visibility="visible"
         marker="none"
         style="color:#000000;text-indent:0;text-transform:none;direction:ltr;baseline-shift:baseline;display:inline;overflow:visible;visibility:visible;fill:#000000;fill-opacity:1;fill-rule:evenodd;stroke:none;enable-background:accumulate"
         d="m 50.284155,992.22847 a 2.2105653,2.2219111 0 0 1 2.177043,2.25336 v 4.25095 a 2.2105653,2.2219111 0 0 1 -2.210102,2.22142 h -4.26841 a 2.2105653,2.2219111 0 1 1 0,-4.44279 h 2.058307 v -2.02958 a 2.2105653,2.2219111 0 0 1 2.243162,-2.25336 z" />
      <path
         inkscape:connector-curvature="0"
         id="path8"
         overflow="visible"
         display="inline"
         visibility="visible"
         marker="none"
         style="color:#000000;text-indent:0;text-transform:none;direction:ltr;baseline-shift:baseline;display:inline;overflow:visible;visibility:visible;fill:#000000;fill-opacity:1;fill-rule:evenodd;stroke:none;enable-background:accumulate"
         d="m 74.874989,1011.1121 a 2.2105653,2.2219111 0 0 1 1.999984,2.2187 v 9.625 a 2.2105653,2.2219111 0 0 1 -2.218784,2.2188 h -9.531212 a 2.2105653,2.2219111 0 0 1 -2.218783,-2.2188 v -9.625 a 2.2105653,2.2219111 0 0 1 2.218783,-2.2187 h 9.531212 a 2.2105653,2.2219111 0 0 1 0.2188,0 z m -2.406189,4.4375 h -5.156327 v 5.1562 H 72.4688 Z" />
      <path
         inkscape:connector-curvature="0"
         id="path10"
         overflow="visible"
         display="inline"
         visibility="visible"
         marker="none"
         style="color:#000000;text-indent:0;text-transform:none;direction:ltr;baseline-shift:baseline;display:inline;overflow:visible;visibility:visible;fill:#000000;fill-opacity:1;fill-rule:evenodd;stroke:none;enable-background:accumulate"
         d="m 74.874989,1026.1121 a 2.2105653,2.2219111 0 0 1 1.999984,2.2187 v 9.5938 a 2.2105653,2.2219111 0 0 1 -2.218784,2.2187 h -9.531212 a 2.2105653,2.2219111 0 0 1 -2.218783,-2.2187 v -9.5938 a 2.2105653,2.2219111 0 0 1 2.218783,-2.2187 h 9.531212 a 2.2105653,2.2219111 0 0 1 0.2188,0 z m -2.406189,4.4375 h -5.156327 v 5.1562 H 72.4688 Z" />
      <path
         inkscape:connector-curvature="0"
         id="path12"
         overflow="visible"
         display="inline"
         visibility="visible"
         marker="none"
         style="color:#000000;text-indent:0;text-transform:none;direction:ltr;baseline-shift:baseline;display:inline;overflow:visible;visibility:visible;fill:#000000;fill-opacity:1;fill-rule:evenodd;stroke:none;enable-background:accumulate"
         d="m 34.999994,1011.1121 a 2.2105653,2.2219111 0 0 1 1.968803,2.2187 v 9.625 a 2.2105653,2.2219111 0 0 1 -2.218819,2.2188 h -9.499996 a 2.2105653,2.2219111 0 0 1 -2.218783,-2.2188 v -9.625 a 2.2105653,2.2219111 0 0 1 2.218783,-2.2187 h 9.499996 a 2.2105653,2.2219111 0 0 1 0.24998,0 z m -2.437512,4.4375 h -5.093681 v 5.1562 h 5.093681 z" />
      <path
         inkscape:connector-curvature="0"
         id="path14"
         overflow="visible"
         display="inline"
         visibility="visible"
         marker="none"
         style="color:#000000;text-indent:0;text-transform:none;direction:ltr;baseline-shift:baseline;display:inline;overflow:visible;visibility:visible;fill:#000000;fill-opacity:1;fill-rule:evenodd;stroke:none;enable-background:accumulate"
         d="m 34.999994,1026.1121 a 2.2105653,2.2219111 0 0 1 1.968803,2.2187 v 9.5938 a 2.2105653,2.2219111 0 0 1 -2.218819,2.2187 h -9.499996 a 2.2105653,2.2219111 0 0 1 -2.218783,-2.2187 v -9.5938 a 2.2105653,2.2219111 0 0 1 2.218783,-2.2187 h 9.499996 a 2.2105653,2.2219111 0 0 1 0.24998,0 z m -2.437512,4.4375 h -5.093681 v 5.1562 h 5.093681 z" />
    </g>
  </g>
</svg>
