<?xml version="1.0" encoding="UTF-8" standalone="no"?>
<svg
   xmlns:dc="http://purl.org/dc/elements/1.1/"
   xmlns:cc="http://creativecommons.org/ns#"
   xmlns:rdf="http://www.w3.org/1999/02/22-rdf-syntax-ns#"
   xmlns:svg="http://www.w3.org/2000/svg"
   xmlns="http://www.w3.org/2000/svg"
   xmlns:sodipodi="http://sodipodi.sourceforge.net/DTD/sodipodi-0.dtd"
   xmlns:inkscape="http://www.inkscape.org/namespaces/inkscape"
   version="1.1"
   x="0px"
   y="0px"
   viewBox="0 0 512 512"
   enable-background="new 0 0 100 100"
   xml:space="preserve"
   id="svg8"
   sodipodi:docname="cake_shop.svg"
   width="512"
   height="512"
   inkscape:version="0.92.2 (5c3e80d, 2017-08-06)"><metadata
     id="metadata14"><rdf:RDF><cc:Work
         rdf:about=""><dc:format>image/svg+xml</dc:format><dc:type
           rdf:resource="http://purl.org/dc/dcmitype/StillImage" /><dc:title></dc:title></cc:Work></rdf:RDF></metadata><defs
     id="defs12" /><sodipodi:namedview
     pagecolor="#ffffff"
     bordercolor="#666666"
     borderopacity="1"
     objecttolerance="10"
     gridtolerance="10"
     guidetolerance="10"
     inkscape:pageopacity="0"
     inkscape:pageshadow="2"
     inkscape:window-width="1808"
     inkscape:window-height="991"
     id="namedview10"
     showgrid="false"
     inkscape:zoom="0.6675088"
     inkscape:cx="-5.7972748"
     inkscape:cy="249.58759"
     inkscape:window-x="112"
     inkscape:window-y="0"
     inkscape:window-maximized="1"
     inkscape:current-layer="svg8" /><path
     d="M 474.26206,51.062814 H 37.737939 c -8.087595,0 -14.670152,6.582529 -14.670152,14.670148 v 67.457358 c 0,1.72815 0.354807,3.36388 0.906323,4.9052 1.218222,6.12116 4.746148,11.38019 9.607814,15.05501 V 446.1192 c 0,8.16943 6.648568,14.81799 14.818014,14.81799 H 463.6027 c 8.16945,0 14.81802,-6.64856 14.81802,-14.81799 V 153.14923 c 4.86266,-3.67547 8.39058,-8.9365 9.60715,-15.05965 0.5502,-1.53938 0.90434,-3.17311 0.90434,-4.89926 V 65.732962 c 0,-8.087619 -6.58255,-14.670148 -14.67015,-14.670148 z M 33.344286,65.732962 c 0,-2.423944 1.969751,-4.393652 4.393653,-4.393652 h 37.108405 v 46.05413 10.2765 12.67264 5.83401 c -0.05575,0.46722 -0.0637,0.94795 -0.145247,1.40738 H 43.858421 37.737939 c -2.007047,0 -3.632223,-1.37763 -4.156015,-3.2187 -0.10892,-0.38177 -0.237636,-0.75781 -0.237636,-1.17495 V 113.56078 Z M 474.26206,61.33931 c 2.4239,0 4.39366,1.969708 4.39366,4.393652 v 47.826518 19.63084 c 0,0.41205 -0.1287,0.7842 -0.23502,1.16176 -0.5195,1.8476 -2.14699,3.23189 -4.15865,3.23189 h -6.11783 -30.84402 c -0.0822,-0.46343 -0.0904,-0.94795 -0.14654,-1.41927 v -5.80887 -12.68589 -10.2765 -46.05413 z m -42.51598,0 v 46.05413 10.2765 0.65745 19.25658 h -45.57622 v -10.86798 -9.04605 -10.2765 -46.05413 z m -50.98379,0 v 46.05413 10.2765 1.47205 18.44198 h -45.57886 v -13.02652 -6.88751 -10.2765 -46.05413 z m -50.98643,0 v 46.05413 10.2765 2.70243 17.2116 H 284.197 v -14.74012 -5.17391 -10.2765 -46.05413 z m -50.98643,0 v 46.05413 10.2765 3.93687 15.97716 h -45.57886 v -15.97456 -3.93947 -10.2765 -46.05413 z m -50.98644,0 v 46.05413 10.2765 5.17126 14.74277 h -45.57621 v -17.21355 -2.70048 -10.2765 -46.05413 z m -50.98378,0 v 46.05413 10.2765 6.89146 13.02257 h -45.57886 v -18.44269 -1.47134 -10.2765 -46.05413 z m -50.98644,0 v 46.05413 10.2765 9.04935 10.86468 H 80.253916 v -19.25523 -0.6588 -10.2765 -46.05413 z M 324.23363,433.38053 V 183.19186 c 0,-3.08399 2.50575,-5.58975 5.58976,-5.58975 h 101.04079 c 3.08401,0 5.58976,2.50576 5.58976,5.58975 v 250.18867 z m 143.91059,12.73867 c 0,2.50576 -2.03576,4.54149 -4.54152,4.54149 h -16.88612 c 0.004,-0.0676 0.0384,-0.12383 0.0384,-0.19196 v -13.89849 c 0,-0.16277 -0.0693,-0.30391 -0.0927,-0.45965 0.01,-0.22819 0.068,-0.44233 0.068,-0.67199 V 183.19175 c 0,-8.74772 -7.11856,-15.86624 -15.86626,-15.86624 H 329.82339 c -8.7477,0 -15.86626,7.11852 -15.86626,15.86624 V 435.4386 c 0,0.22982 0.0581,0.44288 0.0677,0.66999 -0.0238,0.15682 -0.0931,0.29742 -0.0931,0.46127 v 13.89849 c 0,0.0681 0.0346,0.12491 0.0389,0.19197 H 48.399938 c -2.505755,0 -4.541517,-2.03574 -4.541517,-4.5415 v -288.2113 c 1.76083,0.37041 3.578753,0.58683 5.45279,0.58683 8.683669,0 16.324703,-4.21742 21.008801,-10.63426 h 9.654679 c 4.684428,6.41684 12.325462,10.63426 21.008799,10.63426 8.68367,0 16.3247,-4.21742 21.00913,-10.63426 h 9.65468 c 4.6841,6.41684 12.32513,10.63426 21.0088,10.63426 8.68334,0 16.32437,-4.21742 21.0088,-10.63426 h 9.65468 c 4.6841,6.41684 12.32513,10.63426 21.0088,10.63426 8.68334,0 16.32437,-4.21742 21.0088,-10.63426 h 9.65468 c 4.68443,6.41684 12.32546,10.63426 21.0088,10.63426 8.68334,0 16.32437,-4.21742 21.0088,-10.63426 h 9.65468 c 4.68443,6.41684 12.32546,10.63426 21.0088,10.63426 8.68367,0 16.3247,-4.21742 21.0088,-10.63426 h 9.65468 c 4.68443,6.41684 12.32546,10.63426 21.00913,10.63426 8.68334,0 16.32437,-4.21742 21.0088,-10.63426 h 9.65468 c 4.6841,6.41684 12.32513,10.63426 21.0088,10.63426 8.68334,0 16.32437,-4.21742 21.0088,-10.63426 h 9.65468 c 4.68443,6.41684 12.32546,10.63426 21.0088,10.63426 1.87437,0 3.69295,-0.21631 5.45411,-0.58748 z M 412.9252,368.89231 h -65.16283 c -3.68338,0 -6.68025,2.99688 -6.68025,6.68025 v 43.60909 c 0,3.68342 2.99687,6.6803 6.68025,6.6803 h 65.16283 c 3.68338,0 6.68025,-2.99688 6.68025,-6.6803 v -43.60909 c 0,-3.68337 -2.99687,-6.68025 -6.68025,-6.68025 z m 1.27268,50.28934 c 0,0.70239 -0.57033,1.27267 -1.27268,1.27267 h -65.16283 c -0.70235,0 -1.27267,-0.57028 -1.27267,-1.27267 v -43.60909 c 0,-0.70234 0.57032,-1.27267 1.27267,-1.27267 h 65.16283 c 0.70235,0 1.27268,0.57033 1.27268,1.27267 z m -1.06145,-226.41038 h -65.58529 c -3.68338,0 -6.68025,2.99687 -6.68025,6.6803 v 154.91579 c 0,3.68602 2.99687,6.68289 6.68025,6.68289 h 65.58529 c 3.68338,0 6.68025,-2.99687 6.68025,-6.68289 V 199.45157 c 0,-3.68343 -2.99687,-6.6803 -6.68025,-6.6803 z m 1.27268,161.59609 c 0,0.70239 -0.57032,1.27532 -1.27268,1.27532 h -65.58529 c -0.70235,0 -1.27268,-0.57293 -1.27268,-1.27532 V 199.45157 c 0,-0.70239 0.57033,-1.27273 1.27268,-1.27273 h 65.58529 c 0.70236,0 1.27268,0.57034 1.27268,1.27273 z M 337.7212,285.607 v 48.01994 c 0,1.90898 -1.54761,3.45631 -3.45663,3.45631 h -3.0005 c -1.90902,0 -3.45664,-1.54733 -3.45664,-3.45631 V 285.607 c 0,-1.90903 1.54761,-3.4563 3.45664,-3.4563 h 3.0005 c 1.90902,0 3.45663,1.54727 3.45663,3.4563 z M 271.04245,196.98009 H 83.902973 c -10.044143,0 -18.218872,8.17473 -18.218872,18.21887 v 171.9809 c 0,10.04413 8.174729,18.21621 18.218872,18.21621 H 271.04245 c 10.04414,0 18.21887,-8.17208 18.21887,-18.21621 v -171.9809 c 0,-10.04414 -8.17473,-18.21887 -18.21887,-18.21887 z m 7.94237,190.19977 c 0,4.37775 -3.56192,7.93972 -7.94237,7.93972 H 240.16278 V 383.7209 h 35.84629 v -5.40757 h -77.10279 v 5.40757 h 35.84893 v 11.39868 h -64.99384 v -11.21125 h 24.31823 v -5.40757 h -54.04403 v 5.40757 h 24.31823 v 11.21125 h -54.92857 v -11.21125 h 24.31559 v -5.40757 H 79.699429 v 5.40757 h 24.318231 v 11.21125 H 83.902973 c -4.380452,0 -7.942371,-3.56197 -7.942371,-7.93972 v -171.9809 c 0,-4.38046 3.561919,-7.94238 7.942371,-7.94238 H 271.04245 c 4.38045,0 7.94237,3.56192 7.94237,7.94238 z M 94.430309,254.06328 c -1.056169,-1.0562 -1.056169,-2.76716 0,-3.82337 L 116.90817,227.7621 c 1.05616,-1.05621 2.76715,-1.05621 3.82332,0 1.05617,1.05615 1.05617,2.76716 0,3.82331 l -22.47786,22.47787 c -0.528103,0.52832 -1.219872,0.7921 -1.911658,0.7921 -0.69179,0 -1.383581,-0.26389 -1.911663,-0.7921 z m 48.303761,-27.93827 -48.269433,48.26944 c -0.528104,0.52832 -1.219873,0.79216 -1.911664,0.79216 -0.69179,0 -1.383576,-0.26389 -1.911663,-0.79216 -1.056163,-1.05615 -1.056163,-2.76716 0,-3.82331 l 48.26944,-48.26945 c 1.05617,-1.05615 2.76716,-1.05615 3.82332,0 1.05617,1.05616 1.05617,2.76717 0,3.82332 z m 45.89308,111.73184 h -43.13912 c -2.69587,0 -4.89005,2.11501 -4.89005,4.71313 v 17.24459 l 0.59937,-0.005 v 11.26933 c 0,2.89916 2.36054,5.25967 5.25971,5.25967 h 41.20105 c 2.89918,0 5.25971,-2.36051 5.25971,-5.25967 v -11.26933 l 0.59937,0.005 v -17.24459 c 0,-2.59812 -2.19418,-4.71313 -4.89004,-4.71313 z m -0.29044,33.22175 c 0,0.37474 -0.30364,0.68119 -0.67859,0.68119 h -41.20105 c -0.37496,0 -0.67859,-0.30607 -0.67859,-0.68119 v -3.69397 h 42.55823 z m 0,-10.46398 h -42.55823 v -3.63059 c 0.20857,-0.34338 0.42509,-0.72083 0.65482,-1.13008 v -0.003 c 1.19875,-2.1493 2.11762,-3.55927 3.88406,-3.55927 1.76379,0 2.68266,1.40997 3.88141,3.55927 1.08257,1.94072 2.2021,3.94741 4.49927,3.94741 2.28923,0 3.41141,-2.00669 4.49927,-3.94741 1.19875,-2.1493 2.11497,-3.55927 3.87613,-3.55927 1.7638,0 2.68002,1.40997 3.87613,3.55927 1.08257,1.94072 2.2021,3.94741 4.49134,3.94741 2.29188,0 3.41142,-2.00669 4.49399,-3.94741 1.19611,-2.1493 2.11234,-3.55927 3.87349,-3.55927 1.76116,0 2.68002,1.40997 3.87878,3.56191 0.22706,0.40395 0.44093,0.78156 0.64954,1.12218 z M 128.291,337.85685 H 85.151889 c -2.695869,0 -4.890051,2.11501 -4.890051,4.71313 v 17.24459 l 0.599376,-0.005 v 11.26933 c 0,2.89916 2.360529,5.25967 5.259707,5.25967 h 41.201039 c 2.89918,0 5.25972,-2.36051 5.25972,-5.25967 v -11.26933 l 0.59937,0.005 v -17.24459 c 0,-2.59812 -2.19418,-4.71313 -4.89005,-4.71313 z m -0.29044,33.22175 c 0,0.37474 -0.30363,0.68119 -0.67859,0.68119 H 86.120926 c -0.374961,0 -0.678585,-0.30607 -0.678585,-0.68119 v -3.69397 h 42.558219 z m 0,-10.46398 H 85.442341 v -3.63059 c 0.20857,-0.34338 0.425089,-0.72083 0.654819,-1.13008 v -0.003 c 1.19875,-2.1493 2.117616,-3.55927 3.881414,-3.55927 1.766438,0 2.685303,1.40997 3.884048,3.55927 1.082575,1.94072 2.20211,3.94741 4.499273,3.94741 2.289245,0 3.411415,-2.00669 4.499265,-3.94741 1.19875,-2.1493 2.11497,-3.55927 3.87613,-3.55927 1.75852,0 2.67475,1.40732 3.87613,3.55927 1.07993,1.94072 2.19683,3.94741 4.49135,3.94741 2.29188,0 3.41142,-2.00669 4.49399,-3.94741 1.1961,-2.1493 2.11233,-3.55927 3.87349,-3.55927 1.76115,0 2.68002,1.40997 3.87877,3.56191 0.22706,0.40395 0.44093,0.78156 0.64954,1.12218 z m 132.49607,-17.98656 h -0.5228 v -6.89671 c 0,-4.76072 -3.79428,-8.65265 -8.51534,-8.80845 v -4.80819 c 0,-3.82072 -3.10777,-6.92845 -6.92845,-6.92845 h -14.14471 c -3.82068,0 -6.92845,3.10773 -6.92845,6.92845 v 4.80819 c -4.72106,0.15574 -8.51534,4.04773 -8.51534,8.80845 v 6.89671 h -0.52281 c -4.4359,0 -8.04534,3.6095 -8.04534,8.04539 v 17.03861 c 0,4.43588 3.60944,8.04533 8.04534,8.04533 h 46.0779 c 4.4359,0 8.04535,-3.60945 8.04535,-8.04533 v -17.03861 c 0,-4.43589 -3.60945,-8.04539 -8.04535,-8.04539 z m -31.63218,-20.51335 c 0,-0.83964 0.68123,-1.52088 1.52088,-1.52088 h 14.14471 c 0.83965,0 1.52088,0.68124 1.52088,1.52088 v 7.7298 h -17.18647 z m -8.51534,13.94796 h 34.21715 v 9.56362 h -34.21715 z m 42.7853,31.64939 c 0,1.45485 -1.18291,2.63776 -2.63778,2.63776 h -46.0779 c -1.45486,0 -2.63777,-1.18291 -2.63777,-2.63776 V 365.069 h 51.35345 z m 0,-8.05063 h -51.35345 v -7.81697 h 51.35345 z m 21.13785,54.03743 v 11.64818 c 0,2.19683 -1.78063,3.97781 -3.97746,3.97781 H 74.650293 c -2.196496,0 -3.977123,-1.78098 -3.977123,-3.97781 v -11.64818 c 0,-2.19618 1.780627,-3.97646 3.977123,-3.97646 H 280.2948 c 2.19682,0 3.97745,1.78028 3.97746,3.97646 z M 70.67317,186.73793 v -11.64818 c 0,-2.19618 1.780627,-3.97646 3.977123,-3.97646 H 280.2948 c 2.19682,0 3.97746,1.78028 3.97746,3.97646 v 11.64818 c 0,2.19683 -1.78064,3.97781 -3.97746,3.97781 H 74.650293 c -2.196496,0 -3.977123,-1.78098 -3.977123,-3.97781 z"
     id="path2"
     inkscape:connector-curvature="0"
     style="stroke-width:5.40757179" /></svg>