<?xml version="1.0" encoding="UTF-8" standalone="no"?>
<!-- Created with Inkscape (http://www.inkscape.org/) -->

<svg
   xmlns:dc="http://purl.org/dc/elements/1.1/"
   xmlns:cc="http://creativecommons.org/ns#"
   xmlns:rdf="http://www.w3.org/1999/02/22-rdf-syntax-ns#"
   xmlns:svg="http://www.w3.org/2000/svg"
   xmlns="http://www.w3.org/2000/svg"
   xmlns:sodipodi="http://sodipodi.sourceforge.net/DTD/sodipodi-0.dtd"
   xmlns:inkscape="http://www.inkscape.org/namespaces/inkscape"
   width="64"
   height="64"
   viewBox="0 0 16.933333 16.933334"
   version="1.1"
   id="svg879"
   inkscape:version="0.92+devel (unknown)"
   sodipodi:docname="corner_store.svg">
  <defs
     id="defs873" />
  <sodipodi:namedview
     id="base"
     pagecolor="#ffffff"
     bordercolor="#666666"
     borderopacity="1.0"
     inkscape:pageopacity="0.0"
     inkscape:pageshadow="2"
     inkscape:zoom="2.8"
     inkscape:cx="-233.78571"
     inkscape:cy="-57.926201"
     inkscape:document-units="mm"
     inkscape:current-layer="layer1"
     inkscape:document-rotation="0"
     showgrid="false"
     units="px"
     inkscape:window-width="3200"
     inkscape:window-height="1637"
     inkscape:window-x="0"
     inkscape:window-y="0"
     inkscape:window-maximized="1" />
  <metadata
     id="metadata876">
    <rdf:RDF>
      <cc:Work
         rdf:about="">
        <dc:format>image/svg+xml</dc:format>
        <dc:type
           rdf:resource="http://purl.org/dc/dcmitype/StillImage" />
        <dc:title></dc:title>
      </cc:Work>
    </rdf:RDF>
  </metadata>
  <g
     inkscape:label="Layer 1"
     inkscape:groupmode="layer"
     id="layer1"
     transform="translate(0,-280.06665)">
    <path
       inkscape:connector-curvature="0"
       d="m 16.271877,63.826488 v 0 c 0,0 0,-0.02646 0,0 l -0.79375,-5.847292 c -0.0265,-0.132291 -0.13229,-0.238125 -0.26459,-0.238125 H 1.9843767 c -0.13229,0 -0.23813,0.105834 -0.26459,0.238125 L 0.92603667,63.80003 c 0,0 0,0 0,0.02646 v 0 c 0,0.661458 0.31750003,1.27 0.79375003,1.640416 v 5.23875 H 0.66145667 v 2.910417 h 1.05833003 5.82084 2.6458303 4.23333 1.05834 v -8.149166 c 0.47625,-0.370417 0.76729,-0.9525 0.79375,-1.5875 0,-0.02646 0,-0.02646 0,-0.05292 z m -0.58209,-0.264583 h -3.14854 l -0.47625,-5.291667 h 2.91042 z M 8.8635367,58.270238 h 2.6723003 l 0.47625,5.291667 H 8.8635367 Z m -0.52916,5.291667 h -3.14854 l 0.47625,-5.291667 h 2.67229 z m -0.0265,0.529166 c -0.13229,0.740834 -0.76729,1.322917 -1.56104,1.322917 -0.79375,0 -1.42875,-0.582083 -1.56104,-1.322917 z m 3.7041703,0 c -0.1323,0.740834 -0.7673,1.322917 -1.56105,1.322917 -0.7937503,0 -1.4287503,-0.582083 -1.5610403,-1.322917 z M 2.2224567,58.270238 h 2.91042 l -0.47625,5.291667 h -3.175 z m -0.74083,5.820833 h 3.12208 c -0.13229,0.740834 -0.76729,1.322917 -1.56104,1.322917 -0.79375,0 -1.42875,-0.582083 -1.56104,-1.322917 z m 1.82562,8.995833 h -2.11666 v -1.852083 h 5.82083 v 1.852083 z m 7.4083403,0 v -5.291666 c 0,-0.449792 0.34396,-0.79375 0.79375,-0.79375 h 1.5875 c 0.44979,0 0.79375,0.343958 0.79375,0.79375 v 5.291666 z m 4.23333,0 h -0.52917 v -5.291666 c 0,-0.740833 -0.58208,-1.322917 -1.32291,-1.322917 h -1.5875 c -0.74084,0 -1.32292,0.582084 -1.32292,1.322917 v 5.291666 H 7.5405867 v -2.38125 h -5.29167 v -4.921249 c 0.23813,0.105833 0.50271,0.15875 0.79375,0.15875 0.79375,0 1.48167,-0.449792 1.85208,-1.084792 0.37042,0.661458 1.05834,1.084792 1.85209,1.084792 0.79375,0 1.48166,-0.449792 1.85208,-1.084792 0.37042,0.661458 1.05833,1.084792 1.8520803,1.084792 0.79375,0 1.48167,-0.449792 1.85209,-1.084792 0.37041,0.661458 1.05833,1.084792 1.85208,1.084792 0.29104,0 0.55563,-0.05292 0.79375,-0.15875 z m -0.79375,-7.672916 c -0.79375,0 -1.42875,-0.582083 -1.56104,-1.322917 h 3.12208 c -0.13229,0.740834 -0.76729,1.322917 -1.56104,1.322917 z"
       id="path30"
       style="stroke-width:0.26458332" />
    <circle
       cx="8.4666662"
       cy="70.441071"
       r="0.26458332"
       id="circle32"
       style="stroke-width:0.26458332" />
    <path
       inkscape:connector-curvature="0"
       d="m 5.0270867,69.647321 h 6.8791603 v -3.175 H 5.0270867 Z m 2.69875,-0.529167 0.42333,-2.116666 h 0.52917 l -0.42334,2.116666 z m 3.6512503,0 H 9.3133367 l 0.42333,-2.116666 H 11.377087 Z M 5.5562467,67.001488 h 2.06375 l -0.42333,2.116666 h -1.64042 z"
       id="path34"
       style="stroke-width:0.26458332" />
    <g
       id="g1447"
       transform="translate(1.0158513,0.94966167)">
      <path
         style="stroke-width:0.21700375"
         id="path30-3"
         d="m 13.852428,286.06463 v 0 c 0,0 0,-0.0217 0,0 l -0.651012,-4.79579 c -0.02173,-0.1085 -0.108508,-0.1953 -0.217009,-0.1953 H 2.1342243 c -0.1085087,0 -0.1953074,0.0868 -0.2170092,0.1953 l -0.6510113,4.77409 c 0,0 0,0 0,0.0217 v 0 c 0,0.5425 0.2604045,1.04162 0.6510113,1.34542 v 4.29667 H 1.0492028 v 2.38705 h 0.8680123 4.7740883 2.170035 3.4720576 0.86802 v -6.68372 c 0.390607,-0.3038 0.62931,-0.78121 0.651012,-1.30202 0,-0.0217 0,-0.0217 0,-0.0434 z m -0.477414,-0.21701 h -2.582343 l -0.390607,-4.34007 h 2.387044 z m -5.5986973,-4.34007 h 2.1917368 l 0.3906065,4.34007 H 7.7763167 Z m -0.434002,4.34007 H 4.759963 l 0.3906068,-4.34007 h 2.1917449 z m -0.021735,0.43401 c -0.1085005,0.60761 -0.6293095,1.08502 -1.2803208,1.08502 -0.6510113,0 -1.1718203,-0.47741 -1.2803291,-1.08502 z m 3.0380473,0 c -0.1085,0.60761 -0.6293095,1.08502 -1.2803208,1.08502 -0.6510112,0 -1.1718204,-0.47741 -1.280321,-1.08502 z m -8.0291366,-4.77408 h 2.3870441 l -0.3906067,4.34007 H 1.721883 Z m -0.6076078,4.77408 h 2.5606417 c -0.1085005,0.60761 -0.6293096,1.08502 -1.2803208,1.08502 -0.6510113,0 -1.1718204,-0.47741 -1.2803209,-1.08502 z m 1.4973219,7.37813 H 1.4831803 v -1.51903 h 4.77408 v 1.51903 z m 6.076111,0 v -4.34007 c 0,-0.36892 0.282098,-0.65102 0.6510113,-0.65102 H 11.24835 c 0.368905,0 0.651011,0.2821 0.651011,0.65102 v 4.34007 z m 3.4720575,0 h -0.43401 v -4.34007 c 0,-0.60762 -0.477405,-1.08503 -1.085013,-1.08503 H 9.9463272 c -0.607616,0 -1.0850216,0.47741 -1.0850216,1.08503 v 4.34007 h -2.170035 v -1.95304 h -4.340078 v -4.03627 c 0.1952993,0.0868 0.4123085,0.1302 0.6510113,0.1302 0.6510112,0 1.2152238,-0.3689 1.5190236,-0.88971 0.303808,0.54251 0.8680205,0.88971 1.5190318,0.88971 0.6510113,0 1.2152156,-0.3689 1.5190236,-0.88971 0.303808,0.54251 0.8680125,0.88971 1.5190237,0.88971 0.6510113,0 1.2152234,-0.3689 1.5190314,-0.88971 0.3038,0.54251 0.868013,0.88971 1.519024,0.88971 0.238703,0 0.455704,-0.0434 0.651011,-0.1302 z m -0.651011,-6.29311 c -0.651011,0 -1.17182,-0.47741 -1.280321,-1.08502 h 2.560642 c -0.108501,0.60761 -0.62931,1.08502 -1.280321,1.08502 z"
         inkscape:connector-curvature="0" />
      <circle
         style="stroke-width:0.21700375"
         id="circle32-6"
         r="0.21700375"
         cy="291.48975"
         cx="9.9463511" />
      <path
         style="stroke-width:0.21700375"
         id="path34-7"
         d="m 2.7852356,290.83871 h 5.6420926 v -2.60405 H 2.7852356 Z m 2.2134384,-0.43401 0.3472033,-1.73603 h 0.4340103 l -0.3472115,1.73603 z m 2.9946519,0 H 6.3006966 l 0.3472033,-1.73603 h 1.345426 z M 3.2192377,288.66867 H 4.911867 L 4.5646638,290.4047 H 3.2192377 Z"
         inkscape:connector-curvature="0" />
    </g>
  </g>
</svg>
