<?xml version="1.0" encoding="UTF-8" standalone="no"?>
<svg
   xmlns:dc="http://purl.org/dc/elements/1.1/"
   xmlns:cc="http://creativecommons.org/ns#"
   xmlns:rdf="http://www.w3.org/1999/02/22-rdf-syntax-ns#"
   xmlns:svg="http://www.w3.org/2000/svg"
   xmlns="http://www.w3.org/2000/svg"
   xmlns:sodipodi="http://sodipodi.sourceforge.net/DTD/sodipodi-0.dtd"
   xmlns:inkscape="http://www.inkscape.org/namespaces/inkscape"
   version="1.1"
   x="0px"
   y="0px"
   viewBox="0 0 512 512"
   enable-background="new 0 0 512 512"
   xml:space="preserve"
   id="svg272"
   sodipodi:docname="gas_station.svg"
   width="512"
   height="512"
   inkscape:version="0.92.2 (5c3e80d, 2017-08-06)"><metadata
     id="metadata278"><rdf:RDF><cc:Work
         rdf:about=""><dc:format>image/svg+xml</dc:format><dc:type
           rdf:resource="http://purl.org/dc/dcmitype/StillImage" /><dc:title></dc:title></cc:Work></rdf:RDF></metadata><defs
     id="defs276" /><sodipodi:namedview
     pagecolor="#ffffff"
     bordercolor="#666666"
     borderopacity="1"
     objecttolerance="10"
     gridtolerance="10"
     guidetolerance="10"
     inkscape:pageopacity="0"
     inkscape:pageshadow="2"
     inkscape:window-width="1808"
     inkscape:window-height="991"
     id="namedview274"
     showgrid="false"
     inkscape:zoom="0.7375"
     inkscape:cx="98.232788"
     inkscape:cy="403.88959"
     inkscape:window-x="112"
     inkscape:window-y="0"
     inkscape:window-maximized="1"
     inkscape:current-layer="svg272" /><g
     id="g266"
     transform="matrix(0.90465171,0,0,0.90465171,24.409162,24.409162)"><g
       id="g6"><g
         id="g4"><path
           d="M 107.64,335.992 H 75.643 c -6.617,0 -11.999,-5.383 -11.999,-11.999 v -23.997 c 0,-6.617 5.382,-11.999 11.999,-11.999 h 31.997 c 6.617,0 11.999,5.382 11.999,11.999 v 23.997 c -10e-4,6.616 -5.383,11.999 -11.999,11.999 z M 75.643,295.996 c -2.203,0 -4,1.797 -4,4 v 23.997 c 0,2.203 1.797,4 4,4 h 31.997 c 2.203,0 4,-1.797 4,-4 v -23.997 c 0,-2.203 -1.797,-4 -4,-4 z"
           id="path2"
           inkscape:connector-curvature="0" /></g></g><g
       id="g12"><g
         id="g10"><path
           d="M 115.639,439.982 H 67.644 c -2.21,0 -4,-1.789 -4,-4 V 355.99 c 0,-6.617 5.382,-11.999 11.999,-11.999 h 31.997 c 6.617,0 11.999,5.382 11.999,11.999 v 79.992 c -10e-4,2.211 -1.789,4 -4,4 z m -43.996,-8 h 39.996 V 355.99 c 0,-2.203 -1.797,-4 -4,-4 H 75.643 c -2.203,0 -4,1.797 -4,4 z"
           id="path8"
           inkscape:connector-curvature="0" /></g></g><g
       id="g18"><g
         id="g16"><path
           d="m 99.64,351.99 c -2.21,0 -3.999,-1.789 -3.999,-3.999 v -15.999 c 0,-2.211 1.789,-3.999 3.999,-3.999 2.211,0 4,1.788 4,3.999 v 15.999 c 0,2.21 -1.789,3.999 -4,3.999 z"
           id="path14"
           inkscape:connector-curvature="0" /></g></g><g
       id="g24"><g
         id="g22"><path
           d="m 83.642,351.99 c -2.211,0 -4,-1.789 -4,-3.999 v -15.999 c 0,-2.211 1.789,-3.999 4,-3.999 2.21,0 4,1.788 4,3.999 v 15.999 c 0,2.21 -1.789,3.999 -4,3.999 z"
           id="path20"
           inkscape:connector-curvature="0" /></g></g><g
       id="g30"><g
         id="g28"><path
           d="m 59.644,423.983 c -1.023,0 -2.046,-0.391 -2.828,-1.172 -49.815,-49.815 -8.843,-108.552 -8.429,-109.146 1.289,-1.789 3.789,-2.195 5.578,-0.93 1.797,1.281 2.218,3.781 0.938,5.578 -1.547,2.18 -37.403,53.869 7.569,98.842 1.562,1.562 1.562,4.093 0,5.655 -0.781,0.783 -1.805,1.173 -2.828,1.173 z"
           id="path26"
           inkscape:connector-curvature="0" /></g></g><g
       id="g36"><g
         id="g34"><path
           d="m 38.076,351.99 c -1.477,0 -2.898,-0.82 -3.593,-2.242 -0.969,-1.983 -0.148,-4.382 1.835,-5.351 10.366,-5.069 16.186,-10.577 16.834,-15.936 0.641,-5.297 -4.023,-9.358 -4.07,-9.397 -1.695,-1.414 -1.921,-3.938 -0.507,-5.633 1.421,-1.695 3.945,-1.914 5.632,-0.508 0.328,0.273 8.062,6.852 6.89,16.498 -1.008,8.297 -8.163,15.757 -21.264,22.162 -0.562,0.274 -1.164,0.407 -1.757,0.407 z"
           id="path32"
           inkscape:connector-curvature="0" /></g></g><g
       id="g42"><g
         id="g40"><path
           d="m 51.645,319.994 c -1.023,0 -2.047,-0.391 -2.828,-1.172 -1.562,-1.562 -1.562,-4.094 0,-5.656 l 8,-7.999 c 1.562,-1.562 4.093,-1.562 5.656,0 1.563,1.562 1.562,4.093 0,5.655 l -7.999,8 c -0.782,0.782 -1.806,1.172 -2.829,1.172 z"
           id="path38"
           inkscape:connector-curvature="0" /></g></g><g
       id="g48"><g
         id="g46"><path
           d="m 236.002,335.992 h -31.997 c -6.617,0 -11.999,-5.383 -11.999,-11.999 v -23.997 c 0,-6.617 5.382,-11.999 11.999,-11.999 h 31.997 c 6.617,0 11.999,5.382 11.999,11.999 v 23.997 c -0.001,6.616 -5.382,11.999 -11.999,11.999 z m -31.997,-39.996 c -2.203,0 -4,1.797 -4,4 v 23.997 c 0,2.203 1.797,4 4,4 h 31.997 c 2.203,0 4,-1.797 4,-4 v -23.997 c 0,-2.203 -1.797,-4 -4,-4 z"
           id="path44"
           inkscape:connector-curvature="0" /></g></g><g
       id="g54"><g
         id="g52"><path
           d="m 244.001,439.982 h -47.996 c -2.21,0 -4,-1.789 -4,-4 V 355.99 c 0,-6.617 5.382,-11.999 11.999,-11.999 h 31.997 c 6.617,0 11.999,5.382 11.999,11.999 v 79.992 c 0,2.211 -1.788,4 -3.999,4 z m -43.996,-8 h 39.996 V 355.99 c 0,-2.203 -1.797,-4 -4,-4 h -31.997 c -2.203,0 -4,1.797 -4,4 v 75.992 z"
           id="path50"
           inkscape:connector-curvature="0" /></g></g><g
       id="g60"><g
         id="g58"><path
           d="m 212.004,351.99 c -2.211,0 -4,-1.789 -4,-3.999 v -15.999 c 0,-2.211 1.789,-3.999 4,-3.999 2.211,0 4,1.788 4,3.999 v 15.999 c 0,2.21 -1.789,3.999 -4,3.999 z"
           id="path56"
           inkscape:connector-curvature="0" /></g></g><g
       id="g66"><g
         id="g64"><path
           d="m 228.002,351.99 c -2.21,0 -3.999,-1.789 -3.999,-3.999 v -15.999 c 0,-2.211 1.789,-3.999 3.999,-3.999 2.211,0 4,1.788 4,3.999 v 15.999 c 0,2.21 -1.789,3.999 -4,3.999 z"
           id="path62"
           inkscape:connector-curvature="0" /></g></g><g
       id="g72"><g
         id="g70"><path
           d="m 252,423.983 c -1.023,0 -2.047,-0.391 -2.828,-1.172 -1.562,-1.562 -1.562,-4.093 0,-5.655 45.082,-45.082 7.953,-98.303 7.57,-98.834 -1.281,-1.805 -0.867,-4.297 0.93,-5.586 1.805,-1.273 4.297,-0.867 5.586,0.93 0.414,0.594 41.385,59.33 -8.43,109.146 -0.781,0.781 -1.804,1.171 -2.828,1.171 z"
           id="path68"
           inkscape:connector-curvature="0" /></g></g><g
       id="g78"><g
         id="g76"><path
           d="m 273.568,351.99 c -0.594,0 -1.195,-0.133 -1.758,-0.406 -13.1,-6.405 -20.255,-13.865 -21.263,-22.162 -1.172,-9.646 6.562,-16.225 6.89,-16.498 1.695,-1.414 4.219,-1.195 5.633,0.508 1.414,1.688 1.188,4.195 -0.492,5.617 -0.117,0.109 -4.758,4.194 -4.078,9.468 0.68,5.343 6.498,10.835 16.826,15.881 1.984,0.969 2.805,3.367 1.836,5.351 -0.695,1.421 -2.117,2.241 -3.594,2.241 z"
           id="path74"
           inkscape:connector-curvature="0" /></g></g><g
       id="g84"><g
         id="g82"><path
           d="m 260,319.994 c -1.023,0 -2.047,-0.391 -2.828,-1.172 l -8,-8 c -1.562,-1.562 -1.562,-4.093 0,-5.655 1.562,-1.562 4.094,-1.562 5.656,0 l 8,7.999 c 1.562,1.562 1.562,4.094 0,5.656 -0.781,0.782 -1.805,1.172 -2.828,1.172 z"
           id="path80"
           inkscape:connector-curvature="0" /></g></g><g
       id="g90"><g
         id="g88"><path
           d="M 459.98,224.003 H 60.019 c -2.21,0 -3.999,-1.789 -3.999,-4 0,-2.21 1.789,-3.999 3.999,-3.999 H 459.98 c 2.211,0 3.998,1.789 3.998,3.999 10e-4,2.211 -1.787,4 -3.998,4 z"
           id="path86"
           inkscape:connector-curvature="0" /></g></g><g
       id="g96"><g
         id="g94"><path
           d="M 459.98,200.005 H 60.019 c -2.21,0 -3.999,-1.788 -3.999,-3.999 0,-2.211 1.789,-4 3.999,-4 H 459.98 c 2.211,0 3.998,1.789 3.998,4 0,2.211 -1.787,3.999 -3.998,3.999 z"
           id="path92"
           inkscape:connector-curvature="0" /></g></g><g
       id="g102"><g
         id="g100"><path
           d="M 507.975,439.982 H 331.992 c -2.211,0 -4,-1.789 -4,-4 0,-2.211 1.789,-4 4,-4 H 503.974 V 248.001 h -187.98 c -2.211,0 -4,-1.789 -4,-4 0,-2.211 1.789,-4 4,-4 h 191.98 c 2.211,0 4,1.789 4,4 v 191.981 c 0.001,2.211 -1.788,4 -3.999,4 z"
           id="path98"
           inkscape:connector-curvature="0" /></g></g><g
       id="g108"><g
         id="g106"><path
           d="m 60.019,200.005 c -19.85,0 -35.996,-16.146 -35.996,-35.996 0,-2.211 1.789,-3.999 4,-3.999 2.211,0 4,1.788 4,3.999 0,15.437 12.562,27.997 27.997,27.997 2.211,0 4,1.789 4,4 0,2.211 -1.79,3.999 -4.001,3.999 z"
           id="path104"
           inkscape:connector-curvature="0" /></g></g><g
       id="g114"><g
         id="g112"><path
           d="m 60.019,224.003 c -33.083,0 -59.994,-26.911 -59.994,-59.994 0,-2.211 1.789,-3.999 4,-3.999 2.211,0 4,1.788 4,3.999 0,28.669 23.326,51.995 51.995,51.995 2.211,0 4,1.789 4,3.999 -10e-4,2.211 -1.79,4 -4.001,4 z"
           id="path110"
           inkscape:connector-curvature="0" /></g></g><g
       id="g120"><g
         id="g118"><path
           d="M 28.022,168.009 H 4.025 c -2.211,0 -4,-1.789 -4,-4 0,-2.211 1.789,-3.999 4,-3.999 h 23.998 c 2.21,0 4,1.788 4,3.999 0,2.211 -1.79,4 -4.001,4 z"
           id="path116"
           inkscape:connector-curvature="0" /></g></g><g
       id="g126"><g
         id="g124"><path
           d="m 459.98,224.003 c -2.211,0 -4,-1.789 -4,-4 v -23.997 c 0,-2.211 1.789,-4 4,-4 2.211,0 3.998,1.789 3.998,4 v 23.997 c 10e-4,2.211 -1.787,4 -3.998,4 z"
           id="path122"
           inkscape:connector-curvature="0" /></g></g><g
       id="g132"><g
         id="g130"><path
           d="m 403.984,248.001 c -2.209,0 -3.998,-1.789 -3.998,-4 v -7.999 c 0,-2.211 1.789,-4 3.998,-4 2.211,0 4,1.789 4,4 v 7.999 c 0,2.211 -1.789,4 -4,4 z"
           id="path128"
           inkscape:connector-curvature="0" /></g></g><g
       id="g138"><g
         id="g136"><path
           d="m 419.984,248.001 c -2.211,0 -4,-1.789 -4,-4 v -7.999 c 0,-2.211 1.789,-4 4,-4 2.211,0 3.998,1.789 3.998,4 v 7.999 c 0,2.211 -1.787,4 -3.998,4 z"
           id="path134"
           inkscape:connector-curvature="0" /></g></g><g
       id="g144"><g
         id="g142"><path
           d="M 491.977,271.998 H 307.994 c -2.211,0 -3.998,-1.789 -3.998,-3.999 0,-2.211 1.787,-4 3.998,-4 h 183.982 c 2.211,0 4,1.789 4,4 10e-4,2.21 -1.788,3.999 -3.999,3.999 z"
           id="path140"
           inkscape:connector-curvature="0" /></g></g><g
       id="g150"><g
         id="g148"><path
           d="m 307.994,271.998 c -2.211,0 -3.998,-1.789 -3.998,-3.999 v -23.998 c 0,-2.211 1.787,-4 3.998,-4 2.211,0 4,1.789 4,4 v 23.998 c 0,2.21 -1.789,3.999 -4,3.999 z"
           id="path146"
           inkscape:connector-curvature="0" /></g></g><g
       id="g156"><g
         id="g154"><path
           d="m 315.994,248.001 h -8 c -2.211,0 -3.998,-1.789 -3.998,-4 0,-2.211 1.787,-4 3.998,-4 h 8 c 2.211,0 4,1.789 4,4 0,2.211 -1.789,4 -4,4 z"
           id="path152"
           inkscape:connector-curvature="0" /></g></g><g
       id="g162"><g
         id="g160"><path
           d="m 331.992,439.982 c -2.211,0 -4,-1.789 -4,-4 v -63.994 c 0,-2.211 1.789,-3.999 4,-3.999 2.211,0 4,1.788 4,3.999 v 63.994 c 0,2.211 -1.789,4 -4,4 z"
           id="path158"
           inkscape:connector-curvature="0" /></g></g><g
       id="g168"><g
         id="g166"><path
           d="m 156.01,184.007 c -2.21,0 -4,-1.789 -4,-3.999 v -8 c 0,-2.21 1.789,-3.999 4,-3.999 2.211,0 4,1.789 4,3.999 v 8 c -0.001,2.21 -1.79,3.999 -4,3.999 z"
           id="path164"
           inkscape:connector-curvature="0" /></g></g><g
       id="g174"><g
         id="g172"><path
           d="m 156.01,176.008 c -28.669,0 -51.995,-23.326 -51.995,-51.995 0,-28.669 23.326,-51.995 51.995,-51.995 28.669,0 51.995,23.326 51.995,51.995 0,28.669 -23.326,51.995 -51.995,51.995 z m 0,-95.99 c -24.255,0 -43.996,19.74 -43.996,43.995 0,24.256 19.74,43.996 43.996,43.996 24.256,0 43.996,-19.74 43.996,-43.996 C 200.005,99.758 180.265,80.018 156.01,80.018 Z"
           id="path170"
           inkscape:connector-curvature="0" /></g></g><g
       id="g180"><g
         id="g178"><path
           d="m 156.01,148.011 c -11.03,0 -19.998,-8.968 -19.998,-19.998 0,-9.796 14.1,-27.178 16.928,-30.56 1.516,-1.828 4.625,-1.828 6.14,0 2.828,3.382 16.928,20.764 16.928,30.56 0,11.03 -8.968,19.998 -19.998,19.998 z m 0,-41.582 c -5.718,7.468 -11.999,17.287 -11.999,21.584 0,6.616 5.382,11.999 11.999,11.999 6.617,0 11.999,-5.383 11.999,-11.999 -10e-4,-4.297 -6.281,-14.117 -11.999,-21.584 z"
           id="path176"
           inkscape:connector-curvature="0" /></g></g><g
       id="g186"><g
         id="g184"><path
           d="M 443.98,311.994 H 323.994 c -2.211,0 -4,-1.789 -4,-3.999 0,-2.211 1.789,-4 4,-4 H 443.98 c 2.211,0 4,1.789 4,4 0,2.21 -1.789,3.999 -4,3.999 z"
           id="path182"
           inkscape:connector-curvature="0" /></g></g><g
       id="g192"><g
         id="g190"><path
           d="m 331.992,407.985 h -7.998 c -2.211,0 -4,-1.789 -4,-4 0,-2.211 1.789,-3.999 4,-3.999 h 7.998 c 2.211,0 4,1.788 4,3.999 0,2.211 -1.789,4 -4,4 z"
           id="path188"
           inkscape:connector-curvature="0" /></g></g><g
       id="g198"><g
         id="g196"><path
           d="m 507.975,311.994 h -7.998 c -2.211,0 -4,-1.789 -4,-3.999 0,-2.211 1.789,-4 4,-4 h 7.998 c 2.211,0 4,1.789 4,4 0,2.21 -1.789,3.999 -4,3.999 z"
           id="path194"
           inkscape:connector-curvature="0" /></g></g><g
       id="g204"><g
         id="g202"><path
           d="m 507.975,343.991 h -7.998 c -2.211,0 -4,-1.789 -4,-3.999 0,-2.211 1.789,-4 4,-4 h 7.998 c 2.211,0 4,1.789 4,4 0,2.21 -1.789,3.999 -4,3.999 z"
           id="path200"
           inkscape:connector-curvature="0" /></g></g><g
       id="g210"><g
         id="g208"><path
           d="m 507.975,375.988 h -7.998 c -2.211,0 -4,-1.789 -4,-4 0,-2.211 1.789,-3.999 4,-3.999 h 7.998 c 2.211,0 4,1.788 4,3.999 0,2.211 -1.789,4 -4,4 z"
           id="path206"
           inkscape:connector-curvature="0" /></g></g><g
       id="g216"><g
         id="g214"><path
           d="m 507.975,407.985 h -7.998 c -2.211,0 -4,-1.789 -4,-4 0,-2.211 1.789,-3.999 4,-3.999 h 7.998 c 2.211,0 4,1.788 4,3.999 0,2.211 -1.789,4 -4,4 z"
           id="path212"
           inkscape:connector-curvature="0" /></g></g><g
       id="g222"><g
         id="g220"><path
           d="m 156.01,439.982 c -2.21,0 -4,-1.789 -4,-4 v -199.98 c 0,-2.211 1.789,-4 4,-4 2.211,0 4,1.789 4,4 v 199.98 c -0.001,2.211 -1.79,4 -4,4 z"
           id="path218"
           inkscape:connector-curvature="0" /></g></g><g
       id="g228"><g
         id="g226"><path
           d="m 443.98,375.988 c -2.209,0 -3.998,-1.789 -3.998,-4 v -63.993 c 0,-2.211 1.789,-4 3.998,-4 2.211,0 4,1.789 4,4 v 63.993 c 0,2.211 -1.789,4 -4,4 z"
           id="path224"
           inkscape:connector-curvature="0" /></g></g><g
       id="g234"><g
         id="g232"><path
           d="M 443.98,375.988 H 323.994 c -2.211,0 -4,-1.789 -4,-4 0,-2.211 1.789,-3.999 4,-3.999 H 443.98 c 2.211,0 4,1.788 4,3.999 0,2.211 -1.789,4 -4,4 z"
           id="path230"
           inkscape:connector-curvature="0" /></g></g><g
       id="g240"><g
         id="g238"><path
           d="m 403.984,359.99 c -1.021,0 -2.045,-0.391 -2.826,-1.172 -1.562,-1.562 -1.562,-4.094 0,-5.656 l 23.996,-23.998 c 1.562,-1.562 4.094,-1.562 5.656,0 1.562,1.562 1.562,4.094 0,5.656 l -23.998,23.998 c -0.781,0.782 -1.804,1.172 -2.828,1.172 z"
           id="path236"
           inkscape:connector-curvature="0" /></g></g><g
       id="g246"><g
         id="g244"><path
           d="m 420.156,360.49 c -1.023,0 -2.047,-0.391 -2.828,-1.172 -1.562,-1.562 -1.562,-4.094 0,-5.656 l 7.826,-7.827 c 1.562,-1.562 4.094,-1.562 5.656,0 1.562,1.562 1.562,4.093 0,5.655 l -7.826,7.828 c -0.781,0.782 -1.804,1.172 -2.828,1.172 z"
           id="path242"
           inkscape:connector-curvature="0" /></g></g><g
       id="g252"><g
         id="g250"><path
           d="m 323.994,375.988 c -2.211,0 -4,-1.789 -4,-4 v -63.993 c 0,-2.211 1.789,-4 4,-4 2.209,0 3.998,1.789 3.998,4 v 63.993 c 0,2.211 -1.789,4 -3.998,4 z"
           id="path248"
           inkscape:connector-curvature="0" /></g></g><g
       id="g258"><g
         id="g256"><path
           d="m 331.992,311.994 c -2.211,0 -4,-1.789 -4,-3.999 v -39.996 c 0,-2.211 1.789,-4 4,-4 2.211,0 4,1.789 4,4 v 39.996 c 0,2.21 -1.789,3.999 -4,3.999 z"
           id="path254"
           inkscape:connector-curvature="0" /></g></g><g
       id="g264"><g
         id="g262"><path
           d="m 331.992,439.982 h -7.998 c -2.211,0 -4,-1.789 -4,-4 0,-2.211 1.789,-4 4,-4 h 7.998 c 2.211,0 4,1.789 4,4 0,2.211 -1.789,4 -4,4 z"
           id="path260"
           inkscape:connector-curvature="0" /></g></g></g></svg>