<?xml version="1.0" encoding="UTF-8" standalone="no"?>
<svg
   xmlns:dc="http://purl.org/dc/elements/1.1/"
   xmlns:cc="http://creativecommons.org/ns#"
   xmlns:rdf="http://www.w3.org/1999/02/22-rdf-syntax-ns#"
   xmlns:svg="http://www.w3.org/2000/svg"
   xmlns="http://www.w3.org/2000/svg"
   xmlns:sodipodi="http://sodipodi.sourceforge.net/DTD/sodipodi-0.dtd"
   xmlns:inkscape="http://www.inkscape.org/namespaces/inkscape"
   version="1.1"
   x="0px"
   y="0px"
   viewBox="0 0 128 128"
   id="svg10"
   sodipodi:docname="organic_market.svg"
   width="128"
   height="128"
   inkscape:version="0.92+devel (unknown)">
  <metadata
     id="metadata16">
    <rdf:RDF>
      <cc:Work
         rdf:about="">
        <dc:format>image/svg+xml</dc:format>
        <dc:type
           rdf:resource="http://purl.org/dc/dcmitype/StillImage" />
        <dc:title></dc:title>
      </cc:Work>
    </rdf:RDF>
  </metadata>
  <defs
     id="defs14" />
  <sodipodi:namedview
     pagecolor="#ffffff"
     bordercolor="#666666"
     inkscape:document-rotation="0"
     borderopacity="1"
     objecttolerance="10"
     gridtolerance="10"
     guidetolerance="10"
     inkscape:pageopacity="0"
     inkscape:pageshadow="2"
     inkscape:window-width="2568"
     inkscape:window-height="1382"
     id="namedview12"
     showgrid="false"
     inkscape:zoom="5.564"
     inkscape:cx="77.765008"
     inkscape:cy="62.275411"
     inkscape:window-x="97"
     inkscape:window-y="180"
     inkscape:window-maximized="0"
     inkscape:current-layer="svg10" />
  <g
     transform="matrix(1.1657658,0,0,1.1657658,5.7117099,-1104.5195)"
     id="g4">
    <path
       d="m 7.0382739,959.82975 -3.99296,20.993 c -0.33111,1.7348 1.20221,3.5739 2.96901,3.5612 h 5.0004201 v 21.96125 c -2.4245501,0 -3.9459201,1.396 -4.0003401,2.999 v 31.9889 c 0.0141,1.9304 1.54339,2.999 4.0003401,2.999 v 3.0301 h 6.00051 v -3.0301 h 66.005602 v 3.0301 h 6.00051 v -3.0301 c 2.51699,0.023 3.94592,-1.3961 4.00034,-2.999 v -31.9889 c -0.0141,-2.2303 -1.39335,-2.9615 -4.00034,-2.999 v -21.93005 l 5.00042,-0.031 c 1.74385,-0.01 3.24635,-1.8143 2.93775,-3.5299 l -4.00772,-21.0243 c -0.24588,-1.3653 -1.54993,-2.4607 -2.93775,-2.4678 H 10.007284 c -1.5969701,0.026 -2.6563101,1.1642 -2.9690101,2.4676 z m 9.9769801,24.5542 h 66.005602 v 21.96125 H 17.015254 Z m -4.00034,27.95915 h 74.006282 v 25.991 H 13.014914 Z m 28.564922,5.092 c -1.91959,0.086 -4.18478,1.1837 -5.59422,2.4991 0.90083,1.9392 2.48043,3.1923 3.65656,4.1549 2.81386,2.0888 5.07765,2.5127 7.62564,2.7177 1.6104,1.2191 3.0242,2.8307 3.5003,4.6859 -0.27919,0.8462 -0.54497,1.7332 -0.71881,2.7179 -0.11398,0.5249 0.27608,1.1045 0.80542,1.1968 0.52932,0.092 1.09282,-0.3208 1.1635,-0.8533 0.66941,-3.7916 2.21956,-6.2394 3.96908,-8.0909 1.85084,-0.7841 3.97947,-0.4922 5.12544,-0.9372 1.91365,-1.1432 1.45009,-2.6138 2.9065,-4.1236 -2.23222,-0.9884 -4.11905,-1.6363 -7.03185,0.125 -1.18566,0.9042 -1.95906,1.9509 -2.18769,3.3114 -1.05297,1.0743 -2.09421,2.3441 -2.93775,3.936 -0.84628,-1.3524 -2.02757,-2.4457 -3.15651,-3.405 -0.60107,-2.5495 -2.08808,-5.9885 -5.37546,-7.6535 -0.51792,-0.228 -1.11028,-0.3097 -1.75015,-0.2812 z"
       style="color:#000000;text-indent:0;text-transform:none;direction:ltr;baseline-shift:baseline;enable-background:accumulate"
       fill="#000000"
       fill-opacity="1"
       stroke="none"
       marker="none"
       visibility="visible"
       display="inline"
       overflow="visible"
       id="path2"
       inkscape:connector-curvature="0" />
  </g>
</svg>
