<?xml version="1.0" encoding="UTF-8" standalone="no"?>
<svg
   xmlns:dc="http://purl.org/dc/elements/1.1/"
   xmlns:cc="http://creativecommons.org/ns#"
   xmlns:rdf="http://www.w3.org/1999/02/22-rdf-syntax-ns#"
   xmlns:svg="http://www.w3.org/2000/svg"
   xmlns="http://www.w3.org/2000/svg"
   xmlns:sodipodi="http://sodipodi.sourceforge.net/DTD/sodipodi-0.dtd"
   xmlns:inkscape="http://www.inkscape.org/namespaces/inkscape"
   version="1.1"
   x="0px"
   y="0px"
   viewBox="0 0 512 512"
   enable-background="new 0 0 512 512"
   xml:space="preserve"
   id="svg20"
   sodipodi:docname="bulldozer.svg"
   width="512"
   height="512"
   inkscape:version="0.92.2 (5c3e80d, 2017-08-06)"
   inkscape:export-filename="D:\Sascha\Downloads\bulldozer.png"
   inkscape:export-xdpi="37.5"
   inkscape:export-ydpi="37.5"><metadata
     id="metadata26"><rdf:RDF><cc:Work
         rdf:about=""><dc:format>image/svg+xml</dc:format><dc:type
           rdf:resource="http://purl.org/dc/dcmitype/StillImage" /><dc:title></dc:title></cc:Work></rdf:RDF></metadata><defs
     id="defs24" /><sodipodi:namedview
     pagecolor="#ffffff"
     bordercolor="#666666"
     borderopacity="1"
     objecttolerance="10"
     gridtolerance="10"
     guidetolerance="10"
     inkscape:pageopacity="0"
     inkscape:pageshadow="2"
     inkscape:window-width="1858"
     inkscape:window-height="1057"
     id="namedview22"
     showgrid="false"
     inkscape:zoom="0.36875"
     inkscape:cx="256"
     inkscape:cy="320"
     inkscape:window-x="54"
     inkscape:window-y="-8"
     inkscape:window-maximized="1"
     inkscape:current-layer="svg20" /><g
     id="g14"
     transform="matrix(0.89323686,0,0,0.89323686,27.33217,14.512466)"><rect
       x="198.10001"
       y="337.70001"
       width="16.299999"
       height="16.299999"
       id="rect2" /><rect
       x="263.5"
       y="337.70001"
       width="16.299999"
       height="16.299999"
       id="rect4" /><rect
       x="132.8"
       y="337.70001"
       width="16.299999"
       height="16.299999"
       id="rect6" /><rect
       x="67.400002"
       y="337.70001"
       width="16.299999"
       height="16.299999"
       id="rect8" /><path
       d="m 386.1,223.3 h -57.2 v 86.1 c -6.8,-6.1 -15.2,-10.3 -24.5,-11.9 v -66.1 h -32.7 v -45.7 l 21.2,-21.2 -11.5,-11.5 -26,26 v 52.4 H 235 L 153.3,117 H 59.2 V 231.4 H 42.9 v 66.1 C 19.7,301.5 2,321.7 2,345.9 c 0,27 22,49 49,49 h 245.2 c 12.6,0 24,-4.8 32.7,-12.6 v 12.6 H 433.6 L 386.1,319 Z M 75.6,133.4 h 69.3 L 215,231.5 H 75.6 Z M 59.2,247.8 H 288 v 49 H 59.2 Z m 237,130.8 H 51 c -18,0 -32.7,-14.7 -32.7,-32.7 0,-18 14.7,-32.7 32.7,-32.7 h 245.2 c 18,0 32.7,14.7 32.7,32.7 0,18 -14.6,32.7 -32.7,32.7 z m 107.9,0 H 345.3 V 239.7 h 24.5 v 84.1 z"
       id="path10"
       inkscape:connector-curvature="0" /><path
       d="m 508.9,304.5 c -5.2,-16.1 -7,-25.1 -29.6,-37.5 -7.2,-27.4 -47.1,-51.9 -82.9,-23.7 l 10.7,12.4 c 26.5,-20.4 55.9,-0.9 58.4,23.6 0,0 21.3,3.9 27.4,28.3 3.2,12.8 -5.8,49.4 -46.4,39.8 l -5.4,15.4 c 54,14.8 74.1,-38.4 67.8,-58.3 z"
       id="path12"
       inkscape:connector-curvature="0" /></g></svg>