<?xml version="1.0" encoding="UTF-8" standalone="no"?>
<svg
   xmlns:dc="http://purl.org/dc/elements/1.1/"
   xmlns:cc="http://creativecommons.org/ns#"
   xmlns:rdf="http://www.w3.org/1999/02/22-rdf-syntax-ns#"
   xmlns:svg="http://www.w3.org/2000/svg"
   xmlns="http://www.w3.org/2000/svg"
   xmlns:sodipodi="http://sodipodi.sourceforge.net/DTD/sodipodi-0.dtd"
   xmlns:inkscape="http://www.inkscape.org/namespaces/inkscape"
   version="1.1"
   x="0px"
   y="0px"
   viewBox="0 0 40 40"
   enable-background="new 0 0 32 32"
   xml:space="preserve"
   id="svg24"
   sodipodi:docname="zoom_out.svg"
   width="40"
   height="40"
   inkscape:version="0.92.2 (5c3e80d, 2017-08-06)"
   inkscape:export-filename="D:\Sascha\Downloads\zoom_out.png"
   inkscape:export-xdpi="480"
   inkscape:export-ydpi="480"><metadata
     id="metadata30"><rdf:RDF><cc:Work
         rdf:about=""><dc:format>image/svg+xml</dc:format><dc:type
           rdf:resource="http://purl.org/dc/dcmitype/StillImage" /><dc:title></dc:title></cc:Work></rdf:RDF></metadata><defs
     id="defs28" /><sodipodi:namedview
     pagecolor="#ffffff"
     bordercolor="#666666"
     borderopacity="1"
     objecttolerance="10"
     gridtolerance="10"
     guidetolerance="10"
     inkscape:pageopacity="0"
     inkscape:pageshadow="2"
     inkscape:window-width="1858"
     inkscape:window-height="1057"
     id="namedview26"
     showgrid="false"
     inkscape:zoom="5.9"
     inkscape:cx="16"
     inkscape:cy="20"
     inkscape:window-x="54"
     inkscape:window-y="-8"
     inkscape:window-maximized="1"
     inkscape:current-layer="svg24" /><g
     id="g18"
     transform="translate(4.2372881,4.0677966)"><g
       id="g4"><path
         d="m 19.9,23.4 c -3,0 -5.9,-1.2 -8,-3.3 -4.4,-4.4 -4.4,-11.6 0,-16 2.1,-2.1 5,-3.3 8,-3.3 3,0 5.9,1.2 8,3.3 4.4,4.4 4.4,11.6 0,16 -2.1,2.1 -4.9,3.3 -8,3.3 z m 0,-21.2 C 17.3,2.2 14.8,3.2 13,5.1 9.2,9 9.2,15.2 13,19 c 1.9,1.9 4.3,2.9 6.9,2.9 2.6,0 5.1,-1 6.9,-2.9 3.8,-3.8 3.8,-10.1 0,-13.9 C 25,3.3 22.6,2.2 19.9,2.2 Z"
         id="path2"
         inkscape:connector-curvature="0"
         style="fill:#000000" /></g><g
       id="g8"><rect
         x="10.4"
         y="19"
         transform="matrix(0.7071,0.7071,-0.7071,0.7071,18.0066,-1.7855)"
         width="1.5"
         height="3.7"
         id="rect6"
         style="fill:#000000" /></g><g
       id="g12"><path
         d="m 3.6,31.2 c -0.8,0 -1.5,-0.3 -2,-0.8 -1.1,-1.1 -1.1,-3 0,-4.1 l 4.7,-4.7 c 1.1,-1.1 3,-1.1 4.1,0 0.5,0.5 0.8,1.3 0.8,2 0,0.8 -0.3,1.5 -0.8,2 l -4.7,4.7 c -0.6,0.6 -1.3,0.9 -2.1,0.9 z m 4.7,-8.9 c -0.4,0 -0.7,0.1 -1,0.4 l -4.7,4.7 c -0.5,0.5 -0.5,1.4 0,2 0.5,0.5 1.4,0.5 2,0 l 4.7,-4.7 c 0.3,-0.3 0.4,-0.6 0.4,-1 0,-0.4 -0.1,-0.7 -0.4,-1 -0.2,-0.3 -0.6,-0.4 -1,-0.4 z"
         id="path10"
         inkscape:connector-curvature="0"
         style="fill:#000000" /></g><g
       id="g16"><rect
         x="14.7"
         y="11.3"
         width="10.5"
         height="1.5"
         id="rect14"
         style="fill:#000000" /></g></g></svg>