<?xml version="1.0" encoding="UTF-8" standalone="no"?>
<svg
   xmlns:dc="http://purl.org/dc/elements/1.1/"
   xmlns:cc="http://creativecommons.org/ns#"
   xmlns:rdf="http://www.w3.org/1999/02/22-rdf-syntax-ns#"
   xmlns:svg="http://www.w3.org/2000/svg"
   xmlns="http://www.w3.org/2000/svg"
   xmlns:sodipodi="http://sodipodi.sourceforge.net/DTD/sodipodi-0.dtd"
   xmlns:inkscape="http://www.inkscape.org/namespaces/inkscape"
   version="1.1"
   x="0px"
   y="0px"
   viewBox="0 0 32 32"
   xml:space="preserve"
   id="svg12"
   sodipodi:docname="fire_station.svg"
   inkscape:export-filename="D:\Code\kotcity\assets\utility\fire_station.png"
   inkscape:export-xdpi="576"
   inkscape:export-ydpi="576"
   inkscape:version="0.92.2 (5c3e80d, 2017-08-06)"
   width="32"
   height="32"><metadata
     id="metadata18"><rdf:RDF><cc:Work
         rdf:about=""><dc:format>image/svg+xml</dc:format><dc:type
           rdf:resource="http://purl.org/dc/dcmitype/StillImage" /><dc:title /></cc:Work></rdf:RDF></metadata><defs
     id="defs16" /><sodipodi:namedview
     pagecolor="#ffffff"
     bordercolor="#666666"
     borderopacity="1"
     objecttolerance="10"
     gridtolerance="10"
     guidetolerance="10"
     inkscape:pageopacity="0"
     inkscape:pageshadow="2"
     inkscape:window-width="1858"
     inkscape:window-height="1057"
     id="namedview14"
     showgrid="false"
     inkscape:zoom="15.733333"
     inkscape:cx="-0.16276223"
     inkscape:cy="19.737496"
     inkscape:window-x="54"
     inkscape:window-y="-8"
     inkscape:window-maximized="1"
     inkscape:current-layer="svg12"
     showguides="true"
     inkscape:guide-bbox="true" /><g
     id="g6"
     transform="translate(4,4)"><g
       id="g4"><path
         d="M 23.5,10 H 19 V 5.5 C 19,5.224 18.776,5 18.5,5 H 7.5 C 7.224,5 7,5.224 7,5.5 V 14 H 5 V 4 H 5.5 C 5.689,4 5.862,3.893 5.947,3.723 l 1,-2 C 7.025,1.569 7.016,1.384 6.925,1.237 6.834,1.09 6.673,1 6.5,1 H 4 V 0.5 C 4,0.224 3.776,0 3.5,0 3.224,0 3,0.224 3,0.5 V 1 H 0.5 C 0.327,1 0.166,1.091 0.075,1.238 -0.016,1.385 -0.025,1.569 0.053,1.724 l 1,2 C 1.138,3.893 1.311,4 1.5,4 H 2 V 14 H 0.5 C 0.224,14 0,14.224 0,14.5 v 9 C 0,23.776 0.224,24 0.5,24 h 3 C 3.776,24 4,23.776 4,23.5 V 22 c 0,-1.654 1.346,-3 3,-3 1.654,0 3,1.346 3,3 v 1.5 c 0,0.276 0.224,0.5 0.5,0.5 h 13 c 0.276,0 0.5,-0.224 0.5,-0.5 v -13 C 24,10.224 23.776,10 23.5,10 Z M 1.809,3 1.309,2 h 4.382 l -0.5,1 z M 4,4 V 14 H 3 V 4 Z M 23,23 H 11 V 22 C 11,19.794 9.206,18 7,18 4.794,18 3,19.794 3,22 v 1 H 1 V 15 H 7.5 C 7.776,15 8,14.776 8,14.5 V 6 h 10 v 4.5 c 0,0.276 0.224,0.5 0.5,0.5 H 23 Z m -6,-7.5 v 4 c 0,0.276 0.224,0.5 0.5,0.5 h 4 c 0.276,0 0.5,-0.224 0.5,-0.5 v -4 C 22,15.224 21.776,15 21.5,15 h -4 C 17.224,15 17,15.224 17,15.5 Z m 1,0.5 h 3 v 3 H 18 Z M 13.334,7.627 C 13.187,7.496 12.977,7.462 12.796,7.543 12.616,7.624 12.5,7.803 12.5,8 v 1 c 0,0.379 -0.464,0.836 -0.954,1.32 C 10.822,11.035 10,11.846 10,13 c 0,0.976 0.787,1.796 1.914,1.994 0.028,0.005 0.058,0.007 0.086,0.007 0.187,0 0.362,-0.105 0.447,-0.279 l 0.274,-0.551 0.081,0.422 c 0.051,0.266 0.306,0.442 0.574,0.399 C 15.019,14.717 16,13.785 16,12.499 16,10.047 13.443,7.725 13.334,7.627 Z m 0.353,6.271 -0.263,-1.371 C 13.383,12.316 13.213,12.155 13,12.126 c -0.212,-0.028 -0.42,0.081 -0.515,0.273 l -0.75,1.511 C 11.289,13.732 11,13.388 11,13 c 0,-0.736 0.635,-1.362 1.249,-1.968 0.553,-0.546 1.123,-1.108 1.232,-1.796 0.674,0.8 1.519,2.048 1.519,3.264 0,0.825 -0.692,1.214 -1.313,1.398 z"
         id="path2"
         inkscape:connector-curvature="0" /></g></g></svg>