<?xml version="1.0" encoding="UTF-8" standalone="no"?>
<!-- Created with Inkscape (http://www.inkscape.org/) -->

<svg
   xmlns:dc="http://purl.org/dc/elements/1.1/"
   xmlns:cc="http://creativecommons.org/ns#"
   xmlns:rdf="http://www.w3.org/1999/02/22-rdf-syntax-ns#"
   xmlns:svg="http://www.w3.org/2000/svg"
   xmlns="http://www.w3.org/2000/svg"
   xmlns:sodipodi="http://sodipodi.sourceforge.net/DTD/sodipodi-0.dtd"
   xmlns:inkscape="http://www.inkscape.org/namespaces/inkscape"
   width="64"
   height="64"
   viewBox="0 0 16.933333 16.933334"
   version="1.1"
   id="svg836"
   inkscape:version="0.92+devel (unknown)"
   sodipodi:docname="nuclear_power_plant.svg">
  <defs
     id="defs830" />
  <sodipodi:namedview
     id="base"
     pagecolor="#ffffff"
     bordercolor="#666666"
     borderopacity="1.0"
     inkscape:pageopacity="0.0"
     inkscape:pageshadow="2"
     inkscape:zoom="3.959798"
     inkscape:cx="-3.6435462"
     inkscape:cy="-7.7213077"
     inkscape:document-units="mm"
     inkscape:current-layer="layer1"
     inkscape:document-rotation="0"
     showgrid="false"
     units="px"
     inkscape:window-width="3200"
     inkscape:window-height="1637"
     inkscape:window-x="0"
     inkscape:window-y="0"
     inkscape:window-maximized="1" />
  <metadata
     id="metadata833">
    <rdf:RDF>
      <cc:Work
         rdf:about="">
        <dc:format>image/svg+xml</dc:format>
        <dc:type
           rdf:resource="http://purl.org/dc/dcmitype/StillImage" />
        <dc:title></dc:title>
      </cc:Work>
    </rdf:RDF>
  </metadata>
  <g
     inkscape:label="Layer 1"
     inkscape:groupmode="layer"
     id="layer1"
     transform="translate(0,-280.06665)">
    <path
       inkscape:connector-curvature="0"
       d="m 6.4327547,288.88552 c -1.1695632,0 -2.1212508,0.95152 -2.1212508,2.12109 0,1.1694 0.9516876,2.12092 2.1212508,2.12092 1.1695635,0 2.1209228,-0.95136 2.1209228,-2.12076 0,-1.16973 -0.9513593,-2.12125 -2.1209228,-2.12125 z m 0,3.91355 c -0.9899718,0 -1.7926294,-0.80232 -1.7926294,-1.7923 0,-0.99013 0.8026576,-1.79246 1.7926294,-1.79246 0.989643,0 1.7923011,0.80233 1.7923011,1.79246 0,0.98998 -0.8024937,1.7923 -1.7923011,1.7923 z m 0.790006,-3.16068 c -0.039106,-0.0232 -0.089549,-0.009 -0.1122239,0.0301 l -0.6777821,1.17384 -0.6735098,-1.16628 c -0.0054,-0.0125 -0.014129,-0.0237 -0.02563,-0.0322 -0.026289,-0.0197 -0.061779,-0.0222 -0.090535,-0.005 -0.4871814,0.28163 -0.790006,0.80578 -0.79017,1.36821 0,0.0218 0.00871,0.0427 0.023991,0.0581 0.015283,0.0154 0.036312,0.0239 0.058164,0.0239 H 6.2904633 L 5.616625,292.256 c -0.00953,0.0129 -0.014956,0.0287 -0.015444,0.0454 -9.904e-4,0.0303 0.014784,0.0583 0.04108,0.0736 0.2438378,0.14048 0.5169213,0.2108 0.7903351,0.2108 0.273413,0 0.546333,-0.0703 0.7896771,-0.21097 0.039435,-0.0226 0.052743,-0.0728 0.030232,-0.11222 l -0.6774535,-1.17368 1.343897,-1.4e-4 c 0.00359,3.7e-4 0.00756,7.6e-4 0.011342,7.6e-4 0.00837,0 0.016763,-9.2e-4 0.024647,-0.004 0.034342,-0.0106 0.057506,-0.0426 0.057506,-0.0784 0,-0.56324 -0.302496,-1.08773 -0.7896775,-1.36869 z m 8.0738983,4.51181 c -0.774395,-1.9249 -1.167263,-3.99785 -1.167263,-6.1633 0,-0.0909 -0.07344,-0.16431 -0.16431,-0.16431 H 9.8461452 c -0.090864,0 -0.1643105,0.0734 -0.1643105,0.16431 0,0.88284 -0.068518,1.76372 -0.203253,2.62897 -0.2323352,-1.1477 -0.3677266,-2.32713 -0.3991108,-3.51887 1.495e-4,-7.7e-4 4.957e-4,-9.1e-4 4.957e-4,-0.002 0,-7.6e-4 -4.957e-4,-0.002 -4.957e-4,-0.002 -0.00459,-0.17909 -0.00723,-0.35819 -0.00723,-0.53746 0,-0.0909 -0.073447,-0.16431 -0.1643116,-0.16431 H 3.9570852 c -0.090863,0 -0.1643101,0.0735 -0.1643101,0.16431 0,2.63571 -0.4835667,5.15788 -1.4367331,7.49718 -0.1097593,0.0847 -0.2076886,0.18583 -0.2867222,0.3043 -0.077061,-0.026 -0.1570809,-0.0394 -0.2374292,-0.0394 -0.4186635,-10e-6 -0.7591153,0.34045 -0.7591153,0.75912 0,0.0909 0.073447,0.1643 0.1643112,0.1643 h 3.0348184 c 1.494e-4,0 1.494e-4,0 1.494e-4,0 H 15.664373 c 0.07114,0 0.133912,-0.0455 0.156095,-0.11304 0.02694,-0.0828 0.04009,-0.16037 0.04009,-0.23693 0,-0.35295 -0.239402,-0.64985 -0.563916,-0.74056 z m -5.287025,-5.99898 h 3.791963 c 6.86e-4,0.0691 0.0046,0.13736 0.0061,0.20636 h -3.802493 c 0.0015,-0.0687 0.0038,-0.13752 0.0044,-0.20636 z m -5.8888951,-1.43165 h 4.6235385 c 4.957e-4,0.0705 0.00313,0.14066 0.00429,0.21115 H 4.1167996 c 0.00129,-0.0705 0.00328,-0.14049 0.00397,-0.21115 z m -2.6869729,8.19237 c 0.064739,-0.15609 0.2186974,-0.26618 0.3979606,-0.26618 0.07624,0 0.1503445,0.0212 0.2196837,0.0627 0.039106,0.0238 0.086591,0.0297 0.1301339,0.0171 0.043869,-0.0127 0.080348,-0.043 0.1008869,-0.0838 0.071639,-0.1413 0.175155,-0.2578 0.2978949,-0.34652 0.00198,-9.2e-4 0.00392,-0.002 0.00578,-0.003 0.082155,-0.0587 0.1707194,-0.10335 0.2637194,-0.13375 9.904e-4,-3.5e-4 0.00198,-7.6e-4 0.00309,-9.2e-4 0.0419,-0.0135 0.084949,-0.0232 0.1281621,-0.0309 0.00578,-9.2e-4 0.011342,-0.003 0.017251,-0.004 0.047483,-0.007 0.095793,-0.0114 0.1444289,-0.0114 0.055209,0 0.1087742,0.005 0.161353,0.0147 0.00641,9.2e-4 0.012817,0.002 0.019225,0.003 0.049787,0.01 0.097765,0.0233 0.1444293,0.0401 0.00805,0.003 0.015935,0.005 0.023824,0.008 0.045514,0.0178 0.089385,0.0386 0.1312841,0.0629 0.0069,0.004 0.013477,0.008 0.020377,0.0123 0.042229,0.0258 0.082649,0.054 0.1201117,0.0857 0.00378,0.003 0.00723,0.006 0.010842,0.01 0.038119,0.0332 0.07394,0.069 0.1064735,0.10763 0.00111,9.2e-4 0.00248,0.003 0.00347,0.004 0.032366,0.0388 0.060958,0.0809 0.08692,0.12455 0.00347,0.005 0.00707,0.0113 0.010354,0.0171 0.024151,0.0426 0.044694,0.0874 0.062437,0.13358 0.00278,0.007 0.00558,0.0153 0.00837,0.023 0.016431,0.0467 0.029572,0.0951 0.038447,0.14492 4.956e-4,0.003 6.862e-4,0.005 0.00129,0.008 H 1.4337432 Z m 2.9919339,0 c -0.00278,-0.0212 -0.00723,-0.0417 -0.010842,-0.0624 -0.00248,-0.0141 -0.00429,-0.0284 -0.0074,-0.0424 -0.00624,-0.0294 -0.014129,-0.0581 -0.022344,-0.0866 -0.00328,-0.0106 -0.0054,-0.022 -0.00903,-0.0326 -0.024647,-0.0785 -0.056687,-0.15379 -0.095136,-0.22494 -0.00459,-0.008 -0.010183,-0.0164 -0.014784,-0.0248 -0.015284,-0.0265 -0.030728,-0.0526 -0.047483,-0.078 -0.00773,-0.0115 -0.016431,-0.0226 -0.024483,-0.0338 -0.015115,-0.0212 -0.030399,-0.0424 -0.046663,-0.0624 -0.00986,-0.0122 -0.020209,-0.0237 -0.030399,-0.0353 -0.016103,-0.0184 -0.032207,-0.0367 -0.04929,-0.0541 -0.011338,-0.0116 -0.023331,-0.0228 -0.035161,-0.034 -0.017091,-0.0164 -0.034342,-0.0322 -0.052252,-0.0477 -0.012817,-0.0108 -0.025798,-0.0212 -0.038944,-0.0315 -0.018238,-0.0145 -0.036968,-0.0284 -0.056029,-0.0419 -0.013804,-0.01 -0.027933,-0.0193 -0.042062,-0.0284 -0.019549,-0.0127 -0.039434,-0.0247 -0.059642,-0.0363 -0.014788,-0.008 -0.029572,-0.017 -0.044695,-0.0247 -0.020705,-0.0108 -0.0419,-0.0208 -0.063423,-0.0307 -0.015444,-0.007 -0.030891,-0.0141 -0.046664,-0.0205 -0.022184,-0.009 -0.044694,-0.0171 -0.067532,-0.0249 -0.015776,-0.005 -0.031387,-0.011 -0.047483,-0.016 -0.024151,-0.007 -0.0488,-0.0131 -0.073446,-0.0189 -0.015444,-0.004 -0.030727,-0.008 -0.046334,-0.011 -0.027438,-0.006 -0.055538,-0.009 -0.083635,-0.0127 -0.013477,-0.002 -0.026618,-0.005 -0.040254,-0.005 -0.0419,-0.004 -0.084292,-0.006 -0.1271771,-0.006 v 0 c -0.058003,0 -0.1150172,0.005 -0.1713759,0.0118 -0.00723,9.2e-4 -0.014296,0.003 -0.021524,0.004 -0.051103,0.007 -0.101216,0.0179 -0.1505088,0.0314 -6.863e-4,1.6e-4 -0.00111,1.6e-4 -0.00168,3.6e-4 0.7972388,-2.07034 1.2367693,-4.27571 1.3112022,-6.57146 h 4.6462138 c 0.048141,1.43904 0.2441657,2.86015 0.579852,4.22854 1.495e-4,9.2e-4 -1.493e-4,0.002 0,0.003 0.081334,0.33109 0.1712116,0.65872 0.2686484,0.98257 0.011342,0.0376 0.023659,0.0747 0.035161,0.1124 0.037788,0.12306 0.076076,0.24597 0.1161675,0.36772 0.018402,0.0562 0.03812,0.11173 0.057183,0.16776 0.034833,0.10287 0.069833,0.20556 0.1063095,0.30759 0.022672,0.0631 0.046172,0.12554 0.069504,0.1883 0.034832,0.0943 0.069995,0.18847 0.1061445,0.28196 0.02514,0.0651 0.05144,0.12981 0.07739,0.19471 0.03648,0.0905 0.07296,0.18107 0.110745,0.27062 0.02712,0.0649 0.05505,0.12915 0.08282,0.19356 0.03862,0.089 0.07772,0.17778 0.117482,0.26585 0.01331,0.0294 0.02563,0.0592 0.03895,0.0884 H 4.4256872 Z m 7.1135031,-0.49703 c -0.03467,0.0427 -0.06539,0.0884 -0.09317,0.13605 -0.0031,0.005 -0.0064,0.0104 -0.0095,0.0158 -0.02628,0.0473 -0.04831,0.0971 -0.0672,0.14854 -0.0033,0.008 -0.0064,0.0168 -0.0094,0.0253 -0.01725,0.0511 -0.03056,0.10368 -0.03976,0.1579 -8e-4,0.005 -0.0026,0.009 -0.0035,0.0135 h -0.43148 c -0.05176,-0.11074 -0.103024,-0.22182 -0.152809,-0.33387 -0.0094,-0.021 -0.01922,-0.0417 -0.02859,-0.0627 -0.06753,-0.15396 -0.133092,-0.30908 -0.196352,-0.46533 -0.01445,-0.0353 -0.02793,-0.0713 -0.04223,-0.10664 -0.04781,-0.11995 -0.09497,-0.24055 -0.140485,-0.36181 -0.01906,-0.0511 -0.03763,-0.10237 -0.05619,-0.15363 -0.0396,-0.10812 -0.07854,-0.21657 -0.116003,-0.32567 -0.01857,-0.0542 -0.03696,-0.10844 -0.0552,-0.16299 -0.03697,-0.11058 -0.07279,-0.22166 -0.1079516,-0.3329 -0.015943,-0.0508 -0.031875,-0.10121 -0.047322,-0.15198 -0.037956,-0.12471 -0.074596,-0.24992 -0.1102527,-0.37562 -0.010515,-0.0375 -0.021684,-0.0745 -0.031875,-0.11189 -0.047813,-0.17253 -0.093165,-0.34588 -0.136378,-0.52021 0.1840274,-0.90355 0.2946091,-1.8291 0.3319077,-2.76042 H 13.81716 c 0.06803,1.75451 0.390237,3.44559 0.966639,5.04269 -0.0072,-0.006 -0.01529,-0.0106 -0.02267,-0.0164 -0.01019,-0.008 -0.02053,-0.0151 -0.0309,-0.0226 -0.03993,-0.029 -0.08101,-0.0559 -0.123726,-0.0805 -0.0064,-0.004 -0.01249,-0.008 -0.0189,-0.0113 -0.04781,-0.0268 -0.09744,-0.0503 -0.14788,-0.0716 -0.01199,-0.005 -0.02399,-0.01 -0.03631,-0.0145 -0.04847,-0.0187 -0.09776,-0.0357 -0.148043,-0.0494 -0.0043,-9.2e-4 -0.0083,-0.003 -0.01249,-0.004 -0.05389,-0.0139 -0.108938,-0.0241 -0.164639,-0.0322 -0.01348,-0.002 -0.02694,-0.004 -0.04042,-0.005 -0.05669,-0.006 -0.113703,-0.011 -0.171705,-0.011 -0.49589,0 -0.954481,0.24712 -1.228223,0.65347 -0.09185,-0.0258 -0.186163,-0.0388 -0.281957,-0.0388 -0.0608,0 -0.120111,0.006 -0.178277,0.0162 -0.0068,9.2e-4 -0.01348,0.002 -0.02021,0.004 -0.05472,0.0104 -0.10746,0.0259 -0.158889,0.0446 -0.0087,0.003 -0.01742,0.006 -0.02596,0.01 -0.04979,0.0195 -0.0976,0.0429 -0.143278,0.0693 -0.0083,0.005 -0.0161,0.01 -0.02399,0.0148 -0.04536,0.0281 -0.08873,0.0588 -0.129149,0.0932 -0.0058,0.005 -0.01118,0.0104 -0.01692,0.0154 -0.04141,0.0368 -0.08052,0.0759 -0.115839,0.11863 -0.0015,9.1e-4 -0.0028,0.003 -0.0043,0.005 z m 3.992092,0.49703 h -3.878061 c 0.0095,-0.0401 0.02054,-0.0793 0.03631,-0.11666 3.49e-4,-7.6e-4 8.01e-4,-9.2e-4 0.0012,-0.002 0.01709,-0.0398 0.03779,-0.0772 0.06145,-0.11305 0.0075,-0.0115 0.01676,-0.022 0.02498,-0.033 0.01758,-0.0238 0.03598,-0.0469 0.05636,-0.0683 0.01118,-0.0116 0.0235,-0.0226 0.03549,-0.0335 0.02005,-0.0184 0.04091,-0.036 0.06309,-0.0519 0.01364,-0.01 0.0276,-0.0194 0.04206,-0.0286 0.02317,-0.0145 0.04732,-0.0272 0.07197,-0.0392 0.01511,-0.007 0.0299,-0.0147 0.04536,-0.0207 0.02778,-0.0108 0.05669,-0.0193 0.08577,-0.0266 0.01413,-0.004 0.02777,-0.008 0.04223,-0.0112 0.04437,-0.008 0.08971,-0.0138 0.136379,-0.0138 0.09891,0 0.195364,0.0202 0.287379,0.0602 0.01939,0.008 0.0396,0.0129 0.05981,0.0138 0.01445,3.8e-4 0.02859,-0.004 0.04239,-0.006 0.0054,-9.2e-4 0.01118,-7.6e-4 0.0166,-0.003 0.01002,-0.004 0.01807,-0.0102 0.02727,-0.0154 0.02563,-0.0147 0.0488,-0.034 0.06392,-0.0616 0.201938,-0.37166 0.590204,-0.60252 1.01281,-0.60252 0.432795,0 0.82517,0.23989 1.024149,0.62635 0.03055,0.0593 0.09267,0.0945 0.160861,0.0884 l 0.0391,-0.005 c 0.01627,0 0.03155,0.003 0.04748,0.005 0.0051,7.6e-4 0.0097,0.002 0.01561,0.002 0.0072,9.2e-4 0.01529,0.002 0.02137,0.002 0.203416,0.0396 0.357375,0.21854 0.357375,0.43329 0,0.007 -1.48e-4,0.0139 -6.86e-4,0.0212 z m -9.595744,-9.06436 c 0.304796,0 0.5527403,-0.24794 0.5527403,-0.55258 0,-0.30479 -0.2479443,-0.5529 -0.5527403,-0.5529 -0.3046317,0 -0.5525776,0.24811 -0.5525776,0.5529 -1.495e-4,0.30464 0.2477809,0.55258 0.5525776,0.55258 z m 0,-0.77687 c 0.1235614,0 0.2241192,0.10057 0.2241192,0.22429 0,0.12356 -0.1005578,0.22396 -0.2241192,0.22396 -0.1235622,0 -0.2239554,-0.1004 -0.2239554,-0.22396 -1.495e-4,-0.12372 0.1003932,-0.22429 0.2239554,-0.22429 z m 1.261249,0.004 c 0.08807,0 0.1740045,-0.0197 0.2528738,-0.058 0.1079518,0.0557 0.22642,0.0848 0.3483383,0.0848 0.42195,0 0.7655241,-0.34341 0.7655241,-0.76569 0,-0.42195 -0.3435741,-0.76552 -0.7655241,-0.76552 -0.2513953,0 -0.4819232,0.1224 -0.6242164,0.32583 -0.314326,0.0122 -0.5663789,0.27177 -0.5663789,0.58905 1.494e-4,0.32517 0.2645409,0.58955 0.5893832,0.58955 z M 7.236563,284.229 c 0.070161,0.0114 0.1408149,-0.0239 0.1731833,-0.088 0.075255,-0.1492 0.2241201,-0.24204 0.3884306,-0.24204 0.2410442,0 0.436902,0.19587 0.436902,0.43691 0,0.24104 -0.1958578,0.43706 -0.436902,0.43706 -0.090207,0 -0.1774553,-0.0282 -0.2525455,-0.0818 -0.028592,-0.0204 -0.061946,-0.0305 -0.0953,-0.0305 -0.034673,0 -0.069175,0.0108 -0.098258,0.0327 -0.032366,0.0239 -0.085606,0.0527 -0.1551091,0.0527 -0.143772,0 -0.2607614,-0.11698 -0.2607614,-0.26092 0,-0.15724 0.1491939,-0.28065 0.3003599,-0.256 z m 5.065371,1.73398 c -0.314491,0.012 -0.56638,0.27144 -0.56638,0.58872 0,0.32518 0.264375,0.58955 0.589383,0.58955 0.08824,0 0.174005,-0.0199 0.25271,-0.0581 0.107787,0.0559 0.22642,0.0849 0.348338,0.0849 0.422115,0 0.765524,-0.34358 0.765524,-0.76553 0,-0.42228 -0.343409,-0.76569 -0.765524,-0.76569 -0.251559,0 -0.481923,0.12258 -0.624051,0.32616 z m 1.060953,0.43953 c 0,0.24104 -0.196023,0.4369 -0.436902,0.4369 -0.09021,0 -0.177455,-0.0284 -0.252382,-0.0818 -0.02859,-0.0204 -0.06194,-0.0307 -0.09546,-0.0307 -0.03467,0 -0.0695,0.0108 -0.09875,0.0328 -0.03204,0.024 -0.08494,0.0527 -0.154452,0.0527 -0.143772,0 -0.260762,-0.11715 -0.260762,-0.26092 0,-0.15757 0.149359,-0.28015 0.301674,-0.256 0.06917,0.0104 0.139829,-0.0248 0.17187,-0.0884 0.07542,-0.14919 0.22412,-0.24203 0.388266,-0.24203 0.240716,3.5e-4 0.436902,0.19635 0.436902,0.43739 z m -3.10005,-1.27817 c 0.08527,0 0.170062,-0.009 0.253532,-0.0281 0.159545,0.14754 0.367234,0.23052 0.584453,0.23052 0.277685,0 0.536967,-0.13539 0.698977,-0.35967 0.350968,0.0147 0.704237,-0.0922 0.989316,-0.29938 0.115838,0.0467 0.235456,0.0703 0.356553,0.0703 0.540583,0 0.980278,-0.43986 0.980278,-0.98045 0,-0.47715 -0.347845,-0.88053 -0.810051,-0.96187 -0.241866,-0.58445 -0.812024,-0.97009 -1.4507,-0.97009 -0.639005,0 -1.217378,0.39632 -1.455464,0.98011 -0.04913,-0.006 -0.09809,-0.01 -0.146729,-0.01 -0.6417981,0 -1.1641418,0.52217 -1.1641418,1.16397 -1.495e-4,0.64196 0.522015,1.16431 1.1639768,1.16431 z m 0.212618,-1.9714 c 0.08479,0.0224 0.173841,-0.0268 0.199145,-0.1119 0.155931,-0.52235 0.645413,-0.88678 1.190431,-0.88678 0.532695,0 1.005417,0.33946 1.176301,0.84521 0.02136,0.0631 0.07871,0.10697 0.14525,0.1114 0.342424,0.0217 0.610578,0.30595 0.610578,0.64689 0,0.35951 -0.292308,0.65182 -0.651656,0.65182 -0.101872,0 -0.203417,-0.0263 -0.301838,-0.0784 -0.05915,-0.0311 -0.130956,-0.0235 -0.182222,0.0193 -0.25731,0.21558 -0.603841,0.3163 -0.929833,0.28212 -0.06671,-0.007 -0.129477,0.0261 -0.161353,0.0843 -0.09546,0.17367 -0.275385,0.28146 -0.469272,0.28146 -0.155766,0 -0.304632,-0.07 -0.407983,-0.19208 -0.03171,-0.0375 -0.07788,-0.0581 -0.125369,-0.0581 -0.01676,0 -0.03352,0.003 -0.04995,0.008 -0.08297,0.0263 -0.168583,0.0398 -0.254681,0.0398 -0.4607281,0 -0.8355205,-0.37479 -0.8355205,-0.83568 -1.494e-4,-0.53039 0.5026263,-0.95022 1.0479725,-0.80726 z"
       id="path2"
       style="stroke-width:0.16431069" />
  </g>
</svg>
