<svg xmlns="http://www.w3.org/2000/svg" xmlns:xlink="http://www.w3.org/1999/xlink" version="1.1" x="0px" y="0px" viewBox="0 0 100 125" style="enable-background:new 0 0 100 100;" xml:space="preserve"><path d="M38,83.9c0-0.2,0-5.5,0-8c-1.1-0.4-2.1-1.3-2.7-2.3c-0.5-0.8-0.7-1.8-0.7-2.7c0-0.1,0-8.7,0-12.8c0-6.4,0-12.8,0-19.2  c0-2.9,0-9.2,0-9.6c0-0.8,0.1-1.5,0.4-2.2c0.5-1.2,1.6-2.3,2.8-2.8c0.1,0,0.1,0,0.2-0.1c0-1.4,0-6.9,0-8.2c0.5,0,1,0,1.5,0  c0,0.6,0,1.3,0,1.9c2.9,0,5.8,0,8.7,0c0-0.6,0-1.3,0-1.9c0.5,0,1,0,1.5,0c0,2.7,0,5.5,0,8.2c0.1,0,0.1,0,0.2,0.1  c0.3,0.2,0.7,0.3,1,0.5c0.8,0.6,1.4,1.4,1.8,2.3c0.2,0.6,0.4,1.3,0.4,2c0,0.5,0,27.8,0,34c0,2.6,0,5.3,0,7.9c0,0.7-0.1,1.4-0.4,2.1  c-0.5,1.3-1.6,2.3-2.9,2.8c0,0-0.1,0.1-0.1,0.1c0,2.2,0,8,0,8h-1.5l0-1.9l-8.7,0l0,1.9H38 M39.5,79c2.9,0,8.7,0,8.7,0s0-1.8,0-2.7  c-0.2,0-0.4,0-0.5,0c-2.5,0-5,0-7.4,0c-0.2,0-0.5,0-0.7,0C39.5,77.2,39.5,79,39.5,79 M39.9,73.5c0.5,0.8,1.4,1.3,2.3,1.3  c1.2,0,2.3,0,3.5,0c1.2,0,2.2-1,2.4-2.1c0.1-0.6,0-1.4-0.4-1.9c-0.2-0.4-0.6-0.7-1-0.9c-0.4-0.2-0.8-0.3-1.2-0.3c-1.2,0-2.5,0-3.7,0  c-0.4,0-0.8,0.2-1.1,0.4c-0.5,0.3-0.9,0.8-1.1,1.3C39.4,71.9,39.5,72.8,39.9,73.5 M37.9,74.2c0.3,0.2,0.6,0.3,1,0.4  c-1-1.3-1.1-3.3-0.2-4.7c0.4-0.6,0.9-1,1.4-1.4c0.4-0.2,0.9-0.4,1.3-0.5c0.5-0.1,1-0.1,1.5-0.1c1,0,1.9,0,2.9,0  c1.4,0.1,2.7,0.8,3.4,2c0.8,1.3,0.8,3,0,4.3c-0.1,0.1-0.2,0.3-0.3,0.4c0.9-0.3,1.7-0.9,2.2-1.8c0.5-0.8,0.6-1.8,0.5-2.7  c0-1.4,0-2.8,0-4.2c-0.6,0.2-1.1,0.2-1.7,0.1c-0.4,0-0.8-0.1-1.1-0.3c-0.4-0.3-0.8-0.6-0.9-1.1c-0.2-0.4-0.2-0.9-0.2-1.4  c0-9,0-17.9,0-26.9c0-0.5,0.1-1,0.4-1.4c0.4-0.6,1.1-1,1.9-1c0.6,0,1.1-0.1,1.7,0.1c0-1.4,0-2.9,0-4.3c0.1-1-0.1-2-0.6-2.8  c-0.3-0.4-0.6-0.8-1.1-1.1c-0.1-0.1-0.2-0.1-0.3-0.2c-0.2-0.1-0.5-0.2-0.7-0.3c1,1.2,1.1,3,0.4,4.4c-0.6,1.2-1.8,2.1-3.1,2.2  c-0.3,0.1-0.6,0-0.9,0c-1.1,0-2.2,0-3.3,0c-1,0-1.9-0.5-2.6-1.2c-0.7-0.6-1.1-1.5-1.2-2.4c-0.2-1.1,0.1-2.2,0.8-3.1  c-0.8,0.3-1.6,0.8-2,1.5c-0.5,0.7-0.7,1.5-0.7,2.3c0,1.6,0,3.3,0,4.9c0.4-0.1,0.8-0.1,1.1-0.1c0.6,0,1.2,0,1.7,0.3  c0.5,0.3,0.9,0.8,1,1.3c0.1,0.5,0.1,1.1,0.1,1.6c0,8.8,0,17.6,0,26.4c0,0.3-0.1,0.7-0.2,1c-0.3,0.7-1,1.3-1.8,1.3  c-0.7,0.1-1.3,0.1-2-0.1c0,1.3,0,2.6,0,3.9c0,0.7-0.1,1.5,0.2,2.2C36.6,73,37.1,73.7,37.9,74.2 M36.6,64.6c0.3,0.1,0.7,0,1.1,0  c0.4,0,0.9-0.4,0.8-0.8c0-9.1,0-18.3,0-27.4c0-0.2-0.1-0.5-0.2-0.6c-0.2-0.2-0.5-0.2-0.8-0.2c-0.3,0-0.6,0-0.9,0.1  c-0.3,0.1-0.5,0.4-0.4,0.7c0,9.2,0,18.4,0,27.5C36.1,64.2,36.3,64.4,36.6,64.6 M49.7,64.6c0.4,0.1,0.7,0,1.1,0  c0.4,0,0.8-0.3,0.8-0.7c0-6.1,0-24.5,0-27.6c0-0.4-0.3-0.7-0.7-0.7c-0.3,0-0.7,0-1,0c-0.4,0-0.7,0.4-0.7,0.8c0,5.8,0,24.2,0,27.6  C49.2,64.2,49.4,64.5,49.7,64.6 M41.3,30.5c0.3,0.1,0.7,0.2,1.1,0.2c1,0,2,0,3,0c0.4,0,0.8,0,1.2-0.2c0.5-0.2,0.9-0.6,1.2-1  c0.4-0.6,0.5-1.4,0.3-2.1c-0.2-0.9-1-1.6-1.9-1.9c-0.3-0.1-0.6-0.1-0.9-0.1c-1,0-2,0-3,0c-0.5,0-1.1,0.1-1.5,0.4  c-0.5,0.3-0.9,0.8-1.2,1.3c-0.3,0.7-0.2,1.5,0.1,2.2C40.1,29.8,40.7,30.2,41.3,30.5 M48.2,23.8c0-1,0-2,0-3c-2.9,0-5.8,0-8.7,0  c0,1,0,2,0,3C41.6,23.8,47.4,23.8,48.2,23.8z M85.4,84.1H60.6l0-30.1l-2.1,0v-8.1l2.1,0l0-29.8l24.8,0  C85.4,16.1,85.4,61.4,85.4,84.1 M83.9,82.6v-65H62.1l0,28.3l3,0l0-3.8l12,8l-12,8V54l-3,0l0,28.6C62.1,82.6,76.6,82.6,83.9,82.6   M74.5,50l-7.9-5.2l0,2.6h-6.7v5.2h6.7l0,2.8L74.5,50z M14.6,16.1l1.5,0v1.9h8.7v-1.9h1.5v68h-1.5v-1.9h-8.7v1.9l-1.5,0  C14.6,84.1,14.6,16.3,14.6,16.1 M16.1,21c0,1.3,0,2.5,0,3.8c2.9,0,5.8,0,8.7,0c0-1.3,0-2.5,0-3.8C21.9,21,19,21,16.1,21 M16.1,27.8  c0,1.3,0,2.5,0,3.8c2.9,0,5.8,0,8.7,0c0-1.3,0-2.5,0-3.8C21.9,27.8,19,27.8,16.1,27.8 M16.1,34.6c0,1.3,0,2.5,0,3.8  c2.9,0,5.8,0,8.7,0c0-1.3,0-2.5,0-3.8C21.9,34.6,19,34.6,16.1,34.6 M16.1,41.4c0,1.3,0,2.5,0,3.8c2.9,0,5.8,0,8.7,0  c0-1.3,0-2.5,0-3.8C21.9,41.4,19,41.4,16.1,41.4 M16.1,48.2c0,1.2,0,2.5,0,3.7c2.9,0,5.8,0,8.7,0c0-1.2,0-2.5,0-3.7  C21.9,48.2,19,48.2,16.1,48.2 M16.1,55c0,1.2,0,2.5,0,3.7c2.9,0,5.8,0,8.7,0c0-1.2,0-2.5,0-3.7C21.9,55,19,55,16.1,55 M16.1,61.8  c0,1.3,0,2.5,0,3.8c2.9,0,5.8,0,8.7,0c0-1.3,0-2.5,0-3.8C21.9,61.8,19,61.8,16.1,61.8 M16.1,68.6c0,1.3,0,2.5,0,3.8  c2.9,0,5.8,0,8.7,0c0-1.3,0-2.5,0-3.8C21.9,68.6,19,68.6,16.1,68.6 M16.1,75.4c0,1.3,0,2.5,0,3.8c2.9,0,5.8,0,8.7,0  c0-1.3,0-2.5,0-3.8C21.9,75.4,19,75.4,16.1,75.4z"/></svg>