<?xml version="1.0" encoding="UTF-8" standalone="no"?>
<svg
   xmlns:dc="http://purl.org/dc/elements/1.1/"
   xmlns:cc="http://creativecommons.org/ns#"
   xmlns:rdf="http://www.w3.org/1999/02/22-rdf-syntax-ns#"
   xmlns:svg="http://www.w3.org/2000/svg"
   xmlns="http://www.w3.org/2000/svg"
   xmlns:sodipodi="http://sodipodi.sourceforge.net/DTD/sodipodi-0.dtd"
   xmlns:inkscape="http://www.inkscape.org/namespaces/inkscape"
   version="1.1"
   x="0px"
   y="0px"
   viewBox="0 0 512 512"
   xml:space="preserve"
   id="svg92"
   sodipodi:docname="1278_sherman_street.svg"
   width="512"
   height="512"
   inkscape:version="0.92+devel (unknown)"><metadata
     id="metadata98"><rdf:RDF><cc:Work
         rdf:about=""><dc:format>image/svg+xml</dc:format><dc:type
           rdf:resource="http://purl.org/dc/dcmitype/StillImage" /><dc:title></dc:title></cc:Work></rdf:RDF></metadata><defs
     id="defs96" /><sodipodi:namedview
     pagecolor="#ffffff"
     bordercolor="#666666"
     inkscape:document-rotation="0"
     borderopacity="1"
     objecttolerance="10"
     gridtolerance="10"
     guidetolerance="10"
     inkscape:pageopacity="0"
     inkscape:pageshadow="2"
     inkscape:window-width="3200"
     inkscape:window-height="1637"
     id="namedview94"
     showgrid="false"
     inkscape:zoom="1.6393092"
     inkscape:cx="168.10073"
     inkscape:cy="269.4033"
     inkscape:window-x="0"
     inkscape:window-y="0"
     inkscape:window-maximized="1"
     inkscape:current-layer="svg92" /><g
     id="g948"
     transform="matrix(7.4261663,0,0,7.4261663,33.215011,-3212.0197)"><g
       transform="translate(0,437)"
       id="g86"><path
         inkscape:connector-curvature="0"
         id="path2"
         d="M 59,6 H 21 C 20.448,6 20,5.552 20,5 V 1 c 0,-0.552 0.448,-1 1,-1 h 38 c 0.552,0 1,0.448 1,1 v 4 c 0,0.552 -0.448,1 -1,1 z M 22,4 H 58 V 2 H 22 Z" /><path
         inkscape:connector-curvature="0"
         id="path4"
         d="M 52,22 H 42 c -0.552,0 -1,-0.448 -1,-1 V 9 c 0,-0.552 0.448,-1 1,-1 h 10 c 0.552,0 1,0.448 1,1 v 12 c 0,0.552 -0.448,1 -1,1 z m -9,-2 h 8 V 10 h -8 z" /><path
         inkscape:connector-curvature="0"
         id="path6"
         d="M 38,22 H 28 c -0.552,0 -1,-0.448 -1,-1 V 9 c 0,-0.552 0.448,-1 1,-1 h 10 c 0.552,0 1,0.448 1,1 v 12 c 0,0.552 -0.448,1 -1,1 z m -9,-2 h 8 V 10 h -8 z" /><path
         inkscape:connector-curvature="0"
         id="path8"
         d="M 52,14 H 42 c -0.552,0 -1,-0.448 -1,-1 0,-0.552 0.448,-1 1,-1 h 10 c 0.552,0 1,0.448 1,1 0,0.552 -0.448,1 -1,1 z" /><path
         inkscape:connector-curvature="0"
         id="path10"
         d="m 47,17 c -0.552,0 -1,-0.448 -1,-1 v -3 c 0,-0.552 0.448,-1 1,-1 0.552,0 1,0.448 1,1 v 3 c 0,0.552 -0.448,1 -1,1 z" /><path
         inkscape:connector-curvature="0"
         id="path12"
         d="M 38,14 H 28 c -0.552,0 -1,-0.448 -1,-1 0,-0.552 0.448,-1 1,-1 h 10 c 0.552,0 1,0.448 1,1 0,0.552 -0.448,1 -1,1 z" /><path
         inkscape:connector-curvature="0"
         id="path14"
         d="m 33,17 c -0.552,0 -1,-0.448 -1,-1 v -3 c 0,-0.552 0.448,-1 1,-1 0.552,0 1,0.448 1,1 v 3 c 0,0.552 -0.448,1 -1,1 z" /><path
         inkscape:connector-curvature="0"
         id="path16"
         d="M 52,38 H 42 c -0.552,0 -1,-0.448 -1,-1 V 25 c 0,-0.552 0.448,-1 1,-1 h 10 c 0.552,0 1,0.448 1,1 v 12 c 0,0.552 -0.448,1 -1,1 z m -9,-2 h 8 V 26 h -8 z" /><path
         inkscape:connector-curvature="0"
         id="path18"
         d="M 38,38 H 28 c -0.552,0 -1,-0.448 -1,-1 V 25 c 0,-0.552 0.448,-1 1,-1 h 10 c 0.552,0 1,0.448 1,1 v 12 c 0,0.552 -0.448,1 -1,1 z m -9,-2 h 8 V 26 h -8 z" /><path
         inkscape:connector-curvature="0"
         id="path20"
         d="M 38,30 H 28 c -0.552,0 -1,-0.448 -1,-1 0,-0.552 0.448,-1 1,-1 h 10 c 0.552,0 1,0.448 1,1 0,0.552 -0.448,1 -1,1 z" /><path
         inkscape:connector-curvature="0"
         id="path22"
         d="m 33,33 c -0.552,0 -1,-0.448 -1,-1 v -3 c 0,-0.552 0.448,-1 1,-1 0.552,0 1,0.448 1,1 v 3 c 0,0.552 -0.448,1 -1,1 z" /><path
         inkscape:connector-curvature="0"
         id="path24"
         d="M 52,30 H 42 c -0.552,0 -1,-0.448 -1,-1 0,-0.552 0.448,-1 1,-1 h 10 c 0.552,0 1,0.448 1,1 0,0.552 -0.448,1 -1,1 z" /><path
         inkscape:connector-curvature="0"
         id="path26"
         d="m 47,33 c -0.552,0 -1,-0.448 -1,-1 v -3 c 0,-0.552 0.448,-1 1,-1 0.552,0 1,0.448 1,1 v 3 c 0,0.552 -0.448,1 -1,1 z" /><g
         id="g30"><path
           inkscape:connector-curvature="0"
           id="path28"
           d="M 57,60 H 23 c -0.552,0 -1,-0.448 -1,-1 V 5 c 0,-0.552 0.448,-1 1,-1 h 34 c 0.552,0 1,0.448 1,1 v 54 c 0,0.552 -0.448,1 -1,1 z M 24,58 H 56 V 6 H 24 Z" /></g><path
         inkscape:connector-curvature="0"
         id="path32"
         d="M 52,60 H 28 c -0.552,0 -1,-0.448 -1,-1 V 41 c 0,-0.552 0.448,-1 1,-1 h 24 c 0.552,0 1,0.448 1,1 v 18 c 0,0.552 -0.448,1 -1,1 z M 29,58 H 51 V 42 H 29 Z" /><path
         inkscape:connector-curvature="0"
         id="path34"
         d="m 30,46 h -2 c -0.552,0 -1,-0.448 -1,-1 0,-0.552 0.448,-1 1,-1 h 2 c 0.552,0 1,0.448 1,1 0,0.552 -0.448,1 -1,1 z" /><path
         inkscape:connector-curvature="0"
         id="path36"
         d="m 30,56 h -2 c -0.552,0 -1,-0.448 -1,-1 0,-0.552 0.448,-1 1,-1 h 2 c 0.552,0 1,0.448 1,1 0,0.552 -0.448,1 -1,1 z" /><path
         inkscape:connector-curvature="0"
         id="path38"
         d="m 52,46 h -2 c -0.552,0 -1,-0.448 -1,-1 0,-0.552 0.448,-1 1,-1 h 2 c 0.552,0 1,0.448 1,1 0,0.552 -0.448,1 -1,1 z" /><path
         inkscape:connector-curvature="0"
         id="path40"
         d="m 52,56 h -2 c -0.552,0 -1,-0.448 -1,-1 0,-0.552 0.448,-1 1,-1 h 2 c 0.552,0 1,0.448 1,1 0,0.552 -0.448,1 -1,1 z" /><path
         inkscape:connector-curvature="0"
         id="path42"
         d="m 40,60 c -0.552,0 -1,-0.448 -1,-1 V 41 c 0,-0.552 0.448,-1 1,-1 0.552,0 1,0.448 1,1 v 18 c 0,0.552 -0.448,1 -1,1 z" /><path
         inkscape:connector-curvature="0"
         id="path44"
         d="m 36,52 c -0.552,0 -1,-0.448 -1,-1 v -2 c 0,-0.552 0.448,-1 1,-1 0.552,0 1,0.448 1,1 v 2 c 0,0.552 -0.448,1 -1,1 z" /><path
         inkscape:connector-curvature="0"
         id="path46"
         d="m 44,52 c -0.552,0 -1,-0.448 -1,-1 v -2 c 0,-0.552 0.448,-1 1,-1 0.552,0 1,0.448 1,1 v 2 c 0,0.552 -0.448,1 -1,1 z" /><path
         inkscape:connector-curvature="0"
         id="path48"
         d="M 15,10 H 7 C 6.448,10 6,9.552 6,9 V 5 C 6,4.448 6.448,4 7,4 h 8 c 0.552,0 1,0.448 1,1 v 4 c 0,0.552 -0.448,1 -1,1 z M 8,8 h 6 V 6 H 8 Z" /><path
         inkscape:connector-curvature="0"
         id="path50"
         d="M 13,6 H 9 C 8.448,6 8,5.552 8,5 V 1 C 8,0.448 8.448,0 9,0 h 4 c 0.552,0 1,0.448 1,1 v 4 c 0,0.552 -0.448,1 -1,1 z M 10,4 h 2 V 2 h -2 z" /><path
         inkscape:connector-curvature="0"
         id="path52"
         d="M 23,16 H 13 c -0.552,0 -1,-0.448 -1,-1 0,-0.552 0.448,-1 1,-1 h 10 c 0.552,0 1,0.448 1,1 0,0.552 -0.448,1 -1,1 z" /><path
         inkscape:connector-curvature="0"
         id="path54"
         d="M 23,27 H 13 c -0.552,0 -1,-0.448 -1,-1 0,-0.552 0.448,-1 1,-1 h 10 c 0.552,0 1,0.448 1,1 0,0.552 -0.448,1 -1,1 z" /><path
         inkscape:connector-curvature="0"
         id="path56"
         d="M 1,46 C 0.783,46 0.569,45.929 0.393,45.795 0.146,45.605 0,45.312 0,45 v -5 c 0,-0.451 0.302,-0.846 0.737,-0.965 l 22,-6 c 0.301,-0.08 0.623,-0.018 0.87,0.17 C 23.854,33.395 24,33.688 24,34 v 5 c 0,0.451 -0.302,0.846 -0.737,0.965 l -22,6 C 1.176,45.988 1.088,46 1,46 Z m 1,-5.236 v 2.927 L 22,38.236 V 35.309 Z M 23,39 h 0.01 z" /><path
         inkscape:connector-curvature="0"
         id="path58"
         d="M 23,60 H 3 C 2.448,60 2,59.552 2,59 V 44.455 C 2,44.004 2.302,43.609 2.737,43.49 l 20,-5.455 c 0.301,-0.08 0.623,-0.018 0.87,0.17 C 23.854,38.395 24,38.688 24,39 v 20 c 0,0.552 -0.448,1 -1,1 z M 4,58 H 22 V 40.309 L 4,45.218 Z" /><path
         inkscape:connector-curvature="0"
         id="path60"
         d="M 9,38.818 C 8.783,38.818 8.569,38.747 8.393,38.613 8.146,38.424 8,38.13 8,37.818 V 9 C 8,8.448 8.448,8 9,8 h 4 c 0.552,0 1,0.448 1,1 v 27.728 c 0,0.451 -0.302,0.846 -0.737,0.965 l -4,1.091 C 9.176,38.807 9.088,38.818 9,38.818 Z m 4,-2.09 h 0.01 z M 10,10 v 26.509 l 2,-0.545 V 10 Z" /><path
         inkscape:connector-curvature="0"
         id="path62"
         d="M 10,60 H 3 C 2.448,60 2,59.552 2,59 v -4 c 0,-0.552 0.448,-1 1,-1 h 7 c 0.552,0 1,0.448 1,1 v 4 c 0,0.552 -0.448,1 -1,1 z M 4,58 H 9 V 56 H 4 Z" /><path
         inkscape:connector-curvature="0"
         id="path64"
         d="M 16,60 H 10 C 9.448,60 9,59.552 9,59 v -4 c 0,-0.552 0.448,-1 1,-1 h 6 c 0.552,0 1,0.448 1,1 v 4 c 0,0.552 -0.448,1 -1,1 z m -5,-2 h 4 v -2 h -4 z" /><path
         inkscape:connector-curvature="0"
         id="path66"
         d="m 23,60 h -7 c -0.552,0 -1,-0.448 -1,-1 v -4 c 0,-0.552 0.448,-1 1,-1 h 7 c 0.552,0 1,0.448 1,1 v 4 c 0,0.552 -0.448,1 -1,1 z m -6,-2 h 5 v -2 h -5 z" /><path
         inkscape:connector-curvature="0"
         id="path68"
         d="M 10,52 H 3 C 2.448,52 2,51.552 2,51 v -5 c 0,-0.552 0.448,-1 1,-1 h 7 c 0.552,0 1,0.448 1,1 v 5 c 0,0.552 -0.448,1 -1,1 z M 4,50 H 9 V 47 H 4 Z" /><path
         inkscape:connector-curvature="0"
         id="path70"
         d="M 16,52 H 10 C 9.448,52 9,51.552 9,51 v -5 c 0,-0.552 0.448,-1 1,-1 h 6 c 0.552,0 1,0.448 1,1 v 5 c 0,0.552 -0.448,1 -1,1 z m -5,-2 h 4 v -3 h -4 z" /><path
         inkscape:connector-curvature="0"
         id="path72"
         d="m 23,52 h -7 c -0.552,0 -1,-0.448 -1,-1 v -5 c 0,-0.552 0.448,-1 1,-1 h 7 c 0.552,0 1,0.448 1,1 v 5 c 0,0.552 -0.448,1 -1,1 z m -6,-2 h 5 v -3 h -5 z" /><path
         inkscape:connector-curvature="0"
         id="path74"
         d="m 18,56 h -5 c -0.552,0 -1,-0.448 -1,-1 v -4 c 0,-0.552 0.448,-1 1,-1 h 5 c 0.552,0 1,0.448 1,1 v 4 c 0,0.552 -0.448,1 -1,1 z m -4,-2 h 3 v -2 h -3 z" /><path
         inkscape:connector-curvature="0"
         id="path76"
         d="M 13,56 H 8 C 7.448,56 7,55.552 7,55 v -4 c 0,-0.552 0.448,-1 1,-1 h 5 c 0.552,0 1,0.448 1,1 v 4 c 0,0.552 -0.448,1 -1,1 z M 9,54 h 3 V 52 H 9 Z" /><path
         inkscape:connector-curvature="0"
         id="path78"
         d="M 8,56 H 3 C 2.448,56 2,55.552 2,55 v -4 c 0,-0.552 0.448,-1 1,-1 h 5 c 0.552,0 1,0.448 1,1 v 4 c 0,0.552 -0.448,1 -1,1 z M 4,54 H 7 V 52 H 4 Z" /><path
         inkscape:connector-curvature="0"
         id="path80"
         d="m 23,56 h -5 c -0.552,0 -1,-0.448 -1,-1 v -4 c 0,-0.552 0.448,-1 1,-1 h 5 c 0.552,0 1,0.448 1,1 v 4 c 0,0.552 -0.448,1 -1,1 z m -4,-2 h 3 v -2 h -3 z" /><path
         inkscape:connector-curvature="0"
         id="path82"
         d="m 23,47 h -5 c -0.552,0 -1,-0.448 -1,-1 v -5.636 c 0,-0.451 0.302,-0.846 0.737,-0.965 l 5,-1.364 c 0.301,-0.08 0.623,-0.018 0.87,0.17 C 23.854,38.395 24,38.688 24,39 v 7 c 0,0.552 -0.448,1 -1,1 z m -4,-2 h 3 v -4.691 l -3,0.818 z" /><path
         inkscape:connector-curvature="0"
         id="path84"
         d="m 18,47 h -5 c -0.552,0 -1,-0.448 -1,-1 v -4.272 c 0,-0.451 0.302,-0.846 0.737,-0.965 l 5,-1.364 c 0.302,-0.081 0.623,-0.019 0.87,0.17 C 18.854,39.758 19,40.052 19,40.364 V 46 c 0,0.552 -0.448,1 -1,1 z m -4,-2 h 3 v -3.327 l -3,0.818 z" /></g></g></svg>