<?xml version="1.0" encoding="UTF-8" standalone="no"?>
<svg
   xmlns:dc="http://purl.org/dc/elements/1.1/"
   xmlns:cc="http://creativecommons.org/ns#"
   xmlns:rdf="http://www.w3.org/1999/02/22-rdf-syntax-ns#"
   xmlns:svg="http://www.w3.org/2000/svg"
   xmlns="http://www.w3.org/2000/svg"
   xmlns:sodipodi="http://sodipodi.sourceforge.net/DTD/sodipodi-0.dtd"
   xmlns:inkscape="http://www.inkscape.org/namespaces/inkscape"
   version="1.1"
   x="0px"
   y="0px"
   viewBox="0 0 512 512"
   xml:space="preserve"
   id="svg30"
   sodipodi:docname="277_irving_place.svg"
   width="512"
   height="512"
   inkscape:version="0.92.2 (5c3e80d, 2017-08-06)"><metadata
     id="metadata36"><rdf:RDF><cc:Work
         rdf:about=""><dc:format>image/svg+xml</dc:format><dc:type
           rdf:resource="http://purl.org/dc/dcmitype/StillImage" /><dc:title></dc:title></cc:Work></rdf:RDF></metadata><defs
     id="defs34" /><sodipodi:namedview
     pagecolor="#ffffff"
     bordercolor="#666666"
     borderopacity="1"
     objecttolerance="10"
     gridtolerance="10"
     guidetolerance="10"
     inkscape:pageopacity="0"
     inkscape:pageshadow="2"
     inkscape:window-width="1808"
     inkscape:window-height="991"
     id="namedview32"
     showgrid="false"
     inkscape:zoom="0.6675088"
     inkscape:cx="256.82196"
     inkscape:cy="28.905964"
     inkscape:window-x="112"
     inkscape:window-y="0"
     inkscape:window-maximized="1"
     inkscape:current-layer="svg30" /><style
     type="text/css"
     id="style2">
	.st0{fill:none;stroke:#000000;stroke-width:2;stroke-linecap:round;stroke-linejoin:round;stroke-miterlimit:10;}
</style><g
     id="g49"
     transform="matrix(5.5317754,0,0,5.5317754,-21.982777,-2161.3858)"><path
       inkscape:connector-curvature="0"
       id="path4"
       d="M 89.251,469.964 H 84.939 V 423.55 h 1.828 c 0.553,0 1,-0.447 1,-1 v -5.011 c 0,-0.553 -0.447,-1 -1,-1 H 53.251 v -6.528 h 1.571 c 0.553,0 1,-0.447 1,-1 V 404 c 0,-0.553 -0.447,-1 -1,-1 h -5.023 v -5 c 0,-0.553 -0.447,-1 -1,-1 h -6.833 c -0.553,0 -1,0.447 -1,1 v 5 H 27.944 v -5 c 0,-0.553 -0.447,-1 -1,-1 h -6.833 c -0.553,0 -1,0.447 -1,1 v 5 h -5.023 c -0.553,0 -1,0.447 -1,1 v 5.011 c 0,0.553 0.447,1 1,1 h 1.476 v 59.953 h -4.312 c -0.553,0 -1,0.447 -1,1 V 476 c 0,0.553 0.447,1 1,1 h 78 c 0.553,0 1,-0.447 1,-1 v -5.036 c -10e-4,-0.553 -0.448,-1 -1.001,-1 z m -6.313,0 H 53.251 V 423.55 h 29.688 v 46.414 z m 2.829,-51.425 v 3.011 H 53.251 v -3.011 z M 42.966,399 h 4.833 v 4 h -4.833 z m -21.855,0 h 4.833 v 4 h -4.833 z m -6.023,6 h 38.734 v 3.011 H 15.088 Z m 2.475,5.011 h 33.688 v 59.953 H 17.563 Z M 88.251,475 h -76 v -3.036 h 76 z" /><path
       inkscape:connector-curvature="0"
       id="path6"
       d="m 71.804,462.75 h 6.353 c 0.553,0 1,-0.447 1,-1 v -10.532 c 0,-0.553 -0.447,-1 -1,-1 h -6.353 c -0.553,0 -1,0.447 -1,1 v 10.532 c 0,0.553 0.447,1 1,1 z m 1,-10.532 h 4.353 v 8.532 h -4.353 z" /><path
       inkscape:connector-curvature="0"
       id="path8"
       d="m 58.314,462.75 h 6.353 c 0.553,0 1,-0.447 1,-1 v -10.532 c 0,-0.553 -0.447,-1 -1,-1 h -6.353 c -0.553,0 -1,0.447 -1,1 v 10.532 c 0,0.553 0.448,1 1,1 z m 1,-10.532 h 4.353 v 8.532 h -4.353 z" /><path
       inkscape:connector-curvature="0"
       id="path10"
       d="m 71.804,445.444 h 6.353 c 0.553,0 1,-0.447 1,-1 v -10.532 c 0,-0.553 -0.447,-1 -1,-1 h -6.353 c -0.553,0 -1,0.447 -1,1 v 10.532 c 0,0.553 0.447,1 1,1 z m 1,-10.532 h 4.353 v 8.532 h -4.353 z" /><path
       inkscape:connector-curvature="0"
       id="path12"
       d="m 58.314,445.444 h 6.353 c 0.553,0 1,-0.447 1,-1 v -10.532 c 0,-0.553 -0.447,-1 -1,-1 h -6.353 c -0.553,0 -1,0.447 -1,1 v 10.532 c 0,0.553 0.448,1 1,1 z m 1,-10.532 h 4.353 v 8.532 h -4.353 z" /><path
       inkscape:connector-curvature="0"
       id="path14"
       d="m 44.938,432.866 h -6.353 c -0.553,0 -1,0.447 -1,1 v 10.532 c 0,0.553 0.447,1 1,1 h 6.353 c 0.553,0 1,-0.447 1,-1 v -10.532 c 0,-0.553 -0.447,-1 -1,-1 z m -1,10.532 h -4.353 v -8.532 h 4.353 z" /><path
       inkscape:connector-curvature="0"
       id="path16"
       d="m 44.938,415.561 h -6.353 c -0.553,0 -1,0.447 -1,1 v 10.532 c 0,0.553 0.447,1 1,1 h 6.353 c 0.553,0 1,-0.447 1,-1 v -10.532 c 0,-0.553 -0.447,-1 -1,-1 z m -1,10.532 h -4.353 v -8.532 h 4.353 z" /><path
       inkscape:connector-curvature="0"
       id="path18"
       d="m 30.324,432.866 h -6.353 c -0.553,0 -1,0.447 -1,1 v 10.532 c 0,0.553 0.447,1 1,1 h 6.353 c 0.553,0 1,-0.447 1,-1 v -10.532 c 0,-0.553 -0.447,-1 -1,-1 z m -1,10.532 h -4.353 v -8.532 h 4.353 z" /><path
       inkscape:connector-curvature="0"
       id="path20"
       d="m 30.324,415.561 h -6.353 c -0.553,0 -1,0.447 -1,1 v 10.532 c 0,0.553 0.447,1 1,1 h 6.353 c 0.553,0 1,-0.447 1,-1 v -10.532 c 0,-0.553 -0.447,-1 -1,-1 z m -1,10.532 h -4.353 v -8.532 h 4.353 z" /><path
       inkscape:connector-curvature="0"
       id="path22"
       d="m 44.938,450.218 h -6.353 c -0.553,0 -1,0.447 -1,1 v 10.532 c 0,0.553 0.447,1 1,1 h 6.353 c 0.553,0 1,-0.447 1,-1 v -10.532 c 0,-0.553 -0.447,-1 -1,-1 z m -1,10.532 h -4.353 v -8.532 h 4.353 z" /><path
       inkscape:connector-curvature="0"
       id="path24"
       d="m 30.324,450.218 h -6.353 c -0.553,0 -1,0.447 -1,1 v 10.532 c 0,0.553 0.447,1 1,1 h 6.353 c 0.553,0 1,-0.447 1,-1 v -10.532 c 0,-0.553 -0.447,-1 -1,-1 z m -1,10.532 h -4.353 v -8.532 h 4.353 z" /></g></svg>