<?xml version="1.0" encoding="UTF-8" standalone="no"?>
<svg
   xmlns:dc="http://purl.org/dc/elements/1.1/"
   xmlns:cc="http://creativecommons.org/ns#"
   xmlns:rdf="http://www.w3.org/1999/02/22-rdf-syntax-ns#"
   xmlns:svg="http://www.w3.org/2000/svg"
   xmlns="http://www.w3.org/2000/svg"
   xmlns:sodipodi="http://sodipodi.sourceforge.net/DTD/sodipodi-0.dtd"
   xmlns:inkscape="http://www.inkscape.org/namespaces/inkscape"
   version="1.1"
   x="0px"
   y="0px"
   viewBox="0 0 512 512"
   enable-background="new 0 0 100 100"
   xml:space="preserve"
   id="svg4"
   sodipodi:docname="2796_charla_lane.svg"
   width="512"
   height="512"
   inkscape:version="0.92.2 (5c3e80d, 2017-08-06)"><metadata
     id="metadata10"><rdf:RDF><cc:Work
         rdf:about=""><dc:format>image/svg+xml</dc:format><dc:type
           rdf:resource="http://purl.org/dc/dcmitype/StillImage" /><dc:title></dc:title></cc:Work></rdf:RDF></metadata><defs
     id="defs8" /><sodipodi:namedview
     pagecolor="#ffffff"
     bordercolor="#666666"
     borderopacity="1"
     objecttolerance="10"
     gridtolerance="10"
     guidetolerance="10"
     inkscape:pageopacity="0"
     inkscape:pageshadow="2"
     inkscape:window-width="1808"
     inkscape:window-height="991"
     id="namedview6"
     showgrid="false"
     inkscape:zoom="0.59"
     inkscape:cx="117.31302"
     inkscape:cy="37.521522"
     inkscape:window-x="112"
     inkscape:window-y="0"
     inkscape:window-maximized="1"
     inkscape:current-layer="svg4" /><path
     d="M 483.7104,261.92891 388.63015,132.89146 c -0.0951,-0.12895 -0.2241,-0.21056 -0.31919,-0.33276 -0.51615,-0.63841 -1.07984,-1.22926 -1.69786,-1.75902 -0.0475,-0.0406 -0.0951,-0.0748 -0.14262,-0.11542 -2.23439,-1.87441 -5.08001,-3.04253 -8.22444,-3.04253 H 255.32084 V 79.422485 c 0,-7.12423 -5.77952,-12.90376 -12.90375,-12.90376 h -47.54013 c -7.13101,0 -12.90374,5.77953 -12.90374,12.90376 v 48.219245 h -48.21928 c -4.10203,0 -7.95957,1.94916 -10.38412,5.24982 L 28.289567,261.929 c -0.03382,0.0473 -0.04752,0.1019 -0.08148,0.14924 -0.699518,0.97118 -1.236043,2.04426 -1.643533,3.18524 -0.08148,0.23086 -0.142617,0.45499 -0.210521,0.6859 -0.346375,1.16136 -0.584063,2.36344 -0.584063,3.63342 v 162.99475 c 0,7.12423 5.77952,12.90372 12.903749,12.90372 H 276.37435 c 1.18172,0 2.3091,-0.21057 3.39573,-0.50933 1.0866,0.29894 2.21398,0.50933 3.39569,0.50933 h 190.16051 c 7.13102,9e-5 12.90375,-5.77944 12.90375,-12.90367 V 269.58289 c 0,-2.75734 -0.8761,-5.43997 -2.51963,-7.65398 z M 262.51977,153.44916 h 29.06739 l -76.0642,103.22997 H 186.45557 Z M 207.78071,92.326155 h 21.73263 v 35.315485 h -21.73263 z m -6.38396,61.123005 h 29.06739 l -76.0642,103.22997 h -29.06739 z m -61.12302,0 h 29.06739 L 93.276922,256.67913 h -29.0606 z M 270.26202,419.67388 H 51.57744 V 282.48665 h 218.68458 z m 6.36359,-162.96756 c -0.0883,0 -0.163,-0.0271 -0.25129,-0.0271 h -28.79573 l 76.0642,-103.2301 h 29.0674 z M 460.42253,419.67388 H 397.8801 c 0.0135,-0.23086 0.0679,-0.44819 0.0679,-0.67918 v -74.7059 c 0,-7.12423 -5.77952,-12.90377 -12.90375,-12.90377 h -13.58289 c -7.13102,0 -12.90375,5.77954 -12.90375,12.90377 v 74.7059 c 0,0.23086 0.0543,0.44819 0.0679,0.67918 H 296.06952 V 273.82754 l 82.1765,-111.52913 82.17651,111.52232 z M 86.213817,391.14978 h 54.331573 c 7.13102,0 12.90375,-5.77954 12.90375,-12.90372 v -54.33159 c 0,-7.12423 -5.77952,-12.90376 -12.90375,-12.90376 H 86.213817 c -7.131019,0 -12.903749,5.77953 -12.903749,12.90376 v 54.33159 c 0,7.12418 5.77273,12.90372 12.903749,12.90372 z m 95.080253,0 h 54.33157 c 7.13102,0 12.90375,-5.77954 12.90375,-12.90372 v -54.33159 c 0,-7.12423 -5.77952,-12.90376 -12.90375,-12.90376 h -54.33157 c -7.13102,0 -12.90375,5.77953 -12.90375,12.90376 v 54.33159 c 0,7.12418 5.77273,12.90372 12.90375,12.90372 z"
     id="path2"
     inkscape:connector-curvature="0"
     style="stroke-width:6.79144621" /></svg>