<?xml version="1.0" encoding="UTF-8" standalone="no"?>
<svg
   xmlns:dc="http://purl.org/dc/elements/1.1/"
   xmlns:cc="http://creativecommons.org/ns#"
   xmlns:rdf="http://www.w3.org/1999/02/22-rdf-syntax-ns#"
   xmlns:svg="http://www.w3.org/2000/svg"
   xmlns="http://www.w3.org/2000/svg"
   xmlns:sodipodi="http://sodipodi.sourceforge.net/DTD/sodipodi-0.dtd"
   xmlns:inkscape="http://www.inkscape.org/namespaces/inkscape"
   version="1.1"
   x="0px"
   y="0px"
   viewBox="0 0 128 128"
   enable-background="new 0 0 100 100"
   xml:space="preserve"
   id="svg14"
   sodipodi:docname="cheap_house.svg"
   width="128"
   height="128"
   inkscape:version="0.92.2 (5c3e80d, 2017-08-06)"><metadata
     id="metadata20"><rdf:RDF><cc:Work
         rdf:about=""><dc:format>image/svg+xml</dc:format><dc:type
           rdf:resource="http://purl.org/dc/dcmitype/StillImage" /><dc:title></dc:title></cc:Work></rdf:RDF></metadata><defs
     id="defs18" /><sodipodi:namedview
     pagecolor="#ffffff"
     bordercolor="#666666"
     borderopacity="1"
     objecttolerance="10"
     gridtolerance="10"
     guidetolerance="10"
     inkscape:pageopacity="0"
     inkscape:pageshadow="2"
     inkscape:window-width="1808"
     inkscape:window-height="991"
     id="namedview16"
     showgrid="false"
     inkscape:zoom="1.888"
     inkscape:cx="50"
     inkscape:cy="62.5"
     inkscape:window-x="112"
     inkscape:window-y="0"
     inkscape:window-maximized="1"
     inkscape:current-layer="svg14" /><path
     d="M 67.779,88.551"
     id="path2"
     inkscape:connector-curvature="0" /><path
     d="M 67.774,88.546"
     id="path4"
     inkscape:connector-curvature="0" /><path
     d="M 67.775,88.548"
     id="path6"
     inkscape:connector-curvature="0" /><path
     d="m 115.69793,109.09702 h -4.86177 V 53.59264 h 3.81417 c 1.71582,0 3.11939,-0.780631 3.11939,-1.734562 0,-0.95393 0,-1.736121 0,-1.736121 h 0.008 L 86.555437,11.961623 55.33335,50.121957 c 0,0 0,0.782191 0,1.736121 0,0.953931 1.405135,1.734562 3.119399,1.734562 h 3.814159 v 55.50438 H 37.965886 V 96.377427 H 58.78998 L 47.516117,81.345609 h 7.795375 L 44.90569,67.469124 h 5.198997 L 39.695762,53.59264 h 5.202121 L 34.49208,39.716154 24.086278,53.59264 h 5.205243 L 18.885719,67.469124 h 5.206804 L 13.686719,81.345609 h 7.807866 L 10.222282,96.377427 H 31.018276 V 109.09702 H 15.772565 c -1.142844,0 -2.0796,0.93988 -2.0796,2.0796 v 2.77436 c 0,1.14753 0.936756,2.0874 2.0796,2.0874 h 99.920685 c 1.14284,0 2.0796,-0.93987 2.0796,-2.0874 v -2.77436 c 0.005,-1.13972 -0.93052,-2.0796 -2.07492,-2.0796 z M 79.614076,74.405806 v 6.939803 H 69.209835 V 74.405806 Z M 69.209835,63.99688 v -6.938242 h 10.404241 v 6.938242 z m 13.874923,45.10014 V 91.751412 h 6.933555 V 109.09702 Z M 103.89636,74.405806 v 6.939803 H 93.490557 V 74.405806 Z M 93.490557,63.99688 v -6.938242 h 10.405803 v 6.938242 z"
     id="path8"
     inkscape:connector-curvature="0"
     style="stroke-width:1.5612607" /></svg>