<?xml version="1.0" encoding="UTF-8" standalone="no"?>
<!-- Created with Inkscape (http://www.inkscape.org/) -->

<svg
   xmlns:dc="http://purl.org/dc/elements/1.1/"
   xmlns:cc="http://creativecommons.org/ns#"
   xmlns:rdf="http://www.w3.org/1999/02/22-rdf-syntax-ns#"
   xmlns:svg="http://www.w3.org/2000/svg"
   xmlns="http://www.w3.org/2000/svg"
   xmlns:sodipodi="http://sodipodi.sourceforge.net/DTD/sodipodi-0.dtd"
   xmlns:inkscape="http://www.inkscape.org/namespaces/inkscape"
   width="64"
   height="64"
   viewBox="0 0 16.933333 16.933334"
   version="1.1"
   id="svg31"
   inkscape:version="0.92.2 (5c3e80d, 2017-08-06)"
   sodipodi:docname="slum2.svg"
   inkscape:export-filename="/data/home/josh/kotcity4/src/main/resources/assets/residential/slum2.png"
   inkscape:export-xdpi="96"
   inkscape:export-ydpi="96">
  <defs
     id="defs25" />
  <sodipodi:namedview
     id="base"
     pagecolor="#ffffff"
     bordercolor="#666666"
     borderopacity="1.0"
     inkscape:pageopacity="0.0"
     inkscape:pageshadow="2"
     inkscape:zoom="3.959798"
     inkscape:cx="5.2541684"
     inkscape:cy="27.249073"
     inkscape:document-units="mm"
     inkscape:current-layer="layer1"
     showgrid="false"
     units="px"
     inkscape:window-width="1808"
     inkscape:window-height="991"
     inkscape:window-x="112"
     inkscape:window-y="0"
     inkscape:window-maximized="1" />
  <metadata
     id="metadata28">
    <rdf:RDF>
      <cc:Work
         rdf:about="">
        <dc:format>image/svg+xml</dc:format>
        <dc:type
           rdf:resource="http://purl.org/dc/dcmitype/StillImage" />
        <dc:title></dc:title>
      </cc:Work>
    </rdf:RDF>
  </metadata>
  <g
     inkscape:label="Layer 1"
     inkscape:groupmode="layer"
     id="layer1"
     transform="translate(0,-280.06665)">
    <path
       inkscape:connector-curvature="0"
       d="m 15.442458,290.78928 c -0.0054,-0.001 -0.430591,-0.12545 -0.729173,0.18267 0.130816,-0.20115 0.308118,-0.55397 0.237793,-0.91453 l -0.05423,0.006 c 0,0.005 -0.0051,0.41509 -0.425824,0.92613 h -0.0155 c 0.05006,-0.15316 0.177601,-0.50509 0.368312,-0.76791 l -0.04083,-0.036 c -0.0069,0.007 -0.160018,0.15257 -0.448171,0.65826 0.123366,-0.51135 0.401685,-0.83913 0.404963,-0.8427 l 0.01937,-0.0226 -0.04351,-0.031 -0.01669,0.014 c -0.268486,0.23392 -0.415692,0.49347 -0.494659,0.68865 -0.0027,-0.11801 -0.03993,-0.20979 -0.08642,-0.27921 l 0.227967,-3.51953 h 0.435061 v -0.26282 h -1.680944 l 0.03755,-0.55813 0.03099,-0.007 0.03695,-0.45324 h -1.219671 l 0.0042,0.0301 c -0.140049,0.001 -2.2140379,0.0116 -3.310927,-0.42017 l 0.00417,-0.0697 -0.2476217,-0.0331 -0.0045,0.0864 c 0,0 -0.7270886,0.0697 -1.7155098,-0.0366 l 0.018471,-0.16061 H 6.4739088 l -0.064658,1.33021 -2.7098923,-0.0447 c 0.035162,-0.0476 0.056617,-0.10575 0.056617,-0.16956 0,-0.15853 -0.1284318,-0.28695 -0.2875573,-0.28695 H 2.9660113 c -0.1585286,0 -0.2869604,0.12842 -0.2869604,0.28695 0,0.0566 0.016984,0.1088 0.044994,0.15347 l -0.5325031,-0.009 0.00957,0.15376 H 1.8357829 l -0.00214,0.30603 0.39364,-0.008 0.246733,4.12891 v 0.0217 c -0.047978,-0.0396 -0.099234,-0.0769 -0.1564428,-0.10643 l -0.0298,0.0456 c 0.00146,0.001 0.087014,0.0697 0.1883269,0.2235 l 0.0036,0.22646 c -0.044104,-0.0947 -0.083737,-0.19458 -0.1123434,-0.2947 l -0.053936,0.0101 c 0.00124,0.008 0.016691,0.17224 0.1695546,0.57869 l 0.00124,0.0864 c -0.2678873,-0.38095 -0.3414899,-0.74033 -0.3423842,-0.7454 l -0.00563,-0.0292 -0.051256,0.0152 0.00124,0.0214 c 0.017581,0.35519 0.1305177,0.63143 0.2354098,0.81439 -0.2631222,-0.19727 -0.5316088,-0.0602 -0.5351847,-0.0587 l -0.025037,0.0134 0.026523,0.0456 0.01847,-0.002 c 0.3408965,-0.0474 0.5009163,0.23332 0.5396547,0.31468 0.070627,0.0181 0.1361794,0.0212 0.1966713,0.0152 l 0.00214,0.005 h 6.9648456 4.4125893 0.09058 0.768806 l 0.254779,-1.01822 h -0.08761 c 0.106679,-0.0924 0.265507,-0.17224 0.480057,-0.14066 l 0.02116,0.003 0.02086,-0.053 z M 3.6195333,289.07317 3.5080909,287.75994 h 0.8546262 l 0.1114424,1.31352 H 3.6195333 Z m 4.7308387,-2.45869 -0.00507,0.007 -0.061685,3e-4 v 0.27921 l 0.044994,0.001 0.00563,0.007 -0.012513,0.22737 -0.00957,1.37908 -0.014011,2.91968 -0.788771,-0.0974 v -0.29203 l -0.3972169,-0.0167 v -0.24644 l -0.395726,-0.082 v -3.96978 l 0.379635,-0.0113 0.00957,-0.2956 H 6.7161695 v -1.15291 c 0,0 0.087611,0.0125 0.2869605,0.0248 h -5.958e-4 v 0.70354 l 0.1680645,0.0462 v -0.31497 c 0,0 0.203823,-0.0744 0.231834,0.009 0.027717,0.0837 0,0.30603 0,0.30603 H 7.532653 l 0.053632,-0.72917 c 0.064962,8.9e-4 0.1320077,10e-4 0.2044188,0.002 -0.0036,0.0626 -0.013414,0.24971 0.00146,0.31915 0.019079,0.0834 0.1019143,-0.0632 0.092972,-0.17045 -0.00597,-0.0724 -0.0036,-0.12218 -0.00146,-0.1487 0.1632971,0 0.342685,-0.002 0.5456137,-0.007 z m 0.2044188,4.81726 -0.024135,-3.00401 0.028911,-1.29177 0.013999,-0.21872 -0.0027,-0.008 0.01311,8.9e-4 0.2276612,0.007 0.1913081,4.50974 z m 1.5242032,-4.82173 c 0.05066,-0.0417 0.08165,-0.10643 0.07688,-0.1767 -0.0074,-0.11652 -0.108165,-0.20502 -0.2249789,-0.19727 l -0.3692062,0.0241 c -0.1165128,0.008 -0.2050146,0.10789 -0.1972671,0.22469 0.00327,0.05 0.024732,0.0947 0.05602,0.12902 l -0.8194636,0.006 -0.00687,-0.003 0.043507,-0.70622 0.033078,-0.5781 c 0.3775492,0.0873 2.0298858,0.44221 3.3270228,0.33494 l 0.04083,0.3394 0.0432,0.008 0.06377,0.58284 z m 2.280194,2.47836 -0.05662,-1.41067 0.963987,0.0492 0.02354,1.38534 z"
       id="path2"
       style="stroke-width:0.29798681" />
  </g>
</svg>
