<?xml version="1.0" encoding="UTF-8" standalone="no"?>
<svg
   xmlns:dc="http://purl.org/dc/elements/1.1/"
   xmlns:cc="http://creativecommons.org/ns#"
   xmlns:rdf="http://www.w3.org/1999/02/22-rdf-syntax-ns#"
   xmlns:svg="http://www.w3.org/2000/svg"
   xmlns="http://www.w3.org/2000/svg"
   xmlns:sodipodi="http://sodipodi.sourceforge.net/DTD/sodipodi-0.dtd"
   xmlns:inkscape="http://www.inkscape.org/namespaces/inkscape"
   version="1.0"
   x="0px"
   y="0px"
   viewBox="0 0 256 256"
   enable-background="new 0 0 100 100"
   xml:space="preserve"
   id="svg26"
   sodipodi:docname="no_customers.svg"
   width="256"
   height="256"
   inkscape:version="0.92+devel (unknown)"><metadata
     id="metadata32"><rdf:RDF><cc:Work
         rdf:about=""><dc:format>image/svg+xml</dc:format><dc:type
           rdf:resource="http://purl.org/dc/dcmitype/StillImage" /><dc:title></dc:title></cc:Work></rdf:RDF></metadata><defs
     id="defs30" /><sodipodi:namedview
     pagecolor="#ffffff"
     bordercolor="#666666"
     inkscape:document-rotation="0"
     borderopacity="1"
     objecttolerance="10"
     gridtolerance="10"
     guidetolerance="10"
     inkscape:pageopacity="0"
     inkscape:pageshadow="2"
     inkscape:window-width="3200"
     inkscape:window-height="1637"
     id="namedview28"
     showgrid="false"
     inkscape:zoom="2.782"
     inkscape:cx="-12.493893"
     inkscape:cy="68.971742"
     inkscape:window-x="0"
     inkscape:window-y="0"
     inkscape:window-maximized="1"
     inkscape:current-layer="svg26" /><g
     id="g849"
     transform="matrix(2.4282079,0,0,2.4282079,5.0922436,-313.44772)"><path
       inkscape:connector-curvature="0"
       id="path2"
       d="m 38.302891,209.29509 c 0,0.52867 0.373901,0.83571 1.079109,1.07943 v -2.32176 c -0.705208,0.16288 -1.079109,0.59096 -1.079109,1.24233 z" /><path
       inkscape:connector-curvature="0"
       id="path4"
       d="m 40.791924,214.01904 v 2.9723 c 0.704803,-0.20226 1.323875,-0.85426 1.323875,-1.64832 0,-0.67199 -0.619072,-1.05882 -1.323875,-1.32398 z" /><path
       inkscape:connector-curvature="0"
       id="path6"
       d="m 12.833894,209.29509 c 0,0.52867 0.373793,0.83571 1.079022,1.07943 v -2.32176 c -0.732297,0.05 -1.079022,0.59096 -1.079022,1.24233 z" /><path
       inkscape:connector-curvature="0"
       id="path8"
       d="m 15.322925,214.01904 v 2.9723 c 0.705014,-0.20226 1.323897,-0.85426 1.323897,-1.64832 0,-0.67199 -0.618883,-1.05882 -1.323897,-1.32398 z" /><path
       inkscape:connector-curvature="0"
       id="path10"
       d="m 66.942902,214.01904 v 2.9723 c 0.705742,-0.20226 1.324409,-0.85426 1.324409,-1.64832 0,-0.67199 -0.618667,-1.05882 -1.324409,-1.32398 z" /><path
       inkscape:connector-curvature="0"
       id="path12"
       d="m 64.454086,209.29509 c 0,0.52867 0.374108,0.83571 1.079422,1.07943 v -2.32176 c -0.705314,0.16288 -1.079422,0.59096 -1.079422,1.24233 z" /><path
       inkscape:connector-curvature="0"
       id="path14"
       d="M 20.908335,155.07795 H 8.2021065 c -1.3962502,0 -2.2740636,0.79354 -2.2740636,2.19679 v 65.42334 c 0,1.39836 0.8784318,2.88482 2.2740636,2.88482 H 20.908335 c 1.393453,0 2.645895,-1.48729 2.645895,-2.88482 v -65.42334 c 0,-1.40397 -1.252442,-2.19679 -2.645895,-2.19679 z m -5.58541,64.88779 v 0.0608 0.59056 c 0,0.46848 -0.15569,0.95695 -0.7051,0.95695 -0.549409,0 -0.704909,-0.48847 -0.704909,-0.95695 v -0.63138 c -1.410222,-0.0404 -4.3247336,-0.48951 -4.3247336,-2.24032 0,-0.79324 0.4715956,-1.44544 1.3075376,-1.44544 0.875808,0 2.311967,0.6522 3.017196,0.77385 v -3.40038 c -1.410222,-0.57074 -4.3771208,-1.09943 -4.3771208,-4.01196 0,-2.60674 2.2618838,-4.31712 4.3771208,-4.58125 v -0.0414 -0.59034 c 0,-0.55014 0.1555,-0.95695 0.704909,-0.95695 0.54941,0 0.7051,0.40681 0.7051,0.95695 v 0.63179 c 1.410029,0.0398 3.523179,0.52931 3.523179,1.99493 0,0.79385 -0.508778,1.50668 -1.344803,1.50668 -0.711907,0 -1.473362,-0.4466 -2.178376,-0.5493 v 2.70839 c 2.115153,0.57012 4.623446,1.28337 4.623446,4.5621 0,2.70797 -1.803387,4.45836 -4.623446,4.66271 z" /><path
       inkscape:connector-curvature="0"
       id="path16"
       d="M 72.455078,193.15037 H 59.748043 c -1.392326,0 -2.351768,1.35252 -2.351768,2.75442 v 26.79328 c 0,1.39836 0.959442,2.88482 2.351768,2.88482 h 12.707035 c 1.395226,0 2.568001,-1.48729 2.568001,-2.88482 v -26.79328 c 0,-1.40335 -1.172775,-2.75442 -2.568001,-2.75442 z m -5.512176,26.81537 v 0.0608 0.59056 c 0,0.46848 -0.155396,0.95695 -0.704911,0.95695 -0.549087,0 -0.704483,-0.48847 -0.704483,-0.95695 v -0.63138 c -1.410644,-0.0404 -4.369419,-0.48951 -4.369419,-2.24032 0,-0.79324 0.494099,-1.44544 1.329827,-1.44544 0.876129,0 2.334278,0.6522 3.039592,0.77385 v -3.40038 c -1.410644,-0.57074 -4.37733,-1.09943 -4.37733,-4.01196 0,-2.60674 2.261776,-4.31712 4.37733,-4.58125 v -0.0414 -0.59034 c 0,-0.55014 0.155396,-0.95695 0.704483,-0.95695 0.549515,0 0.704911,0.40681 0.704911,0.95695 v 0.63179 c 1.410644,0.0398 3.47953,0.52931 3.47953,1.99493 0,0.79385 -0.487015,1.50668 -1.322724,1.50668 -0.711586,0 -1.451065,-0.4466 -2.156806,-0.5493 v 2.70839 c 2.115554,0.57012 4.623977,1.28337 4.623977,4.5621 0,2.70797 -2.508423,4.45836 -4.623977,4.66271 z" /><path
       inkscape:connector-curvature="0"
       id="path18"
       d="M 46.679371,174.11426 H 33.977837 c -1.399086,0 -2.66808,1.45836 -2.66808,2.85327 v 45.73054 c 0,1.39692 1.268994,2.88482 2.66808,2.88482 h 12.701938 c 1.398148,0 2.255959,-1.48729 2.255959,-2.88482 v -45.73054 c 0,-1.39491 -0.857811,-2.85327 -2.256363,-2.85327 z m -5.887447,45.85148 v 0.0608 0.59056 c 0,0.46848 -0.155713,0.95695 -0.705018,0.95695 -0.549491,0 -0.704906,-0.48847 -0.704906,-0.95695 v -0.63138 c -1.410221,-0.0404 -4.481064,-0.48951 -4.481064,-2.24032 0,-0.79324 0.549301,-1.44544 1.385243,-1.44544 0.875808,0 1.6856,0.6522 3.095821,0.77385 v -3.40038 c -2.115238,-0.57074 -4.377121,-1.09943 -4.377121,-4.01196 0,-2.60674 2.261883,-4.31712 4.377121,-4.58125 v -0.0414 -0.59034 c 0,-0.55014 0.155415,-0.95695 0.704906,-0.95695 0.549305,0 0.705018,0.40681 0.705018,0.95695 v 0.63179 c 0.704803,0.0398 3.366119,0.52931 3.366119,1.99493 0,0.79385 -0.430359,1.50668 -1.26609,1.50668 -0.711991,0 -1.395226,-0.4466 -2.100029,-0.5493 v 2.70839 c 1.410114,0.57012 4.623443,1.28337 4.623443,4.5621 0,2.70797 -2.508419,4.45836 -4.623443,4.66271 z" /><path
       inkscape:connector-curvature="0"
       id="path20"
       d="M 94.962913,183.21514 81.56179,175.37826 c -0.30622,-0.17903 -0.685333,-0.18122 -0.993621,-0.005 -0.305794,0.1729 -0.499512,0.50222 -0.501183,0.85708 l -0.01708,3.09072 h -9.826187 c -1.70311,0 -2.985024,-0.33214 -3.517433,-0.91132 -0.379542,-0.41266 -0.469126,-1.09424 -0.464945,-1.45014 l 0.0067,-0.0362 c 0.01167,-0.0681 0.0175,-0.13707 0.0175,-0.20633 v -5.68184 -0.10041 c 0,-4.6423 -1.901825,-7.5144 -3.497029,-9.10638 -3.633667,-3.62525 -8.635517,-3.72991 -9.203354,-3.72991 h -9.0867 c -2.129291,0 -3.539001,-0.4915 -4.189945,-1.46095 -0.450371,-0.67065 -0.510567,-1.44793 -0.516922,-1.55751 V 150.853 c 0,-4.6423 -1.901825,-7.51451 -3.497238,-9.10638 -3.633637,-3.62525 -8.635359,-3.72991 -9.202984,-3.72991 H 6.976757 c -0.6615663,0 -1.1979637,0.53627 -1.1979637,1.19796 v 6.84617 c 0,0.31776 0.1261272,0.6225 0.3509932,0.84707 0.2245674,0.22465 0.5294223,0.35089 0.8469706,0.35089 H 27.05616 c 0.49732,0.0229 1.906818,0.24871 2.690266,1.03039 0.526905,0.52586 0.783022,1.36438 0.783022,2.56381 v 4.19631 c -0.0066,0.80917 0.128109,5.01674 3.430685,8.39409 2.528412,2.5859 6.067413,3.89708 10.518272,3.89708 h 9.071705 c 0.497429,0.0229 1.90641,0.24861 2.690052,1.03029 0.527012,0.52565 0.783237,1.36773 0.783237,2.57393 l 4.24e-4,5.30918 c -0.08082,1.18524 -0.09042,5.05786 2.743801,8.26086 2.376751,2.68621 5.894615,4.04812 10.456093,4.04812 h 9.774955 l -0.01709,3.1929 c -0.0025,0.35558 0.184974,0.68428 0.4916,0.86363 0.306205,0.17872 0.684501,0.18103 0.993621,0.006 l 13.486107,-7.68938 c 0.02374,-0.0133 0.04665,-0.0277 0.06873,-0.0427 0.267891,-0.18321 0.430794,-0.48681 0.432861,-0.8147 0.0017,-0.35472 -0.185806,-0.68323 -0.491585,-0.86309 z" /></g></svg>