<?xml version="1.0" encoding="UTF-8" standalone="no"?>
<svg
   xmlns:dc="http://purl.org/dc/elements/1.1/"
   xmlns:cc="http://creativecommons.org/ns#"
   xmlns:rdf="http://www.w3.org/1999/02/22-rdf-syntax-ns#"
   xmlns:svg="http://www.w3.org/2000/svg"
   xmlns="http://www.w3.org/2000/svg"
   xmlns:sodipodi="http://sodipodi.sourceforge.net/DTD/sodipodi-0.dtd"
   xmlns:inkscape="http://www.inkscape.org/namespaces/inkscape"
   version="1.1"
   x="0px"
   y="0px"
   viewBox="0 0 256 256"
   enable-background="new 0 0 100 100"
   xml:space="preserve"
   id="svg12"
   sodipodi:docname="no_goods.svg"
   width="256"
   height="256"
   inkscape:version="0.92+devel (unknown)"
   inkscape:export-filename="/home/josh/kotcity4/assets/zots/no_goods.png"
   inkscape:export-xdpi="96"
   inkscape:export-ydpi="96"><metadata
     id="metadata18"><rdf:RDF><cc:Work
         rdf:about=""><dc:format>image/svg+xml</dc:format><dc:type
           rdf:resource="http://purl.org/dc/dcmitype/StillImage" /><dc:title></dc:title></cc:Work></rdf:RDF></metadata><defs
     id="defs16" /><sodipodi:namedview
     pagecolor="#ffffff"
     bordercolor="#666666"
     inkscape:document-rotation="0"
     borderopacity="1"
     objecttolerance="10"
     gridtolerance="10"
     guidetolerance="10"
     inkscape:pageopacity="0"
     inkscape:pageshadow="2"
     inkscape:window-width="3200"
     inkscape:window-height="1637"
     id="namedview14"
     showgrid="false"
     inkscape:zoom="3.9343421"
     inkscape:cx="75.749426"
     inkscape:cy="113.66052"
     inkscape:window-x="0"
     inkscape:window-y="0"
     inkscape:window-maximized="1"
     inkscape:current-layer="svg12" /><g
     id="g831"
     transform="matrix(2.6646766,0,0,2.6646766,-2.5682873,-6.6994021)"><g
       id="g6"><g
         id="g4"><path
           id="path2"
           d="m 41.5,72 c -3.4,0 -6.2,2.8 -6.2,6.3 0,3.5 2.8,6.3 6.2,6.3 3.4,0 6.2,-2.8 6.2,-6.3 C 47.7,74.8 45,72 41.5,72 Z m 29.3,0 c -3.4,0 -6.2,2.8 -6.2,6.3 0,3.5 2.8,6.3 6.2,6.3 3.4,0 6.2,-2.8 6.2,-6.3 C 77,74.8 74.2,72 70.8,72 Z M 86,36.5 c 0,0 -2.9,-2.5 -4.8,3.5 -3,11.1 -6.8,22 -6.8,22 H 38.6 L 34.3,41.7 31.1,23.5 c -0.2,-1.4 -1.2,-2.6 -2.6,-3 L 13.8,16.7 c -1.9,-0.5 -3.8,0.2 -4.2,2.1 -0.5,1.9 0.6,3.6 2.5,4.1 l 13.2,3.2 6.8,38.1 c 0,0 0.2,4.3 4,4.3 h 40.2 c 3.2,0 3.8,-3.4 3.8,-3.4 l 7.6,-23.8 c 0,0 2.7,-3.6 -1.7,-4.8 z M 53.2,31 44,40.2 c -0.8,0.8 -0.8,2 0,2.8 l 1.9,1.9 c 0.8,0.8 2,0.8 2.8,0 l 9.2,-9.2 9.2,9.2 c 0.8,0.8 2,0.8 2.8,0 L 71.8,43 c 0.8,-0.8 0.8,-2 0,-2.8 L 62.6,31 71.8,21.8 c 0.8,-0.8 0.8,-2 0,-2.8 l -1.9,-1.9 c -0.8,-0.8 -2,-0.8 -2.8,0 l -9.2,9.2 -9.2,-9.2 c -0.8,-0.8 -2,-0.8 -2.8,0 L 44.1,19 c -0.8,0.8 -0.8,2 0,2.8 z"
           inkscape:connector-curvature="0" /></g></g></g></svg>