<?xml version="1.0" encoding="UTF-8" standalone="no"?>
<svg
   xmlns:dc="http://purl.org/dc/elements/1.1/"
   xmlns:cc="http://creativecommons.org/ns#"
   xmlns:rdf="http://www.w3.org/1999/02/22-rdf-syntax-ns#"
   xmlns:svg="http://www.w3.org/2000/svg"
   xmlns="http://www.w3.org/2000/svg"
   xmlns:sodipodi="http://sodipodi.sourceforge.net/DTD/sodipodi-0.dtd"
   xmlns:inkscape="http://www.inkscape.org/namespaces/inkscape"
   version="1.1"
   x="0px"
   y="0px"
   viewBox="0 0 256 256"
   xml:space="preserve"
   id="svg16"
   sodipodi:docname="no_power.svg"
   width="256"
   height="256"
   inkscape:version="0.92+devel (unknown)"><metadata
     id="metadata22"><rdf:RDF><cc:Work
         rdf:about=""><dc:format>image/svg+xml</dc:format><dc:type
           rdf:resource="http://purl.org/dc/dcmitype/StillImage" /><dc:title></dc:title></cc:Work></rdf:RDF></metadata><defs
     id="defs20" /><sodipodi:namedview
     pagecolor="#ffffff"
     bordercolor="#666666"
     inkscape:document-rotation="0"
     borderopacity="1"
     objecttolerance="10"
     gridtolerance="10"
     guidetolerance="10"
     inkscape:pageopacity="0"
     inkscape:pageshadow="2"
     inkscape:window-width="3200"
     inkscape:window-height="1637"
     id="namedview18"
     showgrid="false"
     inkscape:zoom="2.8979167"
     inkscape:cx="42.0803"
     inkscape:cy="69.365438"
     inkscape:window-x="0"
     inkscape:window-y="0"
     inkscape:window-maximized="1"
     inkscape:current-layer="svg16" /><g
     id="g10"
     transform="matrix(2.2971283,0,0,2.2971283,18.886406,17.747149)"><g
       id="g8"><path
         d="m 33,91.7 c 0.3,0.2 0.7,0.3 1,0.3 0.5,0 1,-0.2 1.4,-0.6 l 23,-23 c 0.8,-0.8 0.8,-2 0,-2.8 -0.8,-0.8 -2,-0.8 -2.8,0 L 38.1,83.1 45.9,56.6 c 0.3,-1 -0.2,-2.1 -1.2,-2.4 l -19,-6.9 5.8,-5.8 c 0.8,-0.8 0.8,-2 0,-2.8 -0.8,-0.8 -2,-0.8 -2.8,0 l -8,8 c -0.5,0.5 -0.7,1.2 -0.5,1.8 0.1,0.7 0.6,1.2 1.3,1.4 l 20.2,7.4 -9.5,32.2 c -0.4,0.8 0,1.8 0.8,2.2 z"
         id="path2"
         inkscape:connector-curvature="0" /><path
         d="M 59.9,4.2 C 59.1,3.8 58.1,4 57.5,4.6 l -21,22.8 c -0.7,0.8 -0.7,2.1 0.1,2.8 0.8,0.7 2.1,0.7 2.8,-0.1 L 55.6,12.6 50.1,40.2 c -0.2,1 0.4,2 1.3,2.3 l 18.6,6.3 -6.3,5.7 c -0.8,0.7 -0.9,2 -0.1,2.8 0.4,0.4 0.9,0.7 1.5,0.7 0.5,0 1,-0.2 1.3,-0.5 l 8.8,-8 C 75.7,49 76,48.3 75.8,47.6 75.6,46.9 75.2,46.3 74.5,46.1 L 54.3,39.2 61,6.4 C 61.1,5.5 60.7,4.6 59.9,4.2 Z"
         id="path4"
         inkscape:connector-curvature="0" /><path
         d="m 76,78 c 0.5,0 1,-0.2 1.4,-0.6 0.8,-0.8 0.8,-2 0,-2.8 l -57,-57 c -0.8,-0.8 -2,-0.8 -2.8,0 -0.8,0.8 -0.8,2 0,2.8 l 57,57 C 75,77.8 75.5,78 76,78 Z"
         id="path6"
         inkscape:connector-curvature="0" /></g></g></svg>