<?xml version="1.0" encoding="UTF-8" standalone="no"?>
<svg
   xmlns:dc="http://purl.org/dc/elements/1.1/"
   xmlns:cc="http://creativecommons.org/ns#"
   xmlns:rdf="http://www.w3.org/1999/02/22-rdf-syntax-ns#"
   xmlns:svg="http://www.w3.org/2000/svg"
   xmlns="http://www.w3.org/2000/svg"
   xmlns:sodipodi="http://sodipodi.sourceforge.net/DTD/sodipodi-0.dtd"
   xmlns:inkscape="http://www.inkscape.org/namespaces/inkscape"
   version="1.1"
   x="0px"
   y="0px"
   viewBox="0 0 256 256"
   xml:space="preserve"
   id="svg26"
   sodipodi:docname="no_workers.svg"
   width="256"
   height="256"
   inkscape:version="0.92+devel (unknown)"
   inkscape:export-filename="/home/josh/kotcity4/assets/zots/no_workers.png"
   inkscape:export-xdpi="96"
   inkscape:export-ydpi="96"><metadata
     id="metadata32"><rdf:RDF><cc:Work
         rdf:about=""><dc:format>image/svg+xml</dc:format><dc:type
           rdf:resource="http://purl.org/dc/dcmitype/StillImage" /><dc:title></dc:title></cc:Work></rdf:RDF></metadata><defs
     id="defs30" /><sodipodi:namedview
     pagecolor="#ffffff"
     bordercolor="#666666"
     inkscape:document-rotation="0"
     borderopacity="1"
     objecttolerance="10"
     gridtolerance="10"
     guidetolerance="10"
     inkscape:pageopacity="0"
     inkscape:pageshadow="2"
     inkscape:window-width="3200"
     inkscape:window-height="1637"
     id="namedview28"
     showgrid="false"
     inkscape:zoom="3.0737048"
     inkscape:cx="85.845787"
     inkscape:cy="174.50742"
     inkscape:window-x="0"
     inkscape:window-y="0"
     inkscape:window-maximized="1"
     inkscape:current-layer="svg26" /><g
     id="g849"
     transform="matrix(1.7115109,0,0,1.7115109,18.551994,18.50609)"><g
       id="g20"><path
         id="path2"
         d="m 31.9,23.3 c -1.4,-1.4 -3.6,-1.4 -5,0 l -6.4,6.4 -6.4,-6.4 c -1.4,-1.4 -3.6,-1.4 -5,0 -1.4,1.4 -1.4,3.6 0,5 l 6.4,6.4 -6.4,6.4 c -1.4,1.4 -1.4,3.6 0,5 0.7,0.7 1.6,1 2.5,1 0.9,0 1.8,-0.3 2.5,-1 l 6.4,-6.4 6.4,6.4 c 0.7,0.7 1.6,1 2.5,1 0.9,0 1.8,-0.3 2.5,-1 1.4,-1.4 1.4,-3.6 0,-5 l -6.4,-6.4 6.4,-6.4 c 1.4,-1.3 1.4,-3.6 0,-5 z"
         inkscape:connector-curvature="0" /><path
         id="path4"
         d="m 80.1,22.6 c -1.4,-1.4 -3.6,-1.4 -5,0 L 59.8,37.9 52.9,31 c -1.4,-1.4 -3.6,-1.4 -5,0 -1.4,1.4 -1.4,3.6 0,5 L 59.8,47.9 80.1,27.6 c 1.4,-1.4 1.4,-3.6 0,-5 z"
         inkscape:connector-curvature="0" /><path
         id="path6"
         d="m 13.2,81.1 c 0.6,1.3 1.5,2.4 2.7,3.5 1.2,1.1 2.8,1.7 4.5,1.7 0,0 0,0 0,0 h 0.2 c 1.6,0 3.2,-0.6 4.4,-1.7 1.2,-1.1 2.1,-2.3 2.7,-3.5 1.3,-2.6 1.9,-5.3 1.9,-8 v -0.3 c 0,-0.3 0,-0.6 0,-0.9 -0.3,-3.1 -2.1,-5.4 -5.1,-6.5 -1.3,-0.5 -2.7,-0.7 -4.2,-0.7 -1.5,0 -2.9,0.3 -4.1,0.7 -3,1.1 -4.8,3.4 -5.1,6.5 0,0.3 0,0.6 0,0.9 v 0.3 c 0.2,2.7 0.8,5.4 2.1,8 z m 7.5,3.8 z"
         inkscape:connector-curvature="0" /><path
         id="path8"
         d="m 37.9,93.3 c -0.7,-0.5 -1.5,-0.9 -2.4,-1.2 0,0 -6.2,-2.4 -6.3,-2.4 -1.3,-0.5 -2.7,-0.6 -3.9,0.3 L 25,90.2 c -0.4,0.3 -0.6,0.7 -0.8,1 -0.1,0.1 -0.1,0.2 -0.2,0.3 l -3.6,5 L 20,95.8 C 18.8,94.1 17.6,92.4 16.3,90.6 16.2,90.5 16.1,90.4 16,90.2 15.5,89.7 15,89.3 14.5,89.1 L 14,89.2 12,89.7 5.6,92.1 C 4.7,92.4 3.8,92.8 3.2,93.3 1,95 1.1,97.1 1.1,97.2 v 5 c 0.1,0.6 0.2,1.1 0.4,1.6 0.8,1.9 2.5,2.6 3.7,2.6 h 30.6 c 1.2,0 2.9,-0.7 3.7,-2.6 0.2,-0.5 0.3,-1 0.4,-1.8 v -4.7 c 0,-0.2 0.2,-2.3 -2,-4 z"
         inkscape:connector-curvature="0" /><path
         id="path10"
         d="m 56.7,81.1 c 0.6,1.3 1.5,2.4 2.7,3.5 1.2,1.1 2.8,1.7 4.5,1.7 0,0 0,0 0,0 h 0.2 c 1.6,0 3.2,-0.6 4.4,-1.7 1.2,-1.1 2.1,-2.3 2.7,-3.5 1.3,-2.6 1.9,-5.3 1.9,-8 v -0.3 c 0,-0.3 0,-0.6 0,-0.9 -0.3,-3.1 -2.1,-5.4 -5.1,-6.5 -1.3,-0.5 -2.7,-0.7 -4.2,-0.7 -1.5,0 -2.9,0.3 -4.1,0.7 -3,1.1 -4.8,3.4 -5.1,6.5 0,0.3 0,0.6 0,0.9 v 0.3 c 0.1,2.7 0.8,5.4 2.1,8 z m 7.5,3.8 z"
         inkscape:connector-curvature="0" /><path
         id="path12"
         d="m 81.3,93.3 c -0.7,-0.5 -1.5,-0.9 -2.4,-1.2 0,0 -6.2,-2.4 -6.3,-2.4 -1.3,-0.5 -2.7,-0.6 -3.9,0.3 l -0.3,0.2 c -0.4,0.3 -0.6,0.7 -0.8,1 -0.1,0.1 -0.1,0.2 -0.2,0.3 l -3.6,5 -0.5,-0.7 c -1.2,-1.7 -2.4,-3.4 -3.7,-5.2 -0.1,-0.1 -0.2,-0.2 -0.3,-0.4 -0.5,-0.5 -1,-0.9 -1.5,-1.1 l -0.5,-0.1 -2,0.5 -6.4,2.4 c -0.9,0.3 -1.8,0.7 -2.4,1.2 -2.2,1.7 -2.1,3.8 -2.1,3.9 v 5 c 0.1,0.6 0.2,1.1 0.4,1.6 0.8,1.9 2.5,2.6 3.7,2.6 h 30.6 c 1.2,0 2.9,-0.7 3.7,-2.6 0.2,-0.5 0.3,-1 0.4,-1.8 v -4.7 c 0.2,0 0.3,-2.1 -1.9,-3.8 z"
         inkscape:connector-curvature="0" /><path
         id="path14"
         d="m 100.1,81.1 c 0.6,1.3 1.5,2.4 2.7,3.5 1.2,1.1 2.8,1.7 4.5,1.7 0,0 0,0 0,0 h 0.2 c 1.6,0 3.2,-0.6 4.4,-1.7 1.2,-1.1 2.1,-2.3 2.7,-3.5 1.3,-2.6 1.9,-5.3 1.9,-8 v -0.3 c 0,-0.3 0,-0.6 0,-0.9 -0.3,-3.1 -2.1,-5.4 -5.1,-6.5 -1.3,-0.5 -2.7,-0.7 -4.2,-0.7 -1.5,0 -2.9,0.3 -4.1,0.7 -3,1.1 -4.8,3.4 -5.1,6.5 0,0.3 0,0.6 0,0.9 v 0.3 c 0.2,2.7 0.8,5.4 2.1,8 z m 7.5,3.8 z"
         inkscape:connector-curvature="0" /><path
         id="path16"
         d="m 124.8,93.3 c -0.7,-0.5 -1.5,-0.9 -2.4,-1.2 0,0 -6.2,-2.4 -6.3,-2.4 -1.3,-0.5 -2.7,-0.6 -3.9,0.3 l -0.3,0.2 c -0.4,0.3 -0.6,0.7 -0.8,1 -0.1,0.1 -0.1,0.2 -0.2,0.3 l -3.6,5 -0.5,-0.7 c -1.2,-1.7 -2.4,-3.4 -3.7,-5.2 -0.1,-0.1 -0.2,-0.2 -0.3,-0.4 -0.5,-0.5 -1,-0.9 -1.5,-1.1 l -0.5,-0.1 -2,0.5 -6.4,2.4 c -0.9,0.3 -1.8,0.7 -2.4,1.2 -2.2,1.7 -2.1,3.8 -2.1,3.9 v 5 c 0.1,0.6 0.2,1.1 0.4,1.6 0.8,1.9 2.5,2.6 3.7,2.6 h 30.6 c 1.2,0 2.9,-0.7 3.7,-2.6 0.2,-0.5 0.3,-1 0.4,-1.8 v -4.7 c 0.2,0 0.3,-2.1 -1.9,-3.8 z"
         inkscape:connector-curvature="0" /><path
         id="path18"
         d="m 118.9,23.3 c -1.4,-1.4 -3.6,-1.4 -5,0 l -6.4,6.4 -6.4,-6.4 c -1.4,-1.4 -3.6,-1.4 -5,0 -1.4,1.4 -1.4,3.6 0,5 l 6.4,6.4 -6.4,6.4 c -1.4,1.4 -1.4,3.6 0,5 0.7,0.7 1.6,1 2.5,1 0.9,0 1.8,-0.3 2.5,-1 l 6.4,-6.4 6.4,6.4 c 0.7,0.7 1.6,1 2.5,1 0.9,0 1.8,-0.3 2.5,-1 1.4,-1.4 1.4,-3.6 0,-5 l -6.4,-6.4 6.4,-6.4 c 1.4,-1.3 1.4,-3.6 0,-5 z"
         inkscape:connector-curvature="0" /></g></g></svg>