<?xml version="1.0" encoding="UTF-8" standalone="no"?>
<svg
   xmlns:dc="http://purl.org/dc/elements/1.1/"
   xmlns:cc="http://creativecommons.org/ns#"
   xmlns:rdf="http://www.w3.org/1999/02/22-rdf-syntax-ns#"
   xmlns:svg="http://www.w3.org/2000/svg"
   xmlns="http://www.w3.org/2000/svg"
   xmlns:sodipodi="http://sodipodi.sourceforge.net/DTD/sodipodi-0.dtd"
   xmlns:inkscape="http://www.inkscape.org/namespaces/inkscape"
   version="1.0"
   x="0px"
   y="0px"
   viewBox="0 0 256 256"
   enable-background="new 0 0 100 100"
   xml:space="preserve"
   id="svg50"
   sodipodi:docname="too_much_traffic.svg"
   width="256"
   height="256"
   inkscape:version="0.92+devel (unknown)"
   inkscape:export-filename="/home/josh/kotcity4/assets/zots/too_much_traffic.png"
   inkscape:export-xdpi="96"
   inkscape:export-ydpi="96"><metadata
     id="metadata56"><rdf:RDF><cc:Work
         rdf:about=""><dc:format>image/svg+xml</dc:format><dc:type
           rdf:resource="http://purl.org/dc/dcmitype/StillImage" /><dc:title></dc:title></cc:Work></rdf:RDF></metadata><defs
     id="defs54" /><sodipodi:namedview
     pagecolor="#ffffff"
     bordercolor="#666666"
     inkscape:document-rotation="0"
     borderopacity="1"
     objecttolerance="10"
     gridtolerance="10"
     guidetolerance="10"
     inkscape:pageopacity="0"
     inkscape:pageshadow="2"
     inkscape:window-width="3200"
     inkscape:window-height="1637"
     id="namedview52"
     showgrid="false"
     inkscape:zoom="2.782"
     inkscape:cx="124.85774"
     inkscape:cy="67.245695"
     inkscape:window-x="0"
     inkscape:window-y="0"
     inkscape:window-maximized="1"
     inkscape:current-layer="svg50" /><g
     id="g888"
     transform="matrix(2.8400285,0,0,2.8400285,-14.802625,-13.169353)"><g
       id="g44"><g
         id="g4"><rect
           id="rect2"
           height="9.1665039"
           width="3"
           y="31.833496"
           x="29.356445" /></g><g
         id="g8"><rect
           id="rect6"
           height="2.9996841"
           width="7.7802768"
           transform="rotate(62.7531,22.421631,37.541502)"
           y="36.04166"
           x="18.531492" /></g><g
         id="g12"><rect
           id="rect10"
           height="7.7802768"
           width="2.9996841"
           transform="rotate(27.240757,39.291258,37.541503)"
           y="33.651367"
           x="37.791416" /></g><path
         id="path14"
         d="m 45.476685,55.142151 h 6.1e-5 l -2.631104,-8.747254 c -0.32373,-1.061035 -1.298828,-1.838012 -2.46582,-1.838012 H 31.356384 21.333008 c -1.166992,0 -2.14209,0.776977 -2.465821,1.838012 l -2.631103,8.747254 h 0.01544 l -3.00824,1.084228 v 11.670838 h 3.524231 v 1.25061 c 0,1.633301 1.336365,2.969666 2.969727,2.969666 1.633301,0 2.969665,-1.336365 2.969665,-2.969666 v -1.25061 h 16.29895 v 1.25061 c 0,1.633301 1.336365,2.969666 2.969727,2.969666 1.633362,0 2.969727,-1.336365 2.969727,-2.969666 v -1.25061 h 3.524231 V 56.226379 Z m -25.739441,9.191772 c -1.104554,0 -2,-0.895385 -2,-2 0,-1.104553 0.895446,-2 2,-2 1.104553,0 2,0.895447 2,2 0,1.104615 -0.895447,2 -2,2 z m 1.050048,-9.191833 1.493531,-7.016297 h 17.151184 l 1.493469,7.016297 z m 21.188294,9.191833 c -1.104553,0 -2,-0.895385 -2,-2 0,-1.104553 0.895447,-2 2,-2 1.104553,0 2,0.895447 2,2 0,1.104615 -0.895447,2 -2,2 z"
         inkscape:connector-curvature="0" /><g
         id="g18"><rect
           id="rect16"
           height="9.1665039"
           width="3"
           y="51"
           x="68.208008" /></g><g
         id="g22"><rect
           id="rect20"
           height="2.9996841"
           width="7.7800531"
           transform="rotate(62.756298,61.272944,56.708004)"
           y="55.208164"
           x="57.382923" /></g><g
         id="g26"><rect
           id="rect24"
           height="7.7802768"
           width="2.9996841"
           transform="rotate(27.240757,78.14282,56.708006)"
           y="52.817871"
           x="76.642982" /></g><path
         id="path28"
         d="m 84.328079,74.308815 h 6.1e-5 l -2.631103,-8.747253 c -0.323731,-1.061036 -1.298828,-1.838013 -2.465821,-1.838013 h -9.023437 -10.02338 c -1.166993,0 -2.14209,0.776977 -2.465821,1.838013 l -2.631103,8.747253 h 0.01544 l -3.00824,1.084228 v 11.670838 h 3.524231 v 1.25061 c 0,1.633301 1.336365,2.969666 2.969727,2.969666 1.633301,0 2.969665,-1.336365 2.969665,-2.969666 v -1.25061 h 16.298954 v 1.25061 c 0,1.633301 1.336365,2.969666 2.969727,2.969666 1.633362,0 2.969726,-1.336365 2.969726,-2.969666 v -1.25061 h 3.524231 V 75.393044 Z m -25.739445,9.191772 c -1.104553,0 -2,-0.895385 -2,-2 0,-1.104553 0.895447,-2 2,-2 1.104554,0 2,0.895447 2,2 0,1.104615 -0.895446,2 -2,2 z m 1.050049,-9.191833 1.493531,-7.016296 h 17.151187 l 1.49347,7.016296 z m 21.188298,9.191833 c -1.104554,0 -2,-0.895385 -2,-2 0,-1.104553 0.895446,-2 2,-2 1.104553,0 2,0.895447 2,2 0,1.104615 -0.895447,2 -2,2 z"
         inkscape:connector-curvature="0" /><g
         id="g32"><rect
           id="rect30"
           height="9.1665039"
           width="3"
           y="8.1298828"
           x="68.208008" /></g><g
         id="g36"><rect
           id="rect34"
           height="2.9996841"
           width="7.7800531"
           transform="rotate(62.756298,61.272947,13.837888)"
           y="12.338049"
           x="57.382923" /></g><g
         id="g40"><rect
           id="rect38"
           height="7.7802768"
           width="2.9996841"
           transform="rotate(27.240757,78.142818,13.837892)"
           y="9.947752"
           x="76.642982" /></g><path
         id="path42"
         d="m 84.328079,31.438677 h 6.1e-5 l -2.631103,-8.747254 c -0.323731,-1.061035 -1.298828,-1.838012 -2.465821,-1.838012 h -9.023437 -10.02338 c -1.166993,0 -2.14209,0.776977 -2.465821,1.838012 l -2.631103,8.747254 h 0.01544 l -3.00824,1.084226 v 11.670838 h 3.524231 v 1.25061 c 0,1.633301 1.336365,2.969666 2.969727,2.969666 1.633301,0 2.969665,-1.336365 2.969665,-2.969666 v -1.25061 h 16.298954 v 1.25061 c 0,1.633301 1.336365,2.969666 2.969727,2.969666 1.633362,0 2.969726,-1.336365 2.969726,-2.969666 v -1.25061 h 3.524231 V 32.522903 Z m -25.739445,9.19177 c -1.104553,0 -2,-0.895385 -2,-2 0,-1.104553 0.895447,-2 2,-2 1.104554,0 2,0.895447 2,2 0,1.104615 -0.895446,2 -2,2 z m 1.050049,-9.191831 1.493531,-7.016297 h 17.151187 l 1.49347,7.016297 z m 21.188298,9.191831 c -1.104554,0 -2,-0.895385 -2,-2 0,-1.104553 0.895446,-2 2,-2 1.104553,0 2,0.895447 2,2 0,1.104615 -0.895447,2 -2,2 z"
         inkscape:connector-curvature="0" /></g></g></svg>