<?xml version="1.0" encoding="UTF-8" standalone="no"?>
<svg
   xmlns:dc="http://purl.org/dc/elements/1.1/"
   xmlns:cc="http://creativecommons.org/ns#"
   xmlns:rdf="http://www.w3.org/1999/02/22-rdf-syntax-ns#"
   xmlns:svg="http://www.w3.org/2000/svg"
   xmlns="http://www.w3.org/2000/svg"
   xmlns:sodipodi="http://sodipodi.sourceforge.net/DTD/sodipodi-0.dtd"
   xmlns:inkscape="http://www.inkscape.org/namespaces/inkscape"
   version="1.1"
   x="0px"
   y="0px"
   viewBox="-143.5 -19.058 256 256"
   enable-background="new -143.5 -19.058 1024 1024"
   xml:space="preserve"
   id="svg62"
   sodipodi:docname="too_much_pollution.svg"
   width="256"
   height="256"
   inkscape:version="0.92+devel (unknown)"><metadata
     id="metadata68"><rdf:RDF><cc:Work
         rdf:about=""><dc:format>image/svg+xml</dc:format><dc:type
           rdf:resource="http://purl.org/dc/dcmitype/StillImage" /><dc:title></dc:title></cc:Work></rdf:RDF></metadata><defs
     id="defs66" /><sodipodi:namedview
     pagecolor="#ffffff"
     bordercolor="#666666"
     inkscape:document-rotation="0"
     borderopacity="1"
     objecttolerance="10"
     gridtolerance="10"
     guidetolerance="10"
     inkscape:pageopacity="0"
     inkscape:pageshadow="2"
     inkscape:window-width="3200"
     inkscape:window-height="1637"
     id="namedview64"
     showgrid="false"
     inkscape:zoom="3.0737048"
     inkscape:cx="217.10513"
     inkscape:cy="186.13907"
     inkscape:window-x="0"
     inkscape:window-y="0"
     inkscape:window-maximized="1"
     inkscape:current-layer="svg62" /><g
     id="g903"
     transform="matrix(0.24283693,0,0,0.24283693,-109.29588,239.5347)"><g
       transform="translate(0,-1024)"
       id="g8"><path
         inkscape:connector-curvature="0"
         id="path2"
         d="m 765.5,86.112 c 0,-27.26 -22.1,-49.36 -49.36,-49.36 -8.859,0 -17.18,2.34 -24.37,6.43 -13.5,-21.76 -37.619,-36.24 -65.109,-36.24 -21.95,0 -41.75,9.23 -55.71,24.03 -0.021,-0.01 -0.03,-0.01 -0.05,-0.02 -8.28,-3.47 -17.45,-5.39 -27,-5.39 -38.53,0 -69.9,31.23 -69.9,69.76 v 0.17 c -7.59,-2.87 -15.83,-4.44 -24.42,-4.44 -38.16,0 -69.1,30.94 -69.1,69.1 0,0.28 0,0.56 0.01,0.83 -3.221,-0.55 -6.521,-0.83 -9.891,-0.83 -32.709,0 -59.229,26.52 -59.229,59.24 0,7.9 1.55,15.44 4.36,22.33 -5.78,10.54 -9.06,22.64 -9.06,35.5 0,14.39 4.11,27.83 11.22,39.19 -1.23,4.18 -1.88,8.6 -1.88,13.17 0,16.33 8.34,30.7 21,39.1 -0.33,1.69 -0.5,3.44 -0.5,5.23 0,15.27 12.38,27.65 27.66,27.65 15.271,0 27.65,-12.38 27.65,-27.65 0,-2.33 -0.29,-4.6 -0.84,-6.77 6.96,-5.21 12.42,-12.31 15.619,-20.54 12.23,-4.56 22.94,-12.27 31.12,-22.15 8.04,3.84 16.931,6 26.44,6 31.05,0 56.84,-22.91 60.84,-52.75 2,0.09 3.12,0.17 4.6,0.17 7.19,0 14.261,-1.04 20.79,-3.09 0,0 22.471,9.651 35.36,9.651 37,0 67.15,-29.32 68.49,-65.99 3.689,0.59 7.47,0.885 11.319,0.885 39.53,0 71.58,-32.043 71.58,-71.573 0,-5.55 -0.63,-10.961 -1.819,-16.151 17.73,-7.48 30.18,-25.032 30.18,-45.492 z" /><g
         id="g6"><path
           inkscape:connector-curvature="0"
           id="path4"
           d="m 772.5,86.112 c -0.266,-19.011 -9.487,-35.883 -24.959,-46.79 -17.383,-12.254 -41,-12.194 -59.305,-2.185 3.192,0.837 6.385,1.674 9.577,2.511 C 684.345,18.391 662.391,3.928 637.359,0.682 610.941,-2.743 584.426,6.873 566,26.022 c 2.271,-0.6 4.541,-1.2 6.812,-1.8 -24.381,-9.8 -52.596,-6.491 -73.905,8.91 C 479.007,47.514 467,70.925 467,95.492 c 2.953,-2.25 5.907,-4.5 8.861,-6.75 -24.211,-8.803 -51.814,-4.814 -72.297,10.866 -18.979,14.53 -30.356,37.402 -30.074,61.375 2.953,-2.25 5.907,-4.5 8.861,-6.75 -22.849,-3.566 -45.682,3.801 -61.247,21.166 -16.484,18.389 -21.092,45.245 -12.125,68.185 0.235,-1.798 0.471,-3.596 0.706,-5.394 -13.753,25.757 -13.093,56.785 2.16,81.757 -0.235,-1.798 -0.47,-3.596 -0.706,-5.394 -6.344,23.078 2.739,46.726 22.336,60.175 -1.072,-2.635 -2.145,-5.27 -3.217,-7.905 -3.499,21.658 11.579,41.193 33.91,41.741 22.896,0.561 38.243,-22.063 33.561,-43.281 -0.6,2.27 -1.2,4.541 -1.8,6.811 8.024,-6.214 13.607,-14.291 17.419,-23.629 -1.63,1.63 -3.26,3.259 -4.889,4.889 13.29,-5.124 24.979,-13.044 34.209,-23.951 -2.828,0.365 -5.655,0.73 -8.483,1.095 21.007,9.694 44.801,9.043 64.917,-2.566 17.483,-10.089 29.745,-28.461 32.646,-48.368 -2.25,1.713 -4.5,3.426 -6.75,5.139 9.227,0.441 18.385,-0.518 27.251,-3.17 -1.799,-0.235 -3.597,-0.471 -5.395,-0.706 9.314,3.979 18.962,7.444 28.905,9.451 13.959,2.816 28.253,-0.055 41.163,-5.603 26.245,-11.279 43.008,-38.151 44.315,-66.232 -2.953,2.25 -5.907,4.5 -8.861,6.75 25.792,3.765 51.279,-4.095 69.661,-22.812 18.757,-19.099 25.627,-46.745 20.03,-72.638 -1.072,2.635 -2.145,5.27 -3.217,7.905 20.451,-8.974 33.321,-29.367 33.65,-51.536 0.134,-9.033 -13.866,-9.02 -14,0 -0.262,17.66 -10.671,32.407 -26.713,39.447 -2.938,1.29 -3.824,5.095 -3.217,7.905 4.493,20.788 -1.18,42.352 -15.53,58.067 -14.272,15.629 -36.022,23.214 -56.938,20.161 -4.594,-0.67 -8.631,1.801 -8.861,6.75 -1.302,27.958 -21.241,51.259 -48.354,57.594 -13.167,3.077 -25.26,-0.108 -37.692,-4.532 -2.268,-0.807 -4.514,-1.673 -6.748,-2.567 -0.592,-0.237 -1.182,-0.48 -1.77,-0.726 3.524,1.469 -1.572,-0.43 -2.287,-0.43 -4.422,0 -9.181,2.252 -13.655,2.745 -3.908,0.431 -7.817,0.362 -11.734,0.175 -2.806,-0.134 -6.323,2.21 -6.75,5.139 -2.376,16.301 -11.112,30.424 -25.071,39.309 -15.418,9.813 -35.387,10.89 -51.926,3.258 -2.704,-1.248 -6.335,-1.443 -8.483,1.095 -7.016,8.291 -15.337,14.629 -25.189,19.2 -2.602,1.207 -5.453,1.684 -7.024,4.367 -1.287,2.196 -2.11,4.716 -3.391,6.949 -2.775,4.843 -6.751,8.78 -11.135,12.174 -1.974,1.528 -2.291,4.583 -1.8,6.811 2.737,12.402 -5.849,24.579 -18.681,25.525 -13.122,0.967 -23.874,-11.088 -21.79,-23.985 0.539,-3.333 -0.382,-5.96 -3.217,-7.905 -8.001,-5.491 -13.53,-13.438 -16.186,-22.734 -1.437,-5.03 -1.54,-10.218 -1.077,-15.395 0.244,-2.721 1.61,-5.375 1.61,-8.097 0,-3.263 -2.674,-6.357 -4.134,-9.141 -5.12,-9.768 -7.193,-20.849 -7.066,-31.798 0.065,-5.66 1.052,-11.178 2.531,-16.625 0.708,-2.606 1.599,-5.207 2.653,-7.693 1.248,-2.942 3.856,-6.149 3.856,-9.432 0,-2.757 -1.708,-5.763 -2.478,-8.397 -0.813,-2.779 -1.334,-5.649 -1.638,-8.524 -0.508,-4.797 -0.316,-9.745 0.515,-14.492 1.534,-8.77 5.382,-17.144 11.029,-24.024 11.63,-14.173 30.333,-21.383 48.471,-18.552 4.376,0.683 8.92,-1.804 8.861,-6.75 -0.229,-19.449 8.646,-37.249 23.531,-49.564 16.975,-14.042 40.827,-16.554 61.117,-9.176 4.339,1.578 8.861,-2.476 8.861,-6.75 0,-19.586 9.271,-38.471 24.972,-50.271 18.315,-13.764 42.061,-15.962 63.117,-7.499 2.212,0.889 5.237,-0.165 6.812,-1.8 15.763,-16.383 37.411,-23.904 59.956,-21.433 20.438,2.24 39.011,15.09 49.869,32.227 2.084,3.289 6.138,4.392 9.577,2.511 28.259,-15.454 62.75,4.856 63.197,36.885 0.126,9.018 14.126,9.031 14,-0.002 z" /></g></g><g
       transform="translate(0,-1024)"
       id="g16"><rect
         id="rect10"
         height="98"
         width="160"
         y="564.94202"
         x="6.5" /><g
         id="g14"><path
           inkscape:connector-curvature="0"
           id="path12"
           d="m 160,564.442 c 0,32.667 0,65.333 0,98 2.333,-2.333 4.667,-4.667 7,-7 -49.383,0 -98.766,0 -148.148,0 -3.951,0 -7.901,0 -11.852,0 2.333,2.333 4.667,4.667 7,7 0,-32.667 0,-65.333 0,-98 -2.333,2.333 -4.667,4.667 -7,7 49.383,0 98.766,0 148.148,0 3.951,0 7.901,0 11.852,0 9.028,0 9.028,-14 0,-14 -49.383,0 -98.766,0 -148.148,0 -3.951,0 -7.901,0 -11.852,0 -3.816,0 -7,3.185 -7,7 0,32.667 0,65.333 0,98 0,3.815 3.184,7 7,7 49.383,0 98.766,0 148.148,0 3.951,0 7.901,0 11.852,0 3.816,0 7,-3.185 7,-7 0,-32.667 0,-65.333 0,-98 0,-9.028 -14,-9.028 -14,0 z" /></g></g><g
       transform="translate(0,-1024)"
       id="g24"><rect
         id="rect18"
         height="270"
         width="160"
         y="694.94202"
         x="6.5" /><g
         id="g22"><path
           inkscape:connector-curvature="0"
           id="path20"
           d="m 7,701.442 c 49.383,0 98.766,0 148.148,0 3.951,0 7.901,0 11.852,0 -2.333,-2.333 -4.667,-4.667 -7,-7 0,44.167 0,88.333 0,132.5 0,45.793 0,91.585 0,137.378 0,0.04 0,0.081 0,0.122 2.333,-2.333 4.667,-4.667 7,-7 -49.383,0 -98.766,0 -148.148,0 -3.951,0 -7.901,0 -11.852,0 2.333,2.333 4.667,4.667 7,7 0,-44.167 0,-88.333 0,-132.5 0,-45.793 0,-91.585 0,-137.378 0,-0.04 0,-0.081 0,-0.122 0,-9.028 -14,-9.028 -14,0 0,44.167 0,88.333 0,132.5 0,45.793 0,91.585 0,137.378 0,0.04 0,0.081 0,0.122 0,3.815 3.184,7 7,7 49.383,0 98.766,0 148.148,0 3.951,0 7.901,0 11.852,0 3.816,0 7,-3.185 7,-7 0,-44.167 0,-88.333 0,-132.5 0,-45.793 0,-91.585 0,-137.378 0,-0.04 0,-0.081 0,-0.122 0,-3.815 -3.184,-7 -7,-7 -49.383,0 -98.766,0 -148.148,0 -3.951,0 -7.901,0 -11.852,0 -9.028,0 -9.028,14 0,14 z" /></g></g><g
       transform="translate(0,-1024)"
       id="g32"><rect
         id="rect26"
         height="98"
         width="160"
         y="445.94199"
         x="287.5" /><g
         id="g30"><path
           inkscape:connector-curvature="0"
           id="path28"
           d="m 441,445.442 c 0,32.667 0,65.333 0,98 2.333,-2.333 4.667,-4.667 7,-7 -49.383,0 -98.766,0 -148.148,0 -3.951,0 -7.901,0 -11.852,0 2.333,2.333 4.667,4.667 7,7 0,-32.667 0,-65.333 0,-98 -2.333,2.333 -4.667,4.667 -7,7 49.383,0 98.766,0 148.148,0 3.95,0 7.901,0 11.852,0 9.028,0 9.028,-14 0,-14 -49.383,0 -98.766,0 -148.148,0 -3.951,0 -7.901,0 -11.852,0 -3.816,0 -7,3.184 -7,7 0,32.667 0,65.333 0,98 0,3.815 3.184,7 7,7 49.383,0 98.766,0 148.148,0 3.95,0 7.901,0 11.852,0 3.815,0 7,-3.185 7,-7 0,-32.667 0,-65.333 0,-98 0,-9.028 -14,-9.028 -14,0 z" /></g></g><g
       transform="translate(0,-1024)"
       id="g40"><rect
         id="rect34"
         height="390"
         width="160"
         y="575.94202"
         x="287.5" /><g
         id="g38"><path
           inkscape:connector-curvature="0"
           id="path36"
           d="m 288,582.442 c 49.383,0 98.766,0 148.148,0 3.95,0 7.901,0 11.852,0 -2.333,-2.333 -4.667,-4.667 -7,-7 0,35.194 0,70.389 0,105.584 0,64.025 0,128.051 0,192.076 0,30.779 0,61.56 0,92.34 2.333,-2.333 4.667,-4.667 7,-7 -49.383,0 -98.766,0 -148.148,0 -3.951,0 -7.901,0 -11.852,0 2.333,2.333 4.667,4.667 7,7 0,-35.194 0,-70.389 0,-105.584 0,-64.025 0,-128.051 0,-192.076 0,-30.779 0,-61.56 0,-92.34 0,-9.028 -14,-9.028 -14,0 0,35.194 0,70.389 0,105.584 0,64.025 0,128.051 0,192.076 0,30.779 0,61.56 0,92.34 0,3.815 3.184,7 7,7 49.383,0 98.766,0 148.148,0 3.95,0 7.901,0 11.852,0 3.815,0 7,-3.185 7,-7 0,-35.194 0,-70.389 0,-105.584 0,-64.025 0,-128.051 0,-192.076 0,-30.779 0,-61.56 0,-92.34 0,-3.815 -3.185,-7 -7,-7 -49.383,0 -98.766,0 -148.148,0 -3.951,0 -7.901,0 -11.852,0 -9.028,0 -9.028,14 0,14 z" /></g></g><g
       transform="translate(0,-1024)"
       id="g48"><rect
         id="rect42"
         height="98"
         width="160"
         y="673.94202"
         x="568.5" /><g
         id="g46"><path
           inkscape:connector-curvature="0"
           id="path44"
           d="m 722,673.442 c 0,32.667 0,65.333 0,98 2.333,-2.333 4.667,-4.667 7,-7 -49.383,0 -98.766,0 -148.148,0 -3.95,0 -7.901,0 -11.852,0 2.333,2.333 4.667,4.667 7,7 0,-32.667 0,-65.333 0,-98 -2.333,2.333 -4.667,4.667 -7,7 49.383,0 98.766,0 148.148,0 3.95,0 7.901,0 11.852,0 9.028,0 9.028,-14 0,-14 -49.383,0 -98.766,0 -148.148,0 -3.95,0 -7.901,0 -11.852,0 -3.815,0 -7,3.185 -7,7 0,32.667 0,65.333 0,98 0,3.815 3.185,7 7,7 49.383,0 98.766,0 148.148,0 3.95,0 7.901,0 11.852,0 3.815,0 7,-3.185 7,-7 0,-32.667 0,-65.333 0,-98 0,-9.028 -14,-9.028 -14,0 z" /></g></g><g
       transform="translate(0,-1024)"
       id="g56"><rect
         id="rect50"
         height="160"
         width="160"
         y="803.94202"
         x="568.5" /><g
         id="g54"><path
           inkscape:connector-curvature="0"
           id="path52"
           d="m 569,810.442 c 49.383,0 98.766,0 148.148,0 3.95,0 7.901,0 11.852,0 -2.333,-2.333 -4.667,-4.667 -7,-7 0,49.383 0,98.766 0,148.148 0,3.95 0,7.901 0,11.852 2.333,-2.333 4.667,-4.667 7,-7 -49.383,0 -98.766,0 -148.148,0 -3.95,0 -7.901,0 -11.852,0 2.333,2.333 4.667,4.667 7,7 0,-49.383 0,-98.766 0,-148.148 0,-3.95 0,-7.901 0,-11.852 0,-9.028 -14,-9.028 -14,0 0,49.383 0,98.766 0,148.148 0,3.95 0,7.901 0,11.852 0,3.815 3.185,7 7,7 49.383,0 98.766,0 148.148,0 3.95,0 7.901,0 11.852,0 3.815,0 7,-3.185 7,-7 0,-49.383 0,-98.766 0,-148.148 0,-3.95 0,-7.901 0,-11.852 0,-3.815 -3.185,-7 -7,-7 -49.383,0 -98.766,0 -148.148,0 -3.95,0 -7.901,0 -11.852,0 -9.028,0 -9.028,14 0,14 z" /></g></g></g></svg>