<?xml version="1.0" encoding="UTF-8" standalone="no"?>
<svg
   xmlns:dc="http://purl.org/dc/elements/1.1/"
   xmlns:cc="http://creativecommons.org/ns#"
   xmlns:rdf="http://www.w3.org/1999/02/22-rdf-syntax-ns#"
   xmlns:svg="http://www.w3.org/2000/svg"
   xmlns="http://www.w3.org/2000/svg"
   xmlns:sodipodi="http://sodipodi.sourceforge.net/DTD/sodipodi-0.dtd"
   xmlns:inkscape="http://www.inkscape.org/namespaces/inkscape"
   data-name="Layer 1"
   viewBox="0 0 256 256"
   x="0px"
   y="0px"
   version="1.1"
   id="svg16"
   sodipodi:docname="unhappy_neighbors.svg"
   width="256"
   height="256"
   inkscape:version="0.92+devel (unknown)"
   inkscape:export-filename="/home/josh/kotcity4/assets/zots/unhappy_neighbors.png"
   inkscape:export-xdpi="96"
   inkscape:export-ydpi="96">
  <metadata
     id="metadata22">
    <rdf:RDF>
      <cc:Work
         rdf:about="">
        <dc:format>image/svg+xml</dc:format>
        <dc:type
           rdf:resource="http://purl.org/dc/dcmitype/StillImage" />
        <dc:title>Artboard 19</dc:title>
      </cc:Work>
    </rdf:RDF>
  </metadata>
  <defs
     id="defs20" />
  <sodipodi:namedview
     pagecolor="#ffffff"
     bordercolor="#666666"
     inkscape:document-rotation="0"
     borderopacity="1"
     objecttolerance="10"
     gridtolerance="10"
     guidetolerance="10"
     inkscape:pageopacity="0"
     inkscape:pageshadow="2"
     inkscape:window-width="3200"
     inkscape:window-height="1637"
     id="namedview18"
     showgrid="false"
     inkscape:zoom="2.782"
     inkscape:cx="57.21405"
     inkscape:cy="165.27019"
     inkscape:window-x="0"
     inkscape:window-y="0"
     inkscape:window-maximized="1"
     inkscape:current-layer="svg16" />
  <title
     id="title2">Artboard 19</title>
  <g
     id="g886"
     transform="matrix(0.97391501,0,0,0.97391501,19.631155,-6.2442462)">
    <g
       transform="matrix(2.2689644,0,0,2.2689644,-3.2243659,11.962282)"
       id="g860">
      <g
         id="g833"
         transform="matrix(0.44306266,0,0,0.44306266,55.134603,52.35211)">
        <path
           id="path4"
           d="M 79,32.31 V 13.68 a 2.5,2.5 0 0 0 -2.5,-2.5 H 65.2 a 2.5,2.5 0 0 0 -2.5,2.5 V 17 L 51.7,6.68 a 2.5,2.5 0 0 0 -3.42,0 L 1.79,50.37 A 2.5,2.5 0 0 0 3.5,54.69 H 15.83 V 89 H 7 a 2.5,2.5 0 1 0 0,5 h 86 a 2.5,2.5 0 0 0 0,-5 H 84.17 V 54.69 H 96.5 a 2.5,2.5 0 0 0 1.71,-4.32 z m 2.67,17.38 a 2.5,2.5 0 0 0 -2.5,2.5 V 89 H 20.83 V 52.19 a 2.5,2.5 0 0 0 -2.5,-2.5 H 9.81 L 50,11.92 63.49,24.6 a 2.5,2.5 0 0 0 4.21,-1.82 v -6.6 H 74 v 17.21 a 2.5,2.5 0 0 0 0.79,1.82 l 15.4,14.48 z"
           inkscape:connector-curvature="0" />
        <path
           id="path6"
           d="m 37.41,54.86 a 2.36,2.36 0 1 1 4.72,0 2.5,2.5 0 0 0 5,0 7.36,7.36 0 1 0 -14.72,0 2.5,2.5 0 0 0 5,0 z"
           inkscape:connector-curvature="0" />
        <path
           id="path8"
           d="m 59.57,47.5 a 7.37,7.37 0 0 0 -7.36,7.36 2.5,2.5 0 0 0 5,0 2.36,2.36 0 1 1 4.72,0 2.5,2.5 0 0 0 5,0 7.37,7.37 0 0 0 -7.36,-7.36 z"
           inkscape:connector-curvature="0" />
        <path
           id="path10"
           d="m 49.67,64.16 a 15.87,15.87 0 0 0 -15,10.75 2.5,2.5 0 1 0 4.73,1.62 10.86,10.86 0 0 1 20.57,0 2.5,2.5 0 1 0 4.73,-1.62 15.87,15.87 0 0 0 -15.03,-10.75 z"
           inkscape:connector-curvature="0" />
      </g>
    </g>
    <g
       transform="matrix(2.2689644,0,0,2.2689644,-3.2243659,10.101641)"
       id="g867">
      <g
         transform="matrix(0.44306266,0,0,0.44306266,1.4824626,53.172143)"
         id="g843">
        <path
           inkscape:connector-curvature="0"
           d="M 79,32.31 V 13.68 a 2.5,2.5 0 0 0 -2.5,-2.5 H 65.2 a 2.5,2.5 0 0 0 -2.5,2.5 V 17 L 51.7,6.68 a 2.5,2.5 0 0 0 -3.42,0 L 1.79,50.37 A 2.5,2.5 0 0 0 3.5,54.69 H 15.83 V 89 H 7 a 2.5,2.5 0 1 0 0,5 h 86 a 2.5,2.5 0 0 0 0,-5 H 84.17 V 54.69 H 96.5 a 2.5,2.5 0 0 0 1.71,-4.32 z m 2.67,17.38 a 2.5,2.5 0 0 0 -2.5,2.5 V 89 H 20.83 V 52.19 a 2.5,2.5 0 0 0 -2.5,-2.5 H 9.81 L 50,11.92 63.49,24.6 a 2.5,2.5 0 0 0 4.21,-1.82 v -6.6 H 74 v 17.21 a 2.5,2.5 0 0 0 0.79,1.82 l 15.4,14.48 z"
           id="path835" />
        <path
           inkscape:connector-curvature="0"
           d="m 37.41,54.86 a 2.36,2.36 0 1 1 4.72,0 2.5,2.5 0 0 0 5,0 7.36,7.36 0 1 0 -14.72,0 2.5,2.5 0 0 0 5,0 z"
           id="path837" />
        <path
           inkscape:connector-curvature="0"
           d="m 59.57,47.5 a 7.37,7.37 0 0 0 -7.36,7.36 2.5,2.5 0 0 0 5,0 2.36,2.36 0 1 1 4.72,0 2.5,2.5 0 0 0 5,0 7.37,7.37 0 0 0 -7.36,-7.36 z"
           id="path839" />
        <path
           inkscape:connector-curvature="0"
           d="m 49.67,64.16 a 15.87,15.87 0 0 0 -15,10.75 2.5,2.5 0 1 0 4.73,1.62 10.86,10.86 0 0 1 20.57,0 2.5,2.5 0 1 0 4.73,-1.62 15.87,15.87 0 0 0 -15.03,-10.75 z"
           id="path841" />
      </g>
    </g>
    <g
       transform="matrix(1.0052934,0,0,1.0052934,63.548423,44.399171)"
       id="g853">
      <path
         inkscape:connector-curvature="0"
         d="M 79,32.31 V 13.68 a 2.5,2.5 0 0 0 -2.5,-2.5 H 65.2 a 2.5,2.5 0 0 0 -2.5,2.5 V 17 L 51.7,6.68 a 2.5,2.5 0 0 0 -3.42,0 L 1.79,50.37 A 2.5,2.5 0 0 0 3.5,54.69 H 15.83 V 89 H 7 a 2.5,2.5 0 1 0 0,5 h 86 a 2.5,2.5 0 0 0 0,-5 H 84.17 V 54.69 H 96.5 a 2.5,2.5 0 0 0 1.71,-4.32 z m 2.67,17.38 a 2.5,2.5 0 0 0 -2.5,2.5 V 89 H 20.83 V 52.19 a 2.5,2.5 0 0 0 -2.5,-2.5 H 9.81 L 50,11.92 63.49,24.6 a 2.5,2.5 0 0 0 4.21,-1.82 v -6.6 H 74 v 17.21 a 2.5,2.5 0 0 0 0.79,1.82 l 15.4,14.48 z"
         id="path845" />
      <path
         inkscape:connector-curvature="0"
         d="m 37.41,54.86 a 2.36,2.36 0 1 1 4.72,0 2.5,2.5 0 0 0 5,0 7.36,7.36 0 1 0 -14.72,0 2.5,2.5 0 0 0 5,0 z"
         id="path847" />
      <path
         inkscape:connector-curvature="0"
         d="m 59.57,47.5 a 7.37,7.37 0 0 0 -7.36,7.36 2.5,2.5 0 0 0 5,0 2.36,2.36 0 1 1 4.72,0 2.5,2.5 0 0 0 5,0 7.37,7.37 0 0 0 -7.36,-7.36 z"
         id="path849" />
      <path
         inkscape:connector-curvature="0"
         d="m 49.67,64.16 a 15.87,15.87 0 0 0 -15,10.75 2.5,2.5 0 1 0 4.73,1.62 10.86,10.86 0 0 1 20.57,0 2.5,2.5 0 1 0 4.73,-1.62 15.87,15.87 0 0 0 -15.03,-10.75 z"
         id="path851" />
    </g>
  </g>
</svg>
