<?xml version="1.0" encoding="UTF-8" standalone="no"?>
<svg
   xmlns:dc="http://purl.org/dc/elements/1.1/"
   xmlns:cc="http://creativecommons.org/ns#"
   xmlns:rdf="http://www.w3.org/1999/02/22-rdf-syntax-ns#"
   xmlns:svg="http://www.w3.org/2000/svg"
   xmlns="http://www.w3.org/2000/svg"
   xmlns:sodipodi="http://sodipodi.sourceforge.net/DTD/sodipodi-0.dtd"
   xmlns:inkscape="http://www.inkscape.org/namespaces/inkscape"
   version="1.1"
   x="0px"
   y="0px"
   viewBox="0 0 80 80"
   enable-background="new 0 0 100 100"
   xml:space="preserve"
   id="svg22"
   sodipodi:docname="zone.svg"
   width="80"
   height="80"
   inkscape:export-filename="D:\Sascha\Downloads\zone.png"
   inkscape:export-xdpi="240"
   inkscape:export-ydpi="240"
   inkscape:version="0.92.2 (5c3e80d, 2017-08-06)"><metadata
     id="metadata28"><rdf:RDF><cc:Work
         rdf:about=""><dc:format>image/svg+xml</dc:format><dc:type
           rdf:resource="http://purl.org/dc/dcmitype/StillImage" /><dc:title></dc:title></cc:Work></rdf:RDF></metadata><defs
     id="defs26" /><sodipodi:namedview
     pagecolor="#ffffff"
     bordercolor="#666666"
     borderopacity="1"
     objecttolerance="10"
     gridtolerance="10"
     guidetolerance="10"
     inkscape:pageopacity="0"
     inkscape:pageshadow="2"
     inkscape:window-width="1858"
     inkscape:window-height="1057"
     id="namedview24"
     showgrid="false"
     inkscape:zoom="1.888"
     inkscape:cx="50"
     inkscape:cy="62.5"
     inkscape:window-x="54"
     inkscape:window-y="-8"
     inkscape:window-maximized="1"
     inkscape:current-layer="svg22" /><polygon
     points="35,51 35,33.354 35,22 48.833,22 49.333,32.51 56,37.354 56,51 "
     id="polygon2"
     transform="translate(-13.241525,-8.4533898)" /><g
     id="g6"
     transform="translate(-13.241525,-8.4533898)"><path
       d="M 74.095,51 H 58.152 L 58.417,36.728 51,31.849 V 22 H 74.526 Z M 60.189,49 H 72.124 L 72.497,24 H 53 v 6.771 l 7.437,4.892 z"
       id="path4"
       inkscape:connector-curvature="0" /></g><g
     id="g10"
     transform="translate(-13.241525,-8.4533898)"><path
       d="M 53.681,75 H 35 V 53 H 57 V 65.07 Z M 37,73 H 52.241 L 55,64.744 V 55 H 37 Z"
       id="path8"
       inkscape:connector-curvature="0" /></g><g
     id="g14"
     transform="translate(-13.241525,-8.4533898)"><path
       d="M 74,75 H 55.601 L 59.419,63.857 58.888,53 H 74 Z M 58.399,73 H 72 V 55 H 60.987 l 0.447,9.143 z"
       id="path12"
       inkscape:connector-curvature="0" /></g><path
     d="m 33.204475,22.58061 c -1.344,-2.061 -2.886,-2.668 -4.292,-2.581 -1.355,-0.087 -2.947,0.52 -4.292,2.581 -3.388,5.195 4.292,14.23 4.292,14.23 0,0 7.68,-9.035 4.292,-14.23 z m -4.291,4.141 c -1.268,0 -2.296,-1.011 -2.296,-2.259 0,-1.247 1.028,-2.259 2.296,-2.259 1.268,0 2.296,1.011 2.296,2.259 0,1.248 -1.028,2.259 -2.296,2.259 z"
     id="path16"
     inkscape:connector-curvature="0"
     style="fill:#000000" /></svg>