<?xml version="1.0" encoding="UTF-8" standalone="no"?>
<svg
   xmlns:dc="http://purl.org/dc/elements/1.1/"
   xmlns:cc="http://creativecommons.org/ns#"
   xmlns:rdf="http://www.w3.org/1999/02/22-rdf-syntax-ns#"
   xmlns:svg="http://www.w3.org/2000/svg"
   xmlns="http://www.w3.org/2000/svg"
   xmlns:sodipodi="http://sodipodi.sourceforge.net/DTD/sodipodi-0.dtd"
   xmlns:inkscape="http://www.inkscape.org/namespaces/inkscape"
   viewBox="0 0 512 512"
   version="1.1"
   x="0px"
   y="0px"
   id="svg36"
   sodipodi:docname="high_school.svg"
   width="512"
   height="512"
   inkscape:version="0.92.2 (5c3e80d, 2017-08-06)">
  <metadata
     id="metadata42">
    <rdf:RDF>
      <cc:Work
         rdf:about="">
        <dc:format>image/svg+xml</dc:format>
        <dc:type
           rdf:resource="http://purl.org/dc/dcmitype/StillImage" />
        <dc:title>15 -Highschool- (education, study, learning, knowledge)</dc:title>
      </cc:Work>
    </rdf:RDF>
  </metadata>
  <defs
     id="defs40" />
  <sodipodi:namedview
     pagecolor="#ffffff"
     bordercolor="#666666"
     borderopacity="1"
     objecttolerance="10"
     gridtolerance="10"
     guidetolerance="10"
     inkscape:pageopacity="0"
     inkscape:pageshadow="2"
     inkscape:window-width="1135"
     inkscape:window-height="759"
     id="namedview38"
     showgrid="false"
     inkscape:zoom="0.38688525"
     inkscape:cx="414.12254"
     inkscape:cy="-98.510051"
     inkscape:window-x="112"
     inkscape:window-y="0"
     inkscape:window-maximized="0"
     inkscape:current-layer="svg36" />
  <title
     id="title2">15 -Highschool- (education, study, learning, knowledge)</title>
  <desc
     id="desc4">Created with Sketch.</desc>
  <g
     id="g3746"
     transform="matrix(7.5480226,0,0,7.5480226,29.559322,-3259.5821)">
    <g
       transform="translate(0,435.75)"
       style="fill:none;fill-rule:evenodd;stroke:none;stroke-width:1"
       id="g30">
      <g
         style="fill:#000000"
         id="g28"
         transform="translate(-601,-522)">
        <g
           id="g26"
           transform="translate(601,522)">
          <path
             inkscape:connector-curvature="0"
             id="path6"
             d="m 30,14.012 c -0.552,0 -1,0.448 -1,1 v 3 h -2 c -0.552,0 -1,0.448 -1,1 0,0.552 0.448,1 1,1 h 3 c 0.552,0 1,-0.448 1,-1 v -4 c 0,-0.552 -0.448,-1 -1,-1" />
          <path
             inkscape:connector-curvature="0"
             id="path8"
             d="m 15,37.012 c -0.551,0 -1,0.449 -1,1 v 7 h 2 v -7 c 0,-0.551 -0.449,-1 -1,-1" />
          <path
             inkscape:connector-curvature="0"
             id="path10"
             d="m 28,33.012 c -0.551,0 -1,0.449 -1,1 v 7 h 2 v -7 c 0,-0.551 -0.449,-1 -1,-1" />
          <path
             inkscape:connector-curvature="0"
             id="path12"
             d="m 32,33.012 c -0.551,0 -1,0.449 -1,1 v 7 h 2 v -7 c 0,-0.551 -0.449,-1 -1,-1" />
          <path
             inkscape:connector-curvature="0"
             id="path14"
             d="m 25,48.7815 v 11.23 h 4 v -12.988 h -2.242 c -0.969,0 -1.758,0.789 -1.758,1.758" />
          <path
             inkscape:connector-curvature="0"
             id="path16"
             d="m 33.2422,47.0237 h -2.242 v 12.988 h 4 v -11.23 c 0,-0.969 -0.789,-1.758 -1.758,-1.758" />
          <path
             inkscape:connector-curvature="0"
             id="path18"
             d="m 11,37.012 c -0.551,0 -1,0.449 -1,1 v 7 h 2 v -7 c 0,-0.551 -0.449,-1 -1,-1" />
          <path
             inkscape:connector-curvature="0"
             id="path20"
             d="m 49,37.012 c -0.552,0 -1,0.449 -1,1 v 7 h 2 v -7 c 0,-0.551 -0.448,-1 -1,-1" />
          <path
             inkscape:connector-curvature="0"
             id="path22"
             d="m 52,46.012 c 0,0.552 -0.447,1 -1,1 h -4 -4 c -0.552,0 -1,-0.448 -1,-1 v -8 c 0,-1.654 1.346,-3 3,-3 0.771,0 1.468,0.301 2,0.78 0.532,-0.479 1.229,-0.78 2,-0.78 1.654,0 3,1.346 3,3 z m -17,-4 c 0,0.552 -0.448,1 -1,1 h -4 -4 c -0.552,0 -1,-0.448 -1,-1 v -8 c 0,-1.654 1.346,-3 3,-3 0.771,0 1.468,0.301 2,0.78 0.532,-0.479 1.229,-0.78 2,-0.78 1.654,0 3,1.346 3,3 z m -17,4 c 0,0.552 -0.448,1 -1,1 H 13 9 c -0.552,0 -1,-0.448 -1,-1 v -8 c 0,-1.654 1.346,-3 3,-3 0.771,0 1.468,0.301 2,0.78 0.532,-0.479 1.229,-0.78 2,-0.78 1.654,0 3,1.346 3,3 z m -8,-34 h 14.356 c -2.044,1.651 -3.356,4.174 -3.356,7 0,2.826 1.312,5.349 3.356,7 H 10 Z m 40,0 v 14 H 35.644 c 2.044,-1.651 3.356,-4.174 3.356,-7 0,-2.826 -1.312,-5.349 -3.356,-7 z m -27,7 c 0,-3.86 3.14,-7 7,-7 3.86,0 7,3.14 7,7 0,3.86 -3.14,7 -7,7 -3.86,0 -7,-3.14 -7,-7 z m 36,39 h -1 v -31 c 0,-0.552 -0.447,-1 -1,-1 h -5 v -15 -5 h 6 c 0.553,0 1,-0.448 1,-1 v -4 c 0,-0.552 -0.447,-1 -1,-1 h -7 c -0.553,0 -1,0.448 -1,1 v 4 5 H 10 v -5 -4 c 0,-0.552 -0.448,-1 -1,-1 H 2 c -0.552,0 -1,0.448 -1,1 v 4 c 0,0.552 0.448,1 1,1 h 6 v 5 15 H 3 c -0.552,0 -1,0.448 -1,1 v 31 H 1 c -0.552,0 -1,0.448 -1,1 0,0.552 0.448,1 1,1 h 2 20 v -11.23 c 0,-2.073 1.686,-3.758 3.758,-3.758 h 3.184 c 0.02,-0.002 0.037,-0.012 0.058,-0.012 0.021,0 0.038,0.01 0.058,0.012 h 3.184 c 2.072,0 3.758,1.685 3.758,3.758 v 11.23 h 20 2 c 0.553,0 1,-0.448 1,-1 0,-0.552 -0.447,-1 -1,-1 z" />
          <path
             inkscape:connector-curvature="0"
             id="path24"
             d="m 45,37.012 c -0.551,0 -1,0.449 -1,1 v 7 h 2 v -7 c 0,-0.551 -0.449,-1 -1,-1" />
        </g>
      </g>
    </g>
  </g>
</svg>
