<?xml version="1.0" encoding="UTF-8" standalone="no"?>
<svg
   xmlns:dc="http://purl.org/dc/elements/1.1/"
   xmlns:cc="http://creativecommons.org/ns#"
   xmlns:rdf="http://www.w3.org/1999/02/22-rdf-syntax-ns#"
   xmlns:svg="http://www.w3.org/2000/svg"
   xmlns="http://www.w3.org/2000/svg"
   xmlns:sodipodi="http://sodipodi.sourceforge.net/DTD/sodipodi-0.dtd"
   xmlns:inkscape="http://www.inkscape.org/namespaces/inkscape"
   version="1.1"
   x="0px"
   y="0px"
   viewBox="0 0 100 100"
   xml:space="preserve"
   id="svg26"
   sodipodi:docname="noun_1597321_cc.svg"
   width="100"
   height="100"
   inkscape:export-filename="D:\Sascha\Downloads\noun_1597321_cc.png"
   inkscape:export-xdpi="230.39999"
   inkscape:export-ydpi="230.39999"
   inkscape:version="0.92.2 (5c3e80d, 2017-08-06)"><metadata
     id="metadata32"><rdf:RDF><cc:Work
         rdf:about=""><dc:format>image/svg+xml</dc:format><dc:type
           rdf:resource="http://purl.org/dc/dcmitype/StillImage" /><dc:title></dc:title></cc:Work></rdf:RDF></metadata><defs
     id="defs30" /><sodipodi:namedview
     pagecolor="#ffffff"
     bordercolor="#666666"
     borderopacity="1"
     objecttolerance="10"
     gridtolerance="10"
     guidetolerance="10"
     inkscape:pageopacity="0"
     inkscape:pageshadow="2"
     inkscape:window-width="1858"
     inkscape:window-height="1057"
     id="namedview28"
     showgrid="false"
     inkscape:snap-page="false"
     inkscape:snap-object-midpoints="true"
     inkscape:zoom="1.888"
     inkscape:cx="50"
     inkscape:cy="83.686441"
     inkscape:window-x="54"
     inkscape:window-y="-8"
     inkscape:window-maximized="1"
     inkscape:current-layer="svg26" /><path
     d="m 41.499,50.124051 c 1.824,2.398 4.021,2.958 5.625,3.367 1.123,0.286 1.772,0.471 2.06,0.958 0.181,0.305 0.508,0.491 0.861,0.491 0.353,0 0.681,-0.187 0.861,-0.491 0.287,-0.487 0.937,-0.672 2.06,-0.958 1.604,-0.409 3.801,-0.968 5.625,-3.367 3.387,-4.454 1.466,-8.969 0.646,-10.897 -0.676,-1.591 0.455,-3.85 0.947,-4.585 0.289,-0.428 0.204,-1.005 -0.195,-1.333 l -2.081,-1.706 c -0.28,-0.23 -0.664,-0.291 -1.002,-0.156 -3.898,1.545 -5.98,-0.94 -6.077,-1.06 -0.19,-0.239 -0.479,-0.378 -0.783,-0.378 -0.307,0 -0.597,0.141 -0.786,0.382 -0.021,0.027 -2.124,2.622 -6.074,1.055 -0.338,-0.135 -0.721,-0.074 -1.002,0.156 l -2.081,1.706 c -0.399,0.328 -0.484,0.905 -0.195,1.333 0.019,0.026 1.755,2.684 0.947,4.584 -0.822,1.929 -2.743,6.445 0.644,10.899 z m 0.526,-15.807 0.985,-0.808 c 3.196,1.049 5.673,0.006 7.034,-1.099 1.36,1.105 3.838,2.147 7.034,1.099 l 0.985,0.808 c -0.627,1.208 -1.565,3.58 -0.668,5.692 1.131,2.658 1.968,5.794 -0.397,8.904 -1.402,1.843 -3.062,2.266 -4.527,2.639 -0.854,0.218 -1.727,0.44 -2.427,0.942 -0.7,-0.502 -1.573,-0.724 -2.428,-0.942 -1.465,-0.373 -3.125,-0.796 -4.526,-2.639 -2.365,-3.109 -1.528,-6.246 -0.397,-8.904 0.898,-2.112 -0.041,-4.484 -0.668,-5.692 z"
     id="path2"
     inkscape:connector-curvature="0" /><path
     d="m 85.136,90.494051 v -5.036 c 0,-0.552 -0.447,-1 -1,-1 h -2.13 v -4.214 c 0,-0.552 -0.447,-1 -1,-1 H 79.74 v -60.739 h 1.421 c 0.553,0 1,-0.448 1,-1 v -5.011 c 0,-0.552 -0.447,-1 -1,-1 H 18.928 c -0.553,0 -1,0.448 -1,1 v 5.011 c 0,0.552 0.447,1 1,1 h 0.977 v 60.739 h -0.91 c -0.553,0 -1,0.448 -1,1 v 4.214 h -2.13 c -0.553,0 -1,0.448 -1,1 v 5.036 c 0,0.552 0.447,1 1,1 h 68.271 c 0.552,0 1,-0.448 1,-1 z m -65.208,-77 h 60.233 v 3.011 H 19.928 Z m 1.976,5.011 H 77.74 v 60.739 H 60.729 v -17.156 c 0,-0.552 -0.447,-1 -1,-1 H 40.832 c -0.553,0 -1,0.448 -1,1 v 17.156 H 21.904 Z m 36.825,60.739 H 41.832 v -16.156 h 16.896 v 16.156 z m -38.735,2 h 60.012 v 3.214 H 19.994 Z m 63.142,8.25 H 16.864 v -3.036 h 66.271 v 3.036 z"
     id="path4"
     inkscape:connector-curvature="0" /><path
     d="m 31.26,49.081051 h -0.63 c -2.093,0 -3.795,1.702 -3.795,3.795 v 4.921 c 0,0.552 0.447,1 1,1 h 6.22 c 0.553,0 1,-0.448 1,-1 v -4.921 c 0,-2.093 -1.702,-3.795 -3.795,-3.795 z m 1.795,7.716 h -4.22 v -3.921 c 0,-0.99 0.806,-1.795 1.795,-1.795 h 0.63 c 0.989,0 1.795,0.805 1.795,1.795 z"
     id="path6"
     inkscape:connector-curvature="0" /><path
     d="m 31.26,36.369051 h -0.63 c -2.093,0 -3.795,1.702 -3.795,3.795 v 4.921 c 0,0.552 0.447,1 1,1 h 6.22 c 0.553,0 1,-0.448 1,-1 v -4.921 c 0,-2.093 -1.702,-3.795 -3.795,-3.795 z m 1.795,7.717 h -4.22 v -3.921 c 0,-0.99 0.806,-1.795 1.795,-1.795 h 0.63 c 0.989,0 1.795,0.805 1.795,1.795 z"
     id="path8"
     inkscape:connector-curvature="0" /><path
     d="m 31.26,61.741051 h -0.63 c -2.093,0 -3.795,1.702 -3.795,3.795 v 4.921 c 0,0.552 0.447,1 1,1 h 6.22 c 0.553,0 1,-0.448 1,-1 v -4.921 c 0,-2.093 -1.702,-3.795 -3.795,-3.795 z m 1.795,7.717 h -4.22 v -3.921 c 0,-0.99 0.806,-1.795 1.795,-1.795 h 0.63 c 0.989,0 1.795,0.805 1.795,1.795 z"
     id="path10"
     inkscape:connector-curvature="0" /><path
     d="m 31.26,23.579051 h -0.63 c -2.093,0 -3.795,1.703 -3.795,3.795 v 4.922 c 0,0.552 0.447,1 1,1 h 6.22 c 0.553,0 1,-0.448 1,-1 v -4.922 c 0,-2.093 -1.702,-3.795 -3.795,-3.795 z m 1.795,7.716 h -4.22 v -3.922 c 0,-0.99 0.806,-1.795 1.795,-1.795 h 0.63 c 0.989,0 1.795,0.805 1.795,1.795 z"
     id="path12"
     inkscape:connector-curvature="0" /><path
     d="m 65.538,58.797051 h 6.22 c 0.553,0 1,-0.448 1,-1 v -4.921 c 0,-2.093 -1.702,-3.795 -3.795,-3.795 h -0.63 c -2.093,0 -3.795,1.702 -3.795,3.795 v 4.921 c 0,0.553 0.447,1 1,1 z m 1,-5.921 c 0,-0.99 0.806,-1.795 1.795,-1.795 h 0.63 c 0.989,0 1.795,0.805 1.795,1.795 v 3.921 h -4.22 z"
     id="path14"
     inkscape:connector-curvature="0" /><path
     d="m 65.538,46.086051 h 6.22 c 0.553,0 1,-0.448 1,-1 v -4.921 c 0,-2.093 -1.702,-3.795 -3.795,-3.795 h -0.63 c -2.093,0 -3.795,1.702 -3.795,3.795 v 4.921 c 0,0.552 0.447,1 1,1 z m 1,-5.922 c 0,-0.99 0.806,-1.795 1.795,-1.795 h 0.63 c 0.989,0 1.795,0.805 1.795,1.795 v 3.921 h -4.22 z"
     id="path16"
     inkscape:connector-curvature="0" /><path
     d="m 65.538,71.458051 h 6.22 c 0.553,0 1,-0.448 1,-1 v -4.921 c 0,-2.093 -1.702,-3.795 -3.795,-3.795 h -0.63 c -2.093,0 -3.795,1.702 -3.795,3.795 v 4.921 c 0,0.552 0.447,1 1,1 z m 1,-5.922 c 0,-0.99 0.806,-1.795 1.795,-1.795 h 0.63 c 0.989,0 1.795,0.805 1.795,1.795 v 3.921 h -4.22 z"
     id="path18"
     inkscape:connector-curvature="0" /><path
     d="m 65.538,33.295051 h 6.22 c 0.553,0 1,-0.448 1,-1 v -4.922 c 0,-2.092 -1.702,-3.795 -3.795,-3.795 h -0.63 c -2.093,0 -3.795,1.703 -3.795,3.795 v 4.922 c 0,0.553 0.447,1 1,1 z m 1,-5.921 c 0,-0.99 0.806,-1.795 1.795,-1.795 h 0.63 c 0.989,0 1.795,0.805 1.795,1.795 v 3.922 h -4.22 z"
     id="path20"
     inkscape:connector-curvature="0" /></svg>