<?xml version="1.0" encoding="UTF-8" standalone="no"?>
<!-- Created with Inkscape (http://www.inkscape.org/) -->

<svg
   xmlns:dc="http://purl.org/dc/elements/1.1/"
   xmlns:cc="http://creativecommons.org/ns#"
   xmlns:rdf="http://www.w3.org/1999/02/22-rdf-syntax-ns#"
   xmlns:svg="http://www.w3.org/2000/svg"
   xmlns="http://www.w3.org/2000/svg"
   xmlns:sodipodi="http://sodipodi.sourceforge.net/DTD/sodipodi-0.dtd"
   xmlns:inkscape="http://www.inkscape.org/namespaces/inkscape"
   width="64"
   height="64"
   viewBox="0 0 16.933333 16.933334"
   version="1.1"
   id="svg836"
   inkscape:version="0.92+devel (unknown)"
   sodipodi:docname="power_line.svg"
   inkscape:export-filename="/home/josh/kotcity4/assets/utility/power_line.png"
   inkscape:export-xdpi="96.000008"
   inkscape:export-ydpi="96.000008">
  <defs
     id="defs830" />
  <sodipodi:namedview
     id="base"
     pagecolor="#ffffff"
     bordercolor="#666666"
     borderopacity="1.0"
     inkscape:pageopacity="0.0"
     inkscape:pageshadow="2"
     inkscape:zoom="11.2"
     inkscape:cx="11.655986"
     inkscape:cy="36.13961"
     inkscape:document-units="mm"
     inkscape:current-layer="layer1"
     inkscape:document-rotation="0"
     showgrid="false"
     units="px"
     inkscape:window-width="3200"
     inkscape:window-height="1637"
     inkscape:window-x="0"
     inkscape:window-y="0"
     inkscape:window-maximized="1" />
  <metadata
     id="metadata833">
    <rdf:RDF>
      <cc:Work
         rdf:about="">
        <dc:format>image/svg+xml</dc:format>
        <dc:type
           rdf:resource="http://purl.org/dc/dcmitype/StillImage" />
        <dc:title></dc:title>
      </cc:Work>
    </rdf:RDF>
  </metadata>
  <g
     inkscape:label="Layer 1"
     inkscape:groupmode="layer"
     id="layer1"
     transform="translate(0,-280.06665)">
    <path
       inkscape:connector-curvature="0"
       d="m 11.901662,284.52299 c -0.102754,-0.17616 -0.322948,-0.23488 -0.499103,-0.13212 l -2.5689351,1.46795 v -2.04046 l 1.3505271,-0.77802 c 0.0147,0.044 0.0734,0.0734 0.132113,0.0734 h 0.0147 v 0.0881 h -0.0147 c -0.0734,0 -0.132113,0.0587 -0.132113,0.11743 0,0.0587 0.05872,0.11745 0.132113,0.11745 h 0.0147 v 0.0881 h -0.0147 c -0.0734,0 -0.132113,0.0587 -0.132113,0.11744 0,0.0587 0.05872,0.11743 0.132113,0.11743 h 0.0147 v 0.0881 h -0.0147 c -0.0734,0 -0.132113,0.0587 -0.132113,0.11744 0,0.0734 0.05872,0.11744 0.132113,0.11744 h 0.0147 v 0.0147 c 0,0.0441 0.04405,0.0735 0.08808,0.0735 0.04406,0 0.08808,-0.0294 0.08808,-0.0735 v 0.0147 h 0.0147 c 0.0734,0 0.132113,-0.0587 0.132113,-0.11745 0,-0.0734 -0.05872,-0.11743 -0.132113,-0.11743 h -0.0147 v -0.0881 h 0.0147 c 0.0734,0 0.132113,-0.0587 0.132113,-0.11745 0,-0.0587 -0.05872,-0.11743 -0.132113,-0.11743 h -0.0147 v -0.0881 h 0.0147 c 0.0734,0 0.132113,-0.0587 0.132113,-0.11743 0,-0.0587 -0.05872,-0.11744 -0.132113,-0.11744 h -0.0147 v -0.0881 h 0.0147 c 0.0734,0 0.132113,-0.0587 0.132113,-0.11743 0,-0.0734 -0.05872,-0.11744 -0.132113,-0.11744 h -0.0147 c 0,0 0,-0.0147 0,-0.0147 l 0.205515,-0.11744 c 0.176156,-0.1028 0.234873,-0.32295 0.132115,-0.49911 -0.102755,-0.17615 -0.32295,-0.23487 -0.499105,-0.13211 l -1.5120022,0.83673 v -1.54136 c 0,-0.29358 -0.2348722,-0.52846 -0.5284662,-0.52846 h -0.014702 c -0.2935882,0 -0.5284661,0.23488 -0.5284661,0.52846 v 2.14322 l -2.1285399,1.23309 c -0.1761608,0.1028 -0.234877,0.32296 -0.132119,0.49911 0.073397,0.11744 0.1908363,0.17615 0.3229498,0.17615 0.058722,0 0.1321189,-0.0147 0.1761552,-0.044 l 0.1174391,-0.0734 c 0.014702,0.0441 0.073397,0.0881 0.1321136,0.0881 h 0.014702 v 0.0881 h -0.014701 c -0.073397,0 -0.1321136,0.0587 -0.1321136,0.11745 0,0.0587 0.058716,0.11743 0.1321136,0.11743 h 0.014702 v 0.0881 h -0.014702 c -0.073397,0 -0.1321136,0.0587 -0.1321136,0.11744 0,0.0587 0.058716,0.11743 0.1321136,0.11743 h 0.014702 v 0.0881 h -0.014702 c -0.073397,0 -0.1321136,0.0587 -0.1321136,0.11743 0,0.0735 0.058716,0.11744 0.1321136,0.11744 h 0.014702 v 0.0147 c 0,0.0441 0.044052,0.0734 0.088077,0.0734 0.044053,0 0.088078,-0.0294 0.088078,-0.0734 v 0.0146 h 0.014702 c 0.073397,0 0.1321188,-0.0587 0.1321188,-0.11743 0,-0.0735 -0.058722,-0.11745 -0.1321188,-0.11745 h -0.014702 v -0.0881 h 0.014702 c 0.073397,0 0.1321188,-0.0587 0.1321188,-0.11743 0,-0.0587 -0.058722,-0.11745 -0.1321188,-0.11745 h -0.014702 v -0.0881 h 0.014702 c 0.073397,0 0.1321188,-0.0587 0.1321188,-0.11745 0,-0.0587 -0.058722,-0.11744 -0.1321188,-0.11744 h -0.014702 v -0.0881 h 0.014702 c 0.073397,0 0.1321188,-0.0587 0.1321188,-0.11744 0,-0.0734 -0.058722,-0.11743 -0.1321188,-0.11743 h -0.014702 c 0,0 0,-0.0147 0,-0.0147 l 1.335846,-0.76334 v 2.04047 l -2.6129697,1.45329 c -0.1761552,0.1028 -0.2348774,0.32295 -0.1321191,0.4991 0.058723,0.13211 0.1908363,0.19084 0.3229552,0.19084 0.058716,0 0.1321136,-0.0147 0.1761551,-0.0441 l 0.1321137,-0.0733 c 0.02935,0.044 0.073397,0.0587 0.117439,0.0587 h 0.014702 v 0.0881 h -0.014702 c -0.073397,0 -0.1321189,0.0587 -0.1321189,0.11743 0,0.0587 0.058722,0.11745 0.1321189,0.11745 h 0.014702 v 0.0881 h -0.014702 c -0.073397,0 -0.1321189,0.0587 -0.1321189,0.11744 0,0.0587 0.058722,0.11743 0.1321189,0.11743 h 0.014702 v 0.0881 h -0.014702 c -0.073397,0 -0.1321189,0.0587 -0.1321189,0.11744 0,0.0734 0.058722,0.11743 0.1321189,0.11743 h 0.014702 v 0.0147 c 0,0.0441 0.044053,0.0735 0.088078,0.0735 0.044052,0 0.088077,-0.0294 0.088077,-0.0735 v -0.0147 h 0.014647 c 0.073403,0 0.1321198,-0.0587 0.1321198,-0.11743 0,-0.0734 -0.058717,-0.11744 -0.1321198,-0.11744 h -0.014647 v -0.0881 h 0.014647 c 0.073403,0 0.1321198,-0.0587 0.1321198,-0.11743 0,-0.0587 -0.058717,-0.11744 -0.1321198,-0.11744 h -0.014647 v -0.0881 h 0.014647 c 0.073403,0 0.1321198,-0.0587 0.1321198,-0.11745 0,-0.0587 -0.058717,-0.11743 -0.1321198,-0.11743 h -0.014647 v -0.0881 h 0.014647 c 0.073403,0 0.1321198,-0.0587 0.1321198,-0.11744 0,-0.0734 -0.058717,-0.11744 -0.1321198,-0.11744 h -0.014647 l 1.8055902,-1.04225 c 0,0 -0.014702,8.5729 0,8.71969 0.014702,0.14679 0.4697494,0.13211 0.7046215,0.0294 0.3523109,-0.16148 0.3669913,-0.2936 0.3669913,-0.2936 v -9.072 l 2.3634175,-1.3652 c 0.02934,0.0294 0.0734,0.0587 0.117438,0.0587 v 0 0.0881 h -0.0147 c -0.0734,0 -0.13212,0.0587 -0.13212,0.11743 0,0.0587 0.05872,0.11744 0.13212,0.11744 h 0.0147 v 0.0881 h -0.0147 c -0.0734,0 -0.13212,0.0587 -0.13212,0.11744 0,0.0587 0.05872,0.11743 0.13212,0.11743 h 0.0147 v 0.11745 h -0.0147 c -0.0734,0 -0.13212,0.0587 -0.13212,0.11744 0,0.0733 0.05872,0.11742 0.13212,0.11742 h 0.0147 v 0.0147 c 0,0.044 0.04406,0.0734 0.08808,0.0734 0.04406,0 0.08808,-0.0294 0.08808,-0.0734 v -0.0147 h 0.0147 c 0.0734,0 0.132114,-0.0587 0.132114,-0.11742 0,-0.0734 -0.05872,-0.11744 -0.132114,-0.11744 h -0.0147 v -0.0882 h 0.0147 c 0.0734,0 0.132114,-0.0587 0.132114,-0.11745 0,-0.0587 -0.05872,-0.11743 -0.132114,-0.11743 h -0.0147 v -0.0881 h 0.0147 c 0.0734,0 0.132114,-0.0587 0.132114,-0.11744 0,-0.0587 -0.05872,-0.11744 -0.132114,-0.11744 h -0.0147 v -0.0881 h 0.0147 c 0.0734,0 0.132114,-0.0587 0.132114,-0.11743 0,-0.0734 -0.05872,-0.11744 -0.132114,-0.11744 h -0.0147 l 0.264233,-0.14679 c 0.176155,-0.13212 0.234872,-0.367 0.132113,-0.52846 z"
       id="path2"
       style="stroke-width:0.14679614" />
  </g>
</svg>
