<?xml version="1.0" encoding="UTF-8" standalone="no"?>
<svg
   xmlns:dc="http://purl.org/dc/elements/1.1/"
   xmlns:cc="http://creativecommons.org/ns#"
   xmlns:rdf="http://www.w3.org/1999/02/22-rdf-syntax-ns#"
   xmlns:svg="http://www.w3.org/2000/svg"
   xmlns="http://www.w3.org/2000/svg"
   xmlns:sodipodi="http://sodipodi.sourceforge.net/DTD/sodipodi-0.dtd"
   xmlns:inkscape="http://www.inkscape.org/namespaces/inkscape"
   version="1.1"
   x="0px"
   y="0px"
   viewBox="0 0 100 100"
   enable-background="new 0 0 100 100"
   xml:space="preserve"
   id="svg16"
   sodipodi:docname="recenter.svg"
   width="100"
   height="100"
   inkscape:version="0.92.2 (5c3e80d, 2017-08-06)"
   inkscape:export-filename="D:\Sascha\Downloads\recenter.png"
   inkscape:export-xdpi="192"
   inkscape:export-ydpi="192"><metadata
     id="metadata22"><rdf:RDF><cc:Work
         rdf:about=""><dc:format>image/svg+xml</dc:format><dc:type
           rdf:resource="http://purl.org/dc/dcmitype/StillImage" /><dc:title></dc:title></cc:Work></rdf:RDF></metadata><defs
     id="defs20" /><sodipodi:namedview
     pagecolor="#ffffff"
     bordercolor="#666666"
     borderopacity="1"
     objecttolerance="10"
     gridtolerance="10"
     guidetolerance="10"
     inkscape:pageopacity="0"
     inkscape:pageshadow="2"
     inkscape:window-width="1858"
     inkscape:window-height="1057"
     id="namedview18"
     showgrid="false"
     inkscape:zoom="1.888"
     inkscape:cx="50"
     inkscape:cy="62.5"
     inkscape:window-x="54"
     inkscape:window-y="-8"
     inkscape:window-maximized="1"
     inkscape:current-layer="svg16" /><path
     d="m 36.688,20.124746 c -1.381,0 -2.5,1.119 -2.5,2.5 v 7.155 l -10.97,-10.801 c -0.984,-0.969 -2.565,-0.957 -3.535,0.027 -0.969,0.983 -0.957,2.566 0.027,3.535 l 10.875,10.708 h -7.21 c -1.381,0 -2.5,1.119 -2.5,2.5 0,1.381 1.119,2.5 2.5,2.5 h 13.312 c 1.355,0 2.5,-1.145 2.5,-2.5 v -13.124 c 0.001,-1.381 -1.119,-2.5 -2.499,-2.5 z"
     id="path2"
     inkscape:connector-curvature="0" /><path
     d="m 69.415,64.499746 h 7.21 c 1.381,0 2.5,-1.119 2.5,-2.5 0,-1.381 -1.119,-2.5 -2.5,-2.5 H 63.312 c -1.356,0 -2.5,1.145 -2.5,2.5 v 13.125 c 0,1.381 1.119,2.5 2.5,2.5 1.381,0 2.5,-1.119 2.5,-2.5 v -7.155 l 10.97,10.801 c 0.487,0.479 1.12,0.719 1.754,0.719 0.646,0 1.292,-0.249 1.781,-0.746 0.969,-0.983 0.957,-2.566 -0.027,-3.535 z"
     id="path4"
     inkscape:connector-curvature="0" /><path
     d="m 39.14,61.519746 c -0.236,-1.152 -1.269,-2.02 -2.452,-2.02 H 23.375 c -1.381,0 -2.5,1.119 -2.5,2.5 0,1.381 1.119,2.5 2.5,2.5 h 7.21 l -10.875,10.708 c -0.984,0.969 -0.996,2.552 -0.027,3.535 0.489,0.497 1.135,0.746 1.781,0.746 0.634,0 1.268,-0.239 1.754,-0.719 l 10.97,-10.801 v 7.155 c 0,1.381 1.119,2.5 2.5,2.5 1.381,0 2.5,-1.119 2.5,-2.5 v -13.124 c -0.017,-0.16 -0.027,-0.366 -0.048,-0.48 z"
     id="path6"
     inkscape:connector-curvature="0" /><path
     d="m 63.312,38.249746 h 13.312 c 1.381,0 2.5,-1.119 2.5,-2.5 0,-1.381 -1.119,-2.5 -2.5,-2.5 h -7.21 l 10.876,-10.708 c 0.984,-0.969 0.996,-2.552 0.027,-3.535 -0.969,-0.984 -2.553,-0.996 -3.535,-0.027 l -10.97,10.801 v -7.156 c 0,-1.381 -1.119,-2.5 -2.5,-2.5 -1.381,0 -2.5,1.119 -2.5,2.5 v 13.125 c 0.016,0.16 0.023,0.321 0.048,0.48 0.176,1.163 1.269,2.02 2.452,2.02 z"
     id="path8"
     inkscape:connector-curvature="0" /><circle
     cx="50.000999"
     cy="48.834747"
     r="2.7390001"
     id="circle10" /></svg>