<?xml version="1.0" encoding="UTF-8" standalone="no"?>
<svg
   xmlns:dc="http://purl.org/dc/elements/1.1/"
   xmlns:cc="http://creativecommons.org/ns#"
   xmlns:rdf="http://www.w3.org/1999/02/22-rdf-syntax-ns#"
   xmlns:svg="http://www.w3.org/2000/svg"
   xmlns="http://www.w3.org/2000/svg"
   xmlns:sodipodi="http://sodipodi.sourceforge.net/DTD/sodipodi-0.dtd"
   xmlns:inkscape="http://www.inkscape.org/namespaces/inkscape"
   version="1.1"
   x="0px"
   y="0px"
   viewBox="0 0 90 90"
   enable-background="new 0 0 90 90"
   xml:space="preserve"
   id="svg10"
   sodipodi:docname="road.svg"
   width="90"
   height="90"
   inkscape:version="0.92.2 (5c3e80d, 2017-08-06)"><metadata
     id="metadata16"><rdf:RDF><cc:Work
         rdf:about=""><dc:format>image/svg+xml</dc:format><dc:type
           rdf:resource="http://purl.org/dc/dcmitype/StillImage" /><dc:title></dc:title></cc:Work></rdf:RDF></metadata><defs
     id="defs14" /><sodipodi:namedview
     pagecolor="#ffffff"
     bordercolor="#666666"
     borderopacity="1"
     objecttolerance="10"
     gridtolerance="10"
     guidetolerance="10"
     inkscape:pageopacity="0"
     inkscape:pageshadow="2"
     inkscape:window-width="1858"
     inkscape:window-height="1057"
     id="namedview12"
     showgrid="false"
     inkscape:zoom="2.0977778"
     inkscape:cx="45"
     inkscape:cy="56.25"
     inkscape:window-x="54"
     inkscape:window-y="-8"
     inkscape:window-maximized="1"
     inkscape:current-layer="svg10" /><g
     id="g4"
     transform="translate(0,-0.00211865)"><path
       d="m 43.2,80.3 c 0,-1.5 0.9,-2.7 1.9,-2.7 1.1,0 1.9,1.2 1.9,2.7 0,1.5 1.3,2.7 2.8,2.7 h 23.4 c 1.6,0 2.7,-1.3 2.5,-2.8 L 68.7,9.7 C 68.5,8.1 67.1,6.9 65.6,6.9 H 49.9 c -1.6,0 -2.8,1.2 -2.8,2.7 0,1.5 -0.9,2.7 -1.9,2.7 -1.1,0 -1.9,-1.2 -1.9,-2.7 C 43.3,8.1 42,6.9 40.4,6.9 H 24.7 c -1.6,0 -3,1.3 -3.1,2.8 l -7.2,70.4 c -0.2,1.6 1,2.8 2.5,2.8 h 23.4 c 1.7,0 2.9,-1.2 2.9,-2.6 z m 0,-55.9 c 0,-1.6 0.9,-2.8 1.9,-2.8 1.1,0 1.9,1.3 1.9,2.8 V 28 c 0,1.6 -0.9,2.8 -1.9,2.8 -1.1,0 -1.9,-1.3 -1.9,-2.8 z m 0,18.7 c 0,-1.6 0.9,-2.8 1.9,-2.8 1.1,0 1.9,1.3 1.9,2.8 v 3.7 c 0,1.6 -0.9,2.8 -1.9,2.8 -1.1,0 -1.9,-1.3 -1.9,-2.8 z m 0,18.6 c 0,-1.6 0.9,-2.8 1.9,-2.8 1.1,0 1.9,1.3 1.9,2.8 v 3.7 c 0,1.6 -0.9,2.8 -1.9,2.8 -1.1,0 -1.9,-1.3 -1.9,-2.8 z"
       id="path2"
       inkscape:connector-curvature="0" /></g></svg>