<?xml version="1.0" encoding="UTF-8" standalone="no"?>
<svg
   xmlns:dc="http://purl.org/dc/elements/1.1/"
   xmlns:cc="http://creativecommons.org/ns#"
   xmlns:rdf="http://www.w3.org/1999/02/22-rdf-syntax-ns#"
   xmlns:svg="http://www.w3.org/2000/svg"
   xmlns="http://www.w3.org/2000/svg"
   xmlns:sodipodi="http://sodipodi.sourceforge.net/DTD/sodipodi-0.dtd"
   xmlns:inkscape="http://www.inkscape.org/namespaces/inkscape"
   data-name="Layer 1"
   viewBox="0 0 110 110"
   x="0px"
   y="0px"
   version="1.1"
   id="svg16"
   sodipodi:docname="route.svg"
   width="110"
   height="110"
   inkscape:version="0.92.2 (5c3e80d, 2017-08-06)"
   inkscape:export-filename="D:\Sascha\Downloads\route.png"
   inkscape:export-xdpi="174.54546"
   inkscape:export-ydpi="174.54546">
  <metadata
     id="metadata22">
    <rdf:RDF>
      <cc:Work
         rdf:about="">
        <dc:format>image/svg+xml</dc:format>
        <dc:type
           rdf:resource="http://purl.org/dc/dcmitype/StillImage" />
        <dc:title>Route2</dc:title>
      </cc:Work>
    </rdf:RDF>
  </metadata>
  <defs
     id="defs20" />
  <sodipodi:namedview
     pagecolor="#ffffff"
     bordercolor="#666666"
     borderopacity="1"
     objecttolerance="10"
     gridtolerance="10"
     guidetolerance="10"
     inkscape:pageopacity="0"
     inkscape:pageshadow="2"
     inkscape:window-width="1858"
     inkscape:window-height="1057"
     id="namedview18"
     showgrid="false"
     inkscape:zoom="1.888"
     inkscape:cx="50"
     inkscape:cy="62.5"
     inkscape:window-x="54"
     inkscape:window-y="-8"
     inkscape:window-maximized="1"
     inkscape:current-layer="svg16" />
  <title
     id="title2">Route2</title>
  <path
     d="m 25.71,98.008475 -1.48,-1.6 c -0.62,-0.66 -15.23,-16.32 -15.23,-29.4 a 16.71,16.71 0 0 1 33.42,0 c 0,13.28 -14.61,28.72 -15.23,29.37 z m 0,-43.55 a 12.63,12.63 0 0 0 -12.61,12.55 c 0,9.19 9,20.65 12.62,24.89 3.63,-4.17 12.61,-15.52 12.61,-24.89 a 12.63,12.63 0 0 0 -12.61,-12.58 z"
     id="path4"
     inkscape:connector-curvature="0" />
  <path
     d="m 87.67,40.348475 -1.48,-1.57 c -0.4,-0.43 -9.84,-10.55 -9.84,-19.11 a 11.335,11.335 0 1 1 22.67,0 c 0,8.71 -9.45,18.7 -9.85,19.12 z m 0,-27.92 a 7.25,7.25 0 0 0 -7.24,7.24 c 0,4.81 4.38,11.14 7.24,14.61 2.49,-3 7.24,-9.36 7.24,-14.61 a 7.25,7.25 0 0 0 -7.23,-7.24 z"
     id="path6"
     inkscape:connector-curvature="0" />
  <circle
     cx="25.719999"
     cy="67.458473"
     r="3.1400001"
     id="circle8" />
  <path
     d="m 34.71,96.588475 -0.71,-3.93 c 2.58,-0.47 5.07,-1 7.39,-1.46 l 0.84,3.91 c -2.36,0.5 -4.89,1.01 -7.52,1.48 z m 12.21,-2.58 -0.92,-3.87 c 2.58,-0.63 5,-1.29 7.22,-2 l 1.14,3.87 c -2.28,0.69 -4.79,1.37 -7.44,2 z m 12.08,-3.53 -1.36,-3.76 a 55.92,55.92 0 0 0 6.73,-2.9 l 1.85,3.55 a 59.83,59.83 0 0 1 -7.22,3.11 z m 11.52,-5.75 -2.36,-3.23 a 12.85,12.85 0 0 0 4.31,-4.86 l 3.65,1.65 a 16.75,16.75 0 0 1 -5.63,6.44 z m 2.62,-11.78 a 15.86,15.86 0 0 0 -2,-6.38 l 3.55,-1.84 a 19.6,19.6 0 0 1 2.49,8 z m -4.39,-10.35 -1,-1.62 c -1.1,-1.72 -2.14,-3.35 -3,-5 l 3.53,-1.88 c 0.8,1.5 1.8,3.07 2.86,4.72 l 1,1.65 z m -5.95,-11.59 a 9.78,9.78 0 0 1 -0.18,-1.84 8.24,8.24 0 0 1 3.63,-6.75 l 2.41,3.19 a 4.2,4.2 0 0 0 -2,3.56 5.78,5.78 0 0 0 0.11,1.09 z m 9.56,-7.35 -1.45,-3.73 a 48.14,48.14 0 0 1 7.64,-2.13 l 0.8,3.92 a 44.31,44.31 0 0 0 -6.99,1.94 z"
     id="path10"
     inkscape:connector-curvature="0" />
</svg>
