<svg xmlns="http://www.w3.org/2000/svg" xmlns:xlink="http://www.w3.org/1999/xlink" version="1.1" x="0px" y="0px" viewBox="0 0 100 125" enable-background="new 0 0 100 100" xml:space="preserve"><circle cx="24.38379" cy="34.39502" r="4.41602"/><path d="M41.75,19.25l-40.25-8v7v52.5v0.91699V75.5v1.25V90h33V76.75h7.25v-6H28.83691V58.00488  c1.11816-0.1123,1.99512-1.04688,1.99512-2.19434V43.22754c0-2.41846-1.96094-4.37891-4.37891-4.37891h-4.32422  c-2.41797,0-4.37891,1.96045-4.37891,4.37891v12.58301c0,1.14844,0.87793,2.08203,1.99609,2.19434V70.75H7.5V18.99512L41.75,23.25  V19.25z"/><path d="M94.50098,70.0918c2.1123-2.17383,3.25586-5.11035,3.16992-8.14063l-1.07617-37.84668  C96.39551,17.08594,90.64844,11.5,83.62695,11.5H72.80859H61.99023c-7.02148,0-12.76855,5.58594-12.96777,12.60449  l-1.07715,37.84668c-0.08594,3.03027,1.05762,5.9668,3.16992,8.14063c0.76172,0.7832,1.62891,1.43945,2.56445,1.96289L48.77148,90  h7.25781l1.86914-6.83301h29.82031L89.58789,90h7.25781l-4.9082-17.94531C92.87305,71.53027,93.73926,70.875,94.50098,70.0918z   M86.48047,67.40625c-3.10254,0-5.61914-2.51563-5.61914-5.61914s2.5166-5.61719,5.61914-5.61719  c3.10352,0,5.61816,2.51367,5.61816,5.61719S89.58398,67.40625,86.48047,67.40625z M65.69141,17.13574  c0-1.06201,0.86133-1.92285,1.92285-1.92285h10.5752c1.06152,0,1.92285,0.86084,1.92285,1.92285v0.1543  c0,1.06201-0.86133,1.92285-1.92285,1.92285h-10.5752c-1.06152,0-1.92285-0.86084-1.92285-1.92285V17.13574z M54.66406,26.76807  c0.08398-2.14648,1.84863-3.84326,3.99707-3.84326h28.85742c2.14844,0,3.91309,1.69678,3.99707,3.84375l0.51465,13.16406  c0.04297,1.08691-0.35938,2.14453-1.11328,2.92871s-1.79492,1.22754-2.88281,1.22754H58.14551  c-1.08887,0-2.12988-0.44336-2.88379-1.22754s-1.15625-1.8418-1.11328-2.9292L54.66406,26.76807z M59.13574,56.16992  c3.10352,0,5.61914,2.51367,5.61914,5.61719s-2.51563,5.61914-5.61914,5.61914s-5.61816-2.51563-5.61816-5.61914  S56.03223,56.16992,59.13574,56.16992z M58.99219,79.16699l1.55176-5.6748h24.5293l1.55176,5.6748H58.99219z"/></svg>