<?xml version="1.0" encoding="UTF-8" standalone="no"?>
<svg
   xmlns:dc="http://purl.org/dc/elements/1.1/"
   xmlns:cc="http://creativecommons.org/ns#"
   xmlns:rdf="http://www.w3.org/1999/02/22-rdf-syntax-ns#"
   xmlns:svg="http://www.w3.org/2000/svg"
   xmlns="http://www.w3.org/2000/svg"
   xmlns:sodipodi="http://sodipodi.sourceforge.net/DTD/sodipodi-0.dtd"
   xmlns:inkscape="http://www.inkscape.org/namespaces/inkscape"
   version="1.1"
   x="0px"
   y="0px"
   viewBox="0 0 512 511.99999"
   xml:space="preserve"
   id="svg30"
   sodipodi:docname="university.svg"
   width="512"
   height="512"
   inkscape:version="0.92.2 (5c3e80d, 2017-08-06)"><metadata
     id="metadata36"><rdf:RDF><cc:Work
         rdf:about=""><dc:format>image/svg+xml</dc:format><dc:type
           rdf:resource="http://purl.org/dc/dcmitype/StillImage" /><dc:title></dc:title></cc:Work></rdf:RDF></metadata><defs
     id="defs34" /><sodipodi:namedview
     pagecolor="#ffffff"
     bordercolor="#666666"
     borderopacity="1"
     objecttolerance="10"
     gridtolerance="10"
     guidetolerance="10"
     inkscape:pageopacity="0"
     inkscape:pageshadow="2"
     inkscape:window-width="1201"
     inkscape:window-height="838"
     id="namedview32"
     showgrid="false"
     inkscape:zoom="0.54735371"
     inkscape:cx="188.44183"
     inkscape:cy="57.65089"
     inkscape:window-x="112"
     inkscape:window-y="0"
     inkscape:window-maximized="0"
     inkscape:current-layer="svg30" /><g
     id="g50"
     transform="matrix(7.6215542,0,0,7.6215542,27.11841,23.453996)"><g
       id="g24"><g
         id="g22"><path
           id="path2"
           d="m 59.03,55 h -1 V 25 h 1 c 0.321,0 0.623,-0.154 0.811,-0.416 0.188,-0.261 0.239,-0.596 0.138,-0.901 l -4,-12 C 55.843,11.275 55.461,10.999 55.03,10.999 H 51.689 L 48.949,4.605 C 48.792,4.237 48.43,3.999 48.03,3.999 H 33.43 L 30.841,0.414 c -0.376,-0.521 -1.245,-0.521 -1.621,0 l -2.589,3.585 h -14.6 c -0.4,0 -0.762,0.238 -0.919,0.606 l -2.74,6.394 H 5.031 c -0.431,0 -0.812,0.275 -0.949,0.684 l -4,12 C -0.02,23.988 0.032,24.323 0.22,24.584 0.408,24.845 0.71,25 1.031,25 h 1 v 30 h -1 c -0.552,0 -1,0.448 -1,1 v 4 c 0,0.553 0.448,1 1,1 h 58 c 0.552,0 1,-0.447 1,-1 V 56 C 60.03,55.448 59.582,55 59.03,55 Z m -3,0 h -12 V 25 h 12 z m -36,-12 c 0,-0.552 0.448,-1 1,-1 h 6 c 0.552,0 1,0.448 1,1 v 9 c 0,0.552 -0.448,1 -1,1 h -6 c -0.552,0 -1,-0.448 -1,-1 z m 7,-3 h -6 c -0.552,0 -1,-0.448 -1,-1 v -9 c 0,-0.552 0.448,-1 1,-1 h 6 c 0.552,0 1,0.448 1,1 v 9 c 0,0.552 -0.448,1 -1,1 z m 12,-11 c 0.552,0 1,0.448 1,1 v 9 c 0,0.552 -0.448,1 -1,1 h -6 c -0.552,0 -1,-0.448 -1,-1 v -9 c 0,-0.552 0.448,-1 1,-1 z m -6,13 h 6 c 0.552,0 1,0.448 1,1 v 9 c 0,0.552 -0.448,1 -1,1 h -6 c -0.552,0 -1,-0.448 -1,-1 v -9 c 0,-0.552 0.448,-1 1,-1 z M 57.643,23 h -0.613 -13 v -4 c 0,-0.21 -0.066,-0.415 -0.189,-0.585 L 39.93,13 h 11.1 3.279 z M 34.875,6 h 12.496 l 2.143,5 H 38.486 l -0.361,-0.5 z m -4.845,7 c 3.86,0 7,3.14 7,7 0,3.86 -3.14,7 -7,7 -3.86,0 -7,-3.14 -7,-7 0,-3.86 3.14,-7 7,-7 z M 12.689,6 h 12.496 l -3.611,5 H 10.547 Z M 5.75,13 h 3.279 11.1 l -3.911,5.415 C 16.095,18.585 16.029,18.79 16.029,19 v 4 h -13 -0.613 z M 4.03,25 h 12 v 30 h -12 V 25 Z"
           inkscape:connector-curvature="0" /><path
           id="path4"
           d="m 13.03,29 h -6 c -0.552,0 -1,0.448 -1,1 v 9 c 0,0.552 0.448,1 1,1 h 6 c 0.552,0 1,-0.448 1,-1 v -9 c 0,-0.552 -0.448,-1 -1,-1 z"
           inkscape:connector-curvature="0" /><path
           id="path6"
           d="m 13.03,42 h -6 c -0.552,0 -1,0.448 -1,1 v 9 c 0,0.552 0.448,1 1,1 h 6 c 0.552,0 1,-0.448 1,-1 v -9 c 0,-0.552 -0.448,-1 -1,-1 z"
           inkscape:connector-curvature="0" /><path
           id="path8"
           d="m 47.03,40 h 6 c 0.552,0 1,-0.448 1,-1 v -9 c 0,-0.552 -0.448,-1 -1,-1 h -6 c -0.552,0 -1,0.448 -1,1 v 9 c 0,0.552 0.448,1 1,1 z"
           inkscape:connector-curvature="0" /><path
           id="path10"
           d="m 47.03,53 h 6 c 0.552,0 1,-0.448 1,-1 v -9 c 0,-0.552 -0.448,-1 -1,-1 h -6 c -0.552,0 -1,0.448 -1,1 v 9 c 0,0.552 0.448,1 1,1 z"
           inkscape:connector-curvature="0" /><path
           id="path12"
           d="m 30.03,25 c 2.757,0 5,-2.243 5,-5 0,-2.757 -2.243,-5 -5,-5 -2.757,0 -5,2.243 -5,5 0,2.757 2.243,5 5,5 z m -1,-7 c 0,-0.552 0.448,-1 1,-1 0.552,0 1,0.448 1,1 v 1 h 1 c 0.552,0 1,0.448 1,1 0,0.552 -0.448,1 -1,1 h -2 c -0.552,0 -1,-0.448 -1,-1 z"
           inkscape:connector-curvature="0" /><rect
           id="rect14"
           height="7"
           width="4"
           y="31"
           x="22.030001" /><rect
           id="rect16"
           height="7"
           width="4"
           y="44"
           x="34.029999" /><rect
           id="rect18"
           height="7"
           width="4"
           y="44"
           x="22.030001" /><rect
           id="rect20"
           height="7"
           width="4"
           y="31"
           x="34.029999" /></g></g></g></svg>