<?xml version="1.0" encoding="UTF-8" standalone="no"?>
<svg
   xmlns:dc="http://purl.org/dc/elements/1.1/"
   xmlns:cc="http://creativecommons.org/ns#"
   xmlns:rdf="http://www.w3.org/1999/02/22-rdf-syntax-ns#"
   xmlns:svg="http://www.w3.org/2000/svg"
   xmlns="http://www.w3.org/2000/svg"
   xmlns:sodipodi="http://sodipodi.sourceforge.net/DTD/sodipodi-0.dtd"
   xmlns:inkscape="http://www.inkscape.org/namespaces/inkscape"
   xml:space="preserve"
   version="1.1"
   style="image-rendering:optimizeQuality;shape-rendering:geometricPrecision;text-rendering:geometricPrecision"
   viewBox="0 0 256 256"
   x="0px"
   y="0px"
   fill-rule="evenodd"
   clip-rule="evenodd"
   id="svg46"
   sodipodi:docname="chemical_refinery.svg"
   width="256"
   height="256"
   inkscape:version="0.92+devel (unknown)"
   inkscape:export-filename="/home/josh/kotcity4/assets/industrial/chemical_refinery.png"
   inkscape:export-xdpi="96"
   inkscape:export-ydpi="96"><metadata
     id="metadata50"><rdf:RDF><cc:Work
         rdf:about=""><dc:format>image/svg+xml</dc:format><dc:type
           rdf:resource="http://purl.org/dc/dcmitype/StillImage" /><dc:title></dc:title></cc:Work></rdf:RDF></metadata><sodipodi:namedview
     pagecolor="#ffffff"
     bordercolor="#666666"
     inkscape:document-rotation="0"
     borderopacity="1"
     objecttolerance="10"
     gridtolerance="10"
     guidetolerance="10"
     inkscape:pageopacity="0"
     inkscape:pageshadow="2"
     inkscape:window-width="3200"
     inkscape:window-height="1637"
     id="namedview48"
     showgrid="false"
     inkscape:zoom="3.3417417"
     inkscape:cx="48.148544"
     inkscape:cy="124.33636"
     inkscape:window-x="0"
     inkscape:window-y="0"
     inkscape:window-maximized="1"
     inkscape:current-layer="svg46" /><defs
     id="defs4"><style
       type="text/css"
       id="style2">
   
    .str0 {stroke:black;stroke-width:6.94488;stroke-linecap:round;stroke-linejoin:round}
    .fil0 {fill:none}
    .fil1 {fill:black}
   
  </style></defs><g
     id="g40"
     transform="matrix(0.76402966,0,0,0.76402966,-1.5966077,-0.40241246)"><path
       class="fil0 str0"
       d="m 157,166 c 0,4 15,19 32,2 l -4,-91 c -1,-7 -19,-13 -26,0 z"
       id="path6"
       inkscape:connector-curvature="0" /><path
       class="fil0 str0"
       d="m 159,77 c 6,11 20,11 26,0"
       id="path8"
       inkscape:connector-curvature="0" /><polyline
       class="fil0 str0"
       points="56,283 56,224 89,241 89,301 124,318 227,261 227,165 124,216 124,318 "
       id="polyline10" /><polyline
       class="fil0 str0"
       points="124,216 89,196 119,180 119,150 89,166 89,196 "
       id="polyline12" /><polyline
       class="fil0 str0"
       points="89,166 46,142 79,127 119,150 "
       id="polyline14" /><polyline
       class="fil0 str0"
       points="46,142 46,278 56,283 "
       id="polyline16" /><line
       class="fil0 str0"
       x1="119"
       y1="165"
       x2="157"
       y2="147"
       id="line18" /><line
       class="fil0 str0"
       x1="188"
       y1="143"
       x2="227"
       y2="165"
       id="line20" /><line
       class="fil0 str0"
       x1="56"
       y1="283"
       x2="89"
       y2="272"
       id="line22" /><path
       class="fil0 str0"
       d="m 201,44 c 2,-5 6,-9 11,-10 4,-14 32,-21 39,-11 7,-5 28,-9 29,3 v 0 c 22,-5 14,25 -5,20 0,12 -18,18 -26,18 -7,4 -22,8 -29,5 -1,0 -2,1 -3,1 -8,2 -16,-1 -17,-6 0,-1 0,-2 0,-2 v 0 c -20,5 -19,-16 1,-18 z"
       id="path24"
       inkscape:connector-curvature="0" /><polygon
       class="fil1"
       points="89,241 56,224 56,283 89,272 "
       id="polygon26" /><polygon
       class="fil1"
       points="167,251 167,279 186,268 186,241 "
       id="polygon28" /><polygon
       class="fil1"
       points="167,234 186,223 186,196 167,207 "
       id="polygon30" /><polygon
       class="fil1"
       points="195,191 195,218 215,209 215,182 "
       id="polygon32" /><polygon
       class="fil1"
       points="215,226 195,235 195,263 215,254 "
       id="polygon34" /><path
       class="fil1"
       d="m 159,77 c 6,11 20,11 26,0 0,-7 -19,-13 -26,0 z"
       id="path36"
       inkscape:connector-curvature="0" /><polygon
       class="fil1"
       points="119,165 119,150 89,166 89,196 119,180 "
       id="polygon38" /></g></svg>