<?xml version="1.0" encoding="UTF-8" standalone="no"?>
<svg
   xmlns:dc="http://purl.org/dc/elements/1.1/"
   xmlns:cc="http://creativecommons.org/ns#"
   xmlns:rdf="http://www.w3.org/1999/02/22-rdf-syntax-ns#"
   xmlns:svg="http://www.w3.org/2000/svg"
   xmlns="http://www.w3.org/2000/svg"
   xmlns:sodipodi="http://sodipodi.sourceforge.net/DTD/sodipodi-0.dtd"
   xmlns:inkscape="http://www.inkscape.org/namespaces/inkscape"
   version="1.1"
   x="0px"
   y="0px"
   viewBox="0 0 512 512"
   xml:space="preserve"
   id="svg16"
   sodipodi:docname="chemical_storage.svg"
   width="512"
   height="512"
   inkscape:version="0.92.2 (5c3e80d, 2017-08-06)"><metadata
     id="metadata22"><rdf:RDF><cc:Work
         rdf:about=""><dc:format>image/svg+xml</dc:format><dc:type
           rdf:resource="http://purl.org/dc/dcmitype/StillImage" /><dc:title></dc:title></cc:Work></rdf:RDF></metadata><defs
     id="defs20" /><sodipodi:namedview
     pagecolor="#ffffff"
     bordercolor="#666666"
     borderopacity="1"
     objecttolerance="10"
     gridtolerance="10"
     guidetolerance="10"
     inkscape:pageopacity="0"
     inkscape:pageshadow="2"
     inkscape:window-width="1808"
     inkscape:window-height="991"
     id="namedview18"
     showgrid="false"
     inkscape:zoom="0.7375"
     inkscape:cx="-213.1491"
     inkscape:cy="163.68317"
     inkscape:window-x="112"
     inkscape:window-y="0"
     inkscape:window-maximized="1"
     inkscape:current-layer="svg16" /><g
     id="g10"
     transform="matrix(7.3422635,0,0,7.3422635,21.047568,21.047568)"><path
       d="M 63,31 H 60.992 C 58.125,25.65 52.483,22 46,22 c -2.114,0 -4.131,0.406 -6,1.114 V 19 h -2 l -7,1.744 V 1 H 19 v 22.734 l -4,0.997 V 1 H 3 V 27.72 L 1,28.218 V 63 H 63 V 61 H 58 V 51.029 C 59.186,49.846 60.195,48.488 60.992,47 H 63 V 45 H 61.886 C 62.594,43.131 63,41.114 63,39 63,36.886 62.594,34.869 61.886,33 H 63 Z m -4.333,0 H 33.333 c 2.662,-4.199 7.338,-7 12.667,-7 5.329,0 10.005,2.801 12.667,7 z M 29,11 H 21 V 9 h 8 z M 29,3 V 7 H 21 V 3 Z m -8,10 h 8 v 8.242 l -8,1.993 z M 13,11 H 5 V 9 h 8 z M 13,3 V 7 H 5 V 3 Z M 5,13 h 8 V 25.229 L 5,27.222 Z M 3,29.781 38,21.03 v 2.978 C 35.036,25.596 32.596,28.036 31.008,31 H 29 v 2 h 1.114 C 29.406,34.869 29,36.886 29,39 c 0,2.114 0.406,4.131 1.114,6 H 29 v 2 h 2.008 c 0.797,1.488 1.806,2.846 2.992,4.029 V 61 H 25 V 47 h 2 V 45 H 5 v 2 H 7 V 61 H 3 Z M 45,61 h -9 v -8.283 c 2.556,1.869 5.646,3.035 9,3.232 z M 15,47 v 6 h -2 v 2 h 2 v 6 H 9 V 47 Z m 2,8 h 2 v -2 h -2 v -6 h 6 v 14 h -6 z m 39,6 h -9 v -5.051 c 3.354,-0.197 6.444,-1.363 9,-3.232 z m 5,-22 c 0,2.134 -0.455,4.161 -1.261,6 H 58 v 2 h 0.666 C 56.004,51.199 51.328,54 45.999,54 40.67,54 35.994,51.199 33.332,47 H 56 V 45 H 32.261 C 31.455,43.161 31,41.134 31,39 c 0,-2.134 0.455,-4.161 1.261,-6 H 59.739 C 60.545,34.839 61,36.866 61,39 Z"
       id="path2"
       inkscape:connector-curvature="0" /><path
       d="M 27,31 H 5 v 10 h 22 z m -8,2 v 6 H 13 V 33 Z M 7,33 h 4 v 6 H 7 Z m 18,6 h -4 v -6 h 4 z"
       id="path4"
       inkscape:connector-curvature="0" /><rect
       x="56"
       y="41"
       width="2"
       height="2"
       id="rect6" /><rect
       x="47"
       y="41"
       width="7"
       height="2"
       id="rect8" /></g></svg>