<?xml version="1.0" encoding="UTF-8" standalone="no"?>
<svg
   xmlns:dc="http://purl.org/dc/elements/1.1/"
   xmlns:cc="http://creativecommons.org/ns#"
   xmlns:rdf="http://www.w3.org/1999/02/22-rdf-syntax-ns#"
   xmlns:svg="http://www.w3.org/2000/svg"
   xmlns="http://www.w3.org/2000/svg"
   xmlns:sodipodi="http://sodipodi.sourceforge.net/DTD/sodipodi-0.dtd"
   xmlns:inkscape="http://www.inkscape.org/namespaces/inkscape"
   version="1.1"
   x="0px"
   y="0px"
   viewBox="-927 509 128 128"
   xml:space="preserve"
   id="svg10"
   sodipodi:docname="large_factory.svg"
   width="128"
   height="128"
   inkscape:version="0.92.2 (5c3e80d, 2017-08-06)"><metadata
     id="metadata16"><rdf:RDF><cc:Work
         rdf:about=""><dc:format>image/svg+xml</dc:format><dc:type
           rdf:resource="http://purl.org/dc/dcmitype/StillImage" /><dc:title></dc:title></cc:Work></rdf:RDF></metadata><defs
     id="defs14" /><sodipodi:namedview
     pagecolor="#ffffff"
     bordercolor="#666666"
     borderopacity="1"
     objecttolerance="10"
     gridtolerance="10"
     guidetolerance="10"
     inkscape:pageopacity="0"
     inkscape:pageshadow="2"
     inkscape:window-width="1808"
     inkscape:window-height="991"
     id="namedview12"
     showgrid="false"
     inkscape:zoom="2.95"
     inkscape:cx="32"
     inkscape:cy="40"
     inkscape:window-x="112"
     inkscape:window-y="0"
     inkscape:window-maximized="1"
     inkscape:current-layer="svg10" /><g
     id="g20"
     transform="matrix(0.88142941,0,0,0.88142941,-102.32642,67.065499)"><path
       style="stroke-width:2.20623541"
       inkscape:connector-curvature="0"
       id="path2"
       d="m -843.80937,513.98362 c -2.64748,0 -5.07434,1.10311 -6.83932,2.64748 -2.42686,-1.98561 -5.73622,-3.08873 -9.04557,-3.08873 -7.5012,0 -13.67866,5.51559 -14.56115,12.79616 -0.44125,0 -1.10312,-0.22062 -1.54437,-0.22062 -6.17746,0 -11.2518,5.07434 -11.2518,11.2518 0,1.76499 0.44125,3.52998 1.10312,5.07434 -3.97122,0.44125 -6.83933,3.7506 -6.83933,7.72183 0,4.19184 3.52998,7.72182 7.72182,7.72182 4.19185,0 7.72183,-3.52998 7.72183,-7.72182 0,-0.44125 0,-1.10312 -0.22063,-1.54437 0.44125,0 1.10312,0.22062 1.54437,0.22062 4.63309,0 8.60432,-2.8681 10.3693,-6.83932 1.76499,0.66187 3.7506,1.10311 5.73622,1.10311 5.73621,0 10.58993,-3.30935 13.23741,-8.16307 0.88249,0.22063 1.98561,0.44125 2.8681,0.44125 5.95684,0 10.58993,-4.85372 10.58993,-10.58993 0.22063,-5.95684 -4.63309,-10.81055 -10.58993,-10.81055 z" /><path
       style="stroke-width:2.20623541"
       inkscape:connector-curvature="0"
       id="path4"
       d="m -857.15348,590.76061 h -3.08873 v -28.01919 h -12.35491 v 28.01919 h -6.17746 v -28.01919 h -12.35492 v 28.01919 h -6.17746 v 43.68345 h 68.61392 v -62.21583 z m -12.35492,31.10791 h -15.66427 v -15.66427 h 15.66427 z m 29.34293,0 h -15.66427 v -15.66427 h 15.66427 z" /></g></svg>