<?xml version="1.0" encoding="UTF-8" standalone="no"?>
<svg
   xmlns:dc="http://purl.org/dc/elements/1.1/"
   xmlns:cc="http://creativecommons.org/ns#"
   xmlns:rdf="http://www.w3.org/1999/02/22-rdf-syntax-ns#"
   xmlns:svg="http://www.w3.org/2000/svg"
   xmlns="http://www.w3.org/2000/svg"
   xmlns:sodipodi="http://sodipodi.sourceforge.net/DTD/sodipodi-0.dtd"
   xmlns:inkscape="http://www.inkscape.org/namespaces/inkscape"
   version="1.1"
   x="0px"
   y="0px"
   viewBox="0 0 512 512"
   xml:space="preserve"
   id="svg14"
   sodipodi:docname="metal_fabricator.svg"
   width="512"
   height="512"
   inkscape:version="0.92.2 (5c3e80d, 2017-08-06)"><metadata
     id="metadata20"><rdf:RDF><cc:Work
         rdf:about=""><dc:format>image/svg+xml</dc:format><dc:type
           rdf:resource="http://purl.org/dc/dcmitype/StillImage" /><dc:title></dc:title></cc:Work></rdf:RDF></metadata><defs
     id="defs18" /><sodipodi:namedview
     pagecolor="#ffffff"
     bordercolor="#666666"
     borderopacity="1"
     objecttolerance="10"
     gridtolerance="10"
     guidetolerance="10"
     inkscape:pageopacity="0"
     inkscape:pageshadow="2"
     inkscape:window-width="1808"
     inkscape:window-height="991"
     id="namedview16"
     showgrid="false"
     inkscape:zoom="0.7375"
     inkscape:cx="279.77372"
     inkscape:cy="241.66239"
     inkscape:window-x="112"
     inkscape:window-y="0"
     inkscape:window-maximized="1"
     inkscape:current-layer="svg14" /><g
     id="g8"
     transform="matrix(7.2985238,0,0,7.2985238,22.447238,22.447238)"><path
       d="m 46,35 c -6.065,0 -11,4.935 -11,11 0,6.065 4.935,11 11,11 2.878,0 5.599,-1.104 7.663,-3.107 L 52.269,52.457 C 50.581,54.097 48.354,55 46,55 c -4.962,0 -9,-4.037 -9,-9 0,-4.963 4.038,-9 9,-9 4.962,0 9,4.037 9,9 0,1.774 -0.516,3.491 -1.491,4.963 l 1.667,1.105 C 56.37,50.267 57,48.169 57,46 57,39.935 52.065,35 46,35 Z"
       id="path2"
       inkscape:connector-curvature="0" /><path
       d="m 46,39 c -3.86,0 -7,3.141 -7,7 0,3.859 3.14,7 7,7 3.86,0 7,-3.141 7,-7 0,-3.859 -3.14,-7 -7,-7 z m 0,12 c -2.757,0 -5,-2.243 -5,-5 0,-2.757 2.243,-5 5,-5 2.757,0 5,2.243 5,5 0,2.757 -2.243,5 -5,5 z"
       id="path4"
       inkscape:connector-curvature="0" /><path
       d="M 63,51 V 41 h -2.861 c -0.177,-0.503 -0.378,-0.993 -0.603,-1.466 l 2.02,-2.02 -7.071,-7.071 -2.02,2.021 C 51.992,32.239 51.503,32.037 51,31.861 V 29 H 48 V 21 H 47 41 19 v -7.376 c 0.174,-0.201 0.335,-0.415 0.467,-0.651 2.071,0.209 3.931,-0.648 5.171,-2.17 C 25.085,10.934 25.541,11 26,11 28.757,11 31,8.757 31,6 31,3.243 28.757,1 26,1 24.935,1 23.951,1.341 23.139,1.911 21.237,0.749 18.764,0.749 16.862,1.911 16.049,1.341 15.065,1 14,1 11.243,1 9,3.243 9,6 9,6.49 9.079,6.973 9.218,7.438 7.909,8.096 7,9.437 7,11 c 0,0.732 0.212,1.409 0.556,2 H 7 v 8 H 1 v 10 h 2 v 32 h 38 2 8 v -2.861 c 0.503,-0.176 0.993,-0.378 1.465,-0.603 l 2.02,2.021 7.071,-7.071 -2.02,-2.02 C 59.761,51.993 59.962,51.503 60.139,51 Z M 9,11 c 0,-1.103 0.897,-2 2,-2 0.494,0 0.969,0.182 1.335,0.512 L 13.672,8.024 C 12.988,7.409 12.116,7.065 11.201,7.019 11.083,6.692 11,6.352 11,6 c 0,-1.654 1.346,-3 3,-3 1.654,0 3,1.346 3,3 h 2 c 0,-0.951 -0.281,-1.831 -0.744,-2.588 1.092,-0.52 2.395,-0.519 3.487,0 C 21.281,4.169 21,5.049 21,6 h 2 c 0,-1.654 1.346,-3 3,-3 1.654,0 3,1.346 3,3 0,1.654 -1.346,3 -3,3 C 25.565,9 25.13,8.896 24.706,8.692 L 23.889,8.297 23.418,9.072 C 22.684,10.279 21.406,11 20,11 19.721,11 19.423,10.962 19.088,10.884 l -0.916,-0.214 -0.27,0.9 C 17.646,12.426 16.881,13 16,13 H 11 C 9.897,13 9,12.103 9,11 Z m 0,4 h 8 v 6 H 9 Z m -6,8 h 38 5 v 6 H 41 3 Z m 38,8 v 0.861 c -0.503,0.176 -0.993,0.378 -1.465,0.603 L 38.071,31 Z M 5,31 h 31.958 l -5,5 H 7 v 7 H 9 V 61 H 5 Z m 27.463,8.534 C 32.238,40.007 32.037,40.497 31.86,41 H 29 9 V 38 H 30.929 Z M 29,47 v 2 H 11 v -2 h 2 v -2 h -2 v -2 h 18 v 2 H 15 v 2 z m 5.958,12 2,2 H 11 V 59 H 29 V 57 H 11 v -2 h 19.958 l 2,2 H 31 v 2 z M 31.929,53 H 11 v -2 h 18 2 0.861 c 0.177,0.503 0.378,0.993 0.603,1.466 z m 6.142,8 1.464,-1.464 c 0.473,0.225 0.962,0.427 1.465,0.603 V 61 Z m 20.657,-6.515 -4.243,4.243 -1.646,-1.646 -0.656,0.355 c -0.767,0.415 -1.597,0.758 -2.468,1.016 L 49,58.666 V 61 h -6 v -2.334 l -0.715,-0.213 c -0.871,-0.258 -1.701,-0.601 -2.468,-1.016 l -0.656,-0.355 -1.646,1.646 -4.243,-4.243 1.646,-1.646 -0.355,-0.656 C 34.148,51.417 33.806,50.586 33.546,49.714 L 33.333,49 H 31 v -2 -2 -2 h 2 0.333 l 0.213,-0.715 c 0.26,-0.872 0.602,-1.703 1.017,-2.469 l 0.355,-0.656 -1.646,-1.646 4.243,-4.243 1.646,1.646 0.656,-0.355 c 0.767,-0.415 1.597,-0.758 2.468,-1.016 L 43,33.334 V 31 h 5 1 v 2.334 l 0.715,0.213 c 0.871,0.258 1.701,0.601 2.468,1.016 l 0.656,0.355 1.646,-1.646 4.243,4.243 -1.646,1.646 0.355,0.656 c 0.415,0.766 0.757,1.597 1.017,2.469 L 58.667,43 H 61 v 6 h -2.333 l -0.213,0.715 c -0.26,0.872 -0.602,1.703 -1.017,2.469 l -0.355,0.656 z"
       id="path6"
       inkscape:connector-curvature="0" /></g></svg>